<?xml version="1.0" encoding="UTF-8"?>
<svg width="60px" height="34px" viewBox="0 0 60 34" version="1.1" xmlns="http://www.w3.org/2000/svg" xmlns:xlink="http://www.w3.org/1999/xlink">
    <!-- Generator: Sketch 49.1 (51147) - http://www.bohemiancoding.com/sketch -->
    <title>Fill 1</title>
    <desc>Created with Sketch.</desc>
    <defs></defs>
    <g id="Page-1" stroke="none" stroke-width="1" fill="none" fill-rule="evenodd">
        <path d="M45.3693504,4.09722937 C44.8224342,4.46304119 44.4578512,5.1538989 44.1541847,5.71164337 C43.7151851,6.51772723 43.3591021,7.36732248 43.0386857,8.22631885 C42.295853,10.216445 41.7564367,12.2821129 41.3152704,14.3580138 C40.8856041,16.3778408 40.5441878,18.4242905 40.3480213,20.4805573 C40.3421046,20.5476963 40.3353546,20.6148353 40.3286046,20.6821406 C41.3654371,18.9287065 42.2510197,17.0865856 43.007019,15.1961281 C43.7819351,13.2582489 44.4275178,11.2682892 44.9553507,9.2492109 C45.2056839,8.29220991 45.4269337,7.32489264 45.5330169,6.34010425 C45.6002669,5.71430564 45.6460168,5.04532841 45.4946003,4.42668463 C45.4684336,4.32002765 45.4353503,4.17967638 45.3693504,4.09722937 M29.7896967,19.7495992 C28.7567809,19.7577524 27.8128651,20.5659161 27.2202822,21.3338131 C26.3944496,22.4041268 25.9237833,23.7327633 25.6742002,25.0490868 C27.2059489,24.3435035 28.7898642,23.5973206 29.83653,22.2174355 C30.1627798,21.7873965 30.4603629,21.2818158 30.5635294,20.7446207 C30.6141961,20.478727 30.6348627,20.1305526 30.4130296,19.9307164 C30.249613,19.7837927 30.0014466,19.7464378 29.7896967,19.7495992 M37.3606904,30.613969 C36.8304409,31.1227944 36.2344414,31.5711364 35.5936086,31.9650684 C34.0677765,32.9031007 32.3056113,33.5579347 30.5395295,33.8565243 C28.6091977,34.1824022 26.6205327,33.9784061 24.9096175,32.9835511 C24.1547848,32.5446933 23.4811187,31.9750519 22.8866192,31.3382714 C22.5535361,30.9810288 22.284703,30.5959155 22.0912865,30.1462424 C22.0628699,30.0801017 22.0207032,29.9604662 21.9856199,29.8597161 C21.5957869,30.294414 21.1692039,30.6969152 20.7177877,31.0643909 C19.2451222,32.2628261 17.558207,33.0684107 15.7111252,33.4980337 C13.8825434,33.9233305 11.9839616,34.0793226 10.1095465,33.9620998 C8.47104789,33.8596026 6.84338259,33.5387165 5.31938386,32.9204055 C3.70005188,32.2630756 2.08921989,31.1959234 1.12438737,29.711794 C0.137304857,28.1943863 -0.170611552,26.3689046 0.0863882333,24.5910109 C0.215554792,23.6972387 0.471387912,22.8189409 0.834720941,21.9927237 C0.92788753,21.7809072 1.07255408,21.5152631 1.13355402,21.4078574 C1.50072038,20.760927 2.41796962,20.5019386 3.02880244,20.6741538 C3.91846836,20.9255715 4.41388462,21.8387283 4.21846811,22.7316685 C4.20455146,22.7939822 4.0310516,23.3577167 3.99238497,23.5116289 C3.81788512,24.2091423 3.74613518,24.9458409 3.83305177,25.661075 C3.93455168,26.49869 4.30680137,27.2333087 4.90705087,27.825413 C6.07771656,28.9796712 7.75196516,29.5083804 9.34604716,29.7297643 C11.1077124,29.9744431 12.9367108,29.8836765 14.6704594,29.4909092 C15.9252083,29.2062133 17.0515407,28.7004662 18.0566232,27.8906385 C18.8258726,27.2709132 19.5189553,26.4917848 19.8633717,25.5535028 C20.1172882,24.8624787 20.1415381,24.1089746 19.8762884,23.4167025 C19.3754554,22.1090314 18.3432063,21.0192499 17.2212072,20.2189898 C15.6252086,19.0811211 13.7832101,18.3078996 12.0102949,17.4927474 C10.4205463,16.7609574 8.90254753,15.9065368 7.58688197,14.7411304 C6.23354976,13.5423625 5.10596737,12.0290313 4.61188445,10.2720198 C4.14888484,8.62665692 4.30363471,6.87014453 5.03280077,5.32569817 C5.76121682,3.78283253 6.96771582,2.40344659 8.43696459,1.52722869 C9.95687999,0.620561144 11.7285452,0.182285804 13.4820437,0.044846384 C13.8926267,0.0126496192 14.3052097,-0.00215922866 14.7172927,0.000253448804 C16.5151245,0.00690911077 18.3285397,0.321305943 20.0001216,0.990033579 C21.6503702,1.64985927 23.2010356,2.70993983 24.1766181,4.21969355 C25.1935339,5.79359121 25.4990337,7.88197154 25.085784,9.69846808 C24.7058677,11.3675417 23.6649519,12.8130683 22.321453,13.8644133 C21.6074536,14.4234057 20.5387045,14.7229105 19.7658718,13.853681 C18.8973725,12.8765467 19.4587054,11.8383466 20.0414549,11.2829316 C20.7803709,10.578513 21.2447872,9.78757076 21.3162872,8.84978799 C21.3900371,7.88147237 21.0484541,6.78744793 20.3865379,6.07254664 C19.2487056,4.84407783 17.4022071,4.36869718 15.7967918,4.19714749 C14.0800432,4.01361761 12.1163782,4.17318711 10.5969628,5.05972128 C9.57413031,5.65681736 8.65296441,6.8255516 8.50804786,8.02498508 C8.37021464,9.16792863 8.98896413,10.2339161 9.73246351,11.0505658 C11.0402124,12.4869409 12.7905443,13.291028 14.5223762,14.0915378 C16.4930412,15.0025315 18.4917895,15.9290828 20.2046214,17.2825949 C21.3395371,18.1793621 22.3495363,19.2925216 23.0832023,20.5547679 C23.3963688,19.9515985 23.7615351,19.3762166 24.1828681,18.8414341 C25.2268672,17.5162086 26.672616,16.4453958 28.321948,16.0203486 C28.8189476,15.8921439 29.3289471,15.8234242 29.84253,15.8255873 C31.4944453,15.8387322 33.0818607,16.6448161 33.9179433,18.0941697 C34.8031092,19.6290485 34.6324427,21.4835655 33.9064433,23.0421552 C33.1711106,24.6209614 31.9358616,25.9020931 30.5171128,26.8914573 C29.1822806,27.8227508 27.6716985,28.5670202 26.1011998,28.999971 C26.5711161,29.4307587 27.109699,29.7784338 27.7296151,29.9466557 C28.5441978,30.1685388 29.4069471,30.0929971 30.2229464,29.921697 C31.856195,29.5788472 33.5469436,28.8578726 34.7572759,27.684313 C35.3728587,27.0873001 35.9362749,26.4179069 36.2745247,25.6332044 C36.2644413,25.4661473 36.2562747,25.2990901 36.2500247,25.1318666 C36.230108,24.5941723 36.2244414,24.0559789 36.2322747,23.5175358 C36.2654413,21.2739122 36.5116911,19.0347811 36.8615242,16.8196936 C37.1913572,14.7337259 37.6241069,12.6609032 38.1679397,10.6201941 C38.6585227,8.78031952 39.2450222,6.9515932 40.0247715,5.21180316 C40.7623542,3.56677311 41.7124368,1.75385398 43.2911855,0.765987358 C43.9151849,0.375466392 44.6214344,0.15932377 45.3597671,0.164149125 C46.8554325,0.198841763 48.1850147,0.976888646 48.8774308,2.31525907 C49.6605135,3.82817423 49.6048469,5.64575232 49.375847,7.28653938 C49.0924306,9.31842979 48.5025978,11.3147956 47.8770983,13.2649045 C47.2357655,15.2634334 46.4747661,17.2260218 45.5836002,19.1271284 C44.7189343,20.9722443 43.7293518,22.7621182 42.595186,24.4560674 C42.0568532,25.2604041 41.4868536,26.0319617 40.8577708,26.7680779 C40.7404376,26.9051014 40.5416878,27.1421261 40.4253545,27.3203315 C40.4594378,27.562764 40.5396044,27.8447976 40.5969377,28.0568637 C40.6991876,28.4352381 40.8362708,28.8111166 41.0265207,29.1544655 C41.4623537,29.9399168 42.2032697,30.21621 43.059519,29.999069 C43.3626854,29.9221129 43.6583518,29.8226108 43.9467682,29.7048888 C43.9594349,29.6627085 43.9744349,29.6209442 43.9917682,29.5795127 C44.219268,29.0368267 44.5615177,28.6057894 45.1182673,28.3710109 C45.6014335,28.1670981 46.0732665,27.9383097 46.5355161,27.6904695 C47.3610987,27.2469528 48.1559314,26.7452823 48.9167641,26.1980205 C50.4342628,25.1064087 51.8779283,23.8111337 52.9262607,22.2519617 C52.9884274,22.1597808 53.048844,22.0670175 53.1078439,21.9724239 C52.2230113,22.010694 51.3369287,21.9709264 50.4570961,21.8712578 C49.9639299,21.8154335 49.472597,21.7397253 48.9865974,21.6414711 C48.7970142,21.6031179 48.576931,21.5540323 48.3909312,21.5017854 C47.9956815,21.3906358 47.1060156,20.9263202 47.2621821,19.8569217 C47.3754321,19.0817867 48.0616815,18.6336943 48.7377642,18.6234612 C49.065764,18.6182199 49.6521801,18.6772889 50.0087632,18.6847765 C50.4960128,18.6948432 50.983429,18.6805335 51.4689286,18.643761 C52.2920946,18.5805322 53.1176773,18.4594823 53.9183432,18.2556527 C54.2857596,18.1622238 54.649176,18.0509911 55.0063423,17.9242839 C55.4743419,17.7578092 55.9569249,17.6259439 56.3635079,17.6942476 C56.8105908,17.7694566 57.352757,18.0787785 57.6539235,18.5529944 C57.9434232,19.0084912 57.9693399,19.5116593 57.9198399,20.0327144 C57.8462566,20.8139227 57.6412568,21.5894737 57.3424237,22.3142753 C56.7450909,23.7633793 55.830175,25.0644781 54.7842592,26.2248927 C53.6097602,27.5288201 52.2525946,28.6700165 50.8095958,29.6672843 C50.6876793,29.7518944 50.5650961,29.8359221 50.4410128,29.91787 C52.1015948,30.276111 53.7306767,30.4143823 55.3555087,29.818867 C56.0900914,29.5496455 56.9405074,28.9611185 57.353507,28.628585 C57.7187567,28.3344048 58.6811726,27.7346464 59.4568386,28.4105289 C60.3362546,29.1770948 59.9544215,30.0561413 59.6490051,30.4711219 C59.3520054,30.8743718 58.9737557,31.2615649 58.6326726,31.5615689 C57.2461738,32.7816349 55.5434252,33.5600978 53.7232601,33.8620152 C51.783095,34.1842325 49.82543,33.921417 47.9759315,33.2872156 C47.4608486,33.1104246 46.9548491,32.9074269 46.4583495,32.6837135 C46.2398497,32.8244807 46.0171832,32.957594 45.7905167,33.0823044 C44.1328514,33.9945461 42.1349364,34.3419717 40.3482713,33.5883843 C38.9907724,33.0154982 37.9802732,31.9229713 37.3606904,30.613969" id="Fill-1" fill="#FFFFFF"></path>
    </g>
</svg>