<svg xmlns="http://www.w3.org/2000/svg" width="96" height="130" viewBox="0 0 96 130">
  <path fill="#FFF" fill-rule="evenodd" d="M60.9194725,156.497146 C52.8873082,151.426843 51.2820513,143.234384 51.2820513,132.792571 C51.2820513,127.270458 52.4312385,123.545213 53.7697586,120.195203 C55.1082787,116.845194 56.8549273,113.597682 60.5698033,113.597682 C63.2806588,113.597682 67.6673122,116.305224 67.2024987,120.195203 C66.7376852,124.085183 65.918113,124.861063 65.6387852,126.721141 C65.4525667,127.961194 65.3527249,129.230374 65.3392601,130.528683 C65.3903958,132.424976 65.5912242,133.840942 65.9417452,134.776581 C67.7285912,139.546175 70.635648,142.618315 75.2039415,144.82716 C79.7722349,147.036006 86.2708234,147.68691 94.5037919,147.68691 C103.037967,147.68691 109.714603,146.155802 114.533902,143.093539 C119.3532,140.031277 126.165256,134.970994 126.165256,129.448881 C126.165256,126.035211 124.574068,120.779306 122.365223,118.319456 C120.156378,115.859606 116.087278,111.784496 112.77401,110.127862 C109.460742,108.471228 103.692999,105.076038 97.6688755,102.666389 C89.9379172,99.6543269 88.2253154,97.8782457 83.5791036,94.4659951 C78.9328919,91.0537446 77.3872737,89.4499993 73.9234028,84.7813037 C70.459532,80.1126082 69.0384719,77.6912141 68.1725204,70.3285293 C67.306569,62.9658445 68.687209,57.6646621 72.330149,52.1654907 C75.973089,46.6663193 79.5253471,43.5971485 84.9673614,40.8945526 C90.1901497,38.3008279 94.5037919,36.8166142 98.6530491,36.260569 C101.224569,35.9159576 107.219514,35.8185873 110.507512,35.9600822 C117.953047,36.2804917 120.128314,37.3024494 126.165256,39.7063446 C132.202199,42.1102399 134.001823,43.2055675 138.384507,47.3538531 C142.767192,51.5021387 146.024047,57.8052632 146.024047,64.2309947 C146.024047,70.5563241 144.453574,76.0685795 142.545935,79.2814452 C140.638296,82.494311 133.789129,90.2878135 130.076532,90.1186215 C126.844546,89.9713321 126.216518,89.1053576 124.580658,87.3893705 C122.944799,85.6733835 123.737179,82.2111582 124.580658,80.4545395 C125.424138,78.6979208 130.832765,74.0896306 130.900364,70.3285293 C131.90446,66.532804 129.901679,62.2853419 129.496855,61.6787108 C126.922313,57.8207448 126.389076,57.1999858 122.365223,54.7652733 C118.34137,52.3305607 113.128311,51.452022 107.003785,51.452022 C98.3692085,51.452022 93.3149263,53.3802319 89.1411438,56.3861236 C84.9673614,59.3920152 83.5791036,61.6787108 83.2606177,66.0385876 C82.9963486,69.6562706 84.0014615,73.0586048 85.9535959,75.5556551 C87.9057303,78.0527054 89.4374304,79.6245253 92.6892672,81.9199113 C95.9411039,84.2152973 100.678456,87.2157526 107.003785,89.7258039 C114.634341,92.8382676 120.2841,97.0322538 124.902595,99.5423052 C129.521089,102.052357 134.388292,106.923858 137.651359,111.241147 C140.914426,115.558435 142.545935,120.879664 142.545935,127.204994 C142.545935,139.052436 138.05301,148.163786 129.067026,154.539316 C120.081043,160.914847 108.058077,164.102564 92.9977686,164.102564 C79.6442953,164.102564 68.9516369,161.56745 60.9194725,156.497146 Z" transform="translate(-51 -35)"/>
</svg>
