<svg width="560" height="400" xmlns="http://www.w3.org/2000/svg"><g fill="none" fill-rule="evenodd"><path d="M0 0h560v400H0z"/><path d="M514.28 68.2V46.81c0-.93-.75-1.685-1.68-1.69H382.76v80.19H512.6a1.69 1.69 0 001.68-1.69v-22c-9.24 0-16.73-7.49-16.73-16.73s7.49-16.73 16.73-16.73v.04z" stroke="#DBDFE4" stroke-width="2" fill="#DBDFE4" fill-rule="nonzero" opacity=".3"/><path fill="#F5F6F7" fill-rule="nonzero" d="M382.76 45.12h131.53v11.54H382.76zM382.76 113.19h131.53v11.54H382.76z"/><path d="M111.89 186.92v22.4c9.516.227 17.111 8.007 17.111 17.525 0 9.518-7.595 17.298-17.111 17.525v23c0 .978.792 1.77 1.77 1.77h136v-84h-136a1.77 1.77 0 00-1.77 1.78z" fill="#DBDFE4" fill-rule="nonzero" opacity=".3"/><path fill="#F5F6F7" fill-rule="nonzero" d="M111.89 185.15h133.93v12.09H111.89zM111.89 256.46h133.93v12.09H111.89z"/><path d="M240.16 385.77h-123a1 1 0 01-.86-1.48L325.8 21.48a1 1 0 01.86-.49h123a1 1 0 01.86 1.48L241 385.28a1 1 0 01-.84.49z" stroke="#0A9557" stroke-width="2"/><path d="M63.86 385.77H6.01" stroke="#DADEE3" stroke-width="2" stroke-linecap="round" stroke-linejoin="round"/><path d="M249.06 244.37c-9.516-.227-17.111-8.007-17.111-17.525 0-9.518 7.595-17.298 17.111-17.525" stroke="#DBDFE4" stroke-width="2" stroke-linecap="round" stroke-linejoin="round"/><path d="M111.89 186.92v22.4c9.516.227 17.111 8.007 17.111 17.525 0 9.518-7.595 17.298-17.111 17.525v23c0 .978.792 1.77 1.77 1.77h136v-84h-136a1.77 1.77 0 00-1.77 1.78zM111.89 197.24h137.17M111.89 256.46h137.17M137.87 185.15a6.045 6.045 0 0112.09 0M208.58 185.15a6.04 6.04 0 1112.08 0M143.92 179.11V155.9M214.62 179.11V129.2M514.28 68.2V46.81c0-.93-.75-1.685-1.68-1.69H382.76v80.19H512.6a1.69 1.69 0 001.68-1.69v-22c-9.24 0-16.73-7.49-16.73-16.73s7.49-16.73 16.73-16.73v.04z" stroke="#DBDFE4" stroke-width="2" stroke-linecap="round" stroke-linejoin="round"/><path d="M368.92 77.8c10.836 0 19.62 8.784 19.62 19.62s-8.784 19.62-19.62 19.62" stroke="#363D49" stroke-width="2"/><path d="M382.76 56.66h130.95M382.76 113.19h130.95" stroke="#DBDFE4" stroke-width="2"/><path d="M398 50.75a6.77 6.77 0 0113.53 0" stroke="#363D49" stroke-width="2"/><path d="M475.06 45.12a5.77 5.77 0 0111.53 0" stroke="#DBDFE4" stroke-width="2"/><path d="M413.33 39.36V11.39M480.83 39.36V11.39" stroke="#DBDFE4" stroke-width="2" stroke-linecap="round" stroke-linejoin="round"/><path d="M471.07 256.74s-5.13 40-6.15 48.22c-1.02 8.22 0 11.28 2.05 15.38 2.05 4.1 32.1 63 32.1 63h7.18s-17.74-57.85-18.77-60.93c-1.03-3.08-2.05-7.18 0-11.28s11.29-26.67 11.29-26.67 5.13 18.46 6.15 22.57a61.88 61.88 0 005.95 14.55c2.5 4.42 32.13 61.74 32.13 61.74h7.18s-19.59-67.08-20.62-72.21c-1.03-5.13-3.08-12.31-3.08-19.49v-26.17c0-9.77-1.33-17.84-4.15-23.2-1.06-2-6.1-11.15-6.1-11.15l-24.62 13.33-20.54 12.31z" stroke="#363D49" stroke-width="2" fill="#363D49" fill-rule="nonzero" stroke-linecap="round" stroke-linejoin="round"/><path d="M418.76 157.24a39.72 39.72 0 01-6.16-2.05c-2.05-1-5.13-4.1-5.13-5.13 0-1.03 6.16-4.1 11.29-7.18 5.13-3.08 11.28-8.21 15.38-8.21 4.1 0 12.31 5.13 12.31 15.39v14.36l-7.18-5.13-20.51-2.05z" stroke="#363D49" stroke-width="2" fill="#363D49" fill-rule="nonzero"/><path d="M437.28 182.41l-3-11.2s-1.14 1.2-2.28 2.28c-1.74 1.63-3 .11-3.94-1.66-1.16-2.18-1.82-3.65-1.82-3.65l-2.16.9a1.06 1.06 0 01-1.46-.83c-.29-2.09-.3-5.92-.81-6.71s-3.88-4.94-3.88-4.94 10.48-7.11 12.69-8.21a16.74 16.74 0 013.38 5.41s0-5.53 3.32-4.42c3.32 1.11 2.21 7.74 2.21 7.74l6.52 4.65 7.6 9.83.26 9.86-11.08 5.54-5.55-4.59z" stroke="#363D49" stroke-width="2" fill="#FFF" fill-rule="nonzero" stroke-linecap="round" stroke-linejoin="round"/><path d="M121.17 104.33s-15 20.17-20.12 28c-1.32 2-2.62 3-5.55 3.77-8.29 2.18-19.18 5.75-19.18 5.75l5.09 4.91 10.77-2.44 19-6.7 15.66-21.44-5.67-11.85z" stroke="#363D49" stroke-width="2" stroke-linecap="round" stroke-linejoin="round"/><circle stroke="#0A9557" stroke-width="2" fill="#0FB167" fill-rule="nonzero" cx="158.35" cy="88.69" r="69.2"/><circle stroke="#0A9557" stroke-width="2" fill="#E6F7EF" fill-rule="nonzero" stroke-linecap="round" stroke-linejoin="round" cx="158.35" cy="88.69" r="49.09"/><circle stroke="#C2EAD8" stroke-width="2" fill="#F3FBF7" fill-rule="nonzero" cx="158.35" cy="88.69" r="28.26"/><path d="M37.18 219.11s-.24 20.64 0 27.51c.92 27 7.4 107.9 7.4 107.9h10.58l12.69-84.63s6.82 17.4 10.31 27.73A36.71 36.71 0 0180.33 309c.84 16.17 1.27 45.49 1.27 45.49h11.64s7.41-51.84 7.41-57.13c0-5.29-16.93-78.28-16.93-78.28l-46.54.03z" stroke="#363D49" stroke-width="2" stroke-linecap="round" stroke-linejoin="round"/><path stroke="#363D49" stroke-width="2" stroke-linecap="round" stroke-linejoin="round" d="M55.16 354.51l-2.12 30.53h-4.23l-1.84-30.53zM93.24 354.51l-4.23 30.53h-4.23l.28-30.53z"/><path d="M138.4 100.84s6-11.19 7.71-11.87c1.71-.68 2.67 1.81 1.2 5.31-1 2.34-5.2 10-5.2 10" stroke="#363D49" stroke-width="2" fill="#FFF" fill-rule="nonzero"/><path d="M60.45 132.37c-5.29-3.17-7.41-9.52-7.41-9.52s-4.23-14.81 8.47-20.1c12.7-5.29 16.92 4.25 16.92 4.25L71 120.74l-10.55 11.63z" stroke="#363D49" stroke-width="2" fill="#363D49" fill-rule="nonzero"/><path d="M240.16 385.77h-123a1 1 0 01-.86-1.48L325.8 21.48a1 1 0 01.86-.49h123a1 1 0 01.86 1.48L241 385.28a1 1 0 01-.84.49z" fill="#FFF" fill-rule="nonzero"/><circle stroke="#363D49" stroke-width="2" fill="#FFF" fill-rule="nonzero" cx="55.16" cy="106.99" r="5.29"/><path d="M49.87 107s-6.35-2.12-10.58 2.11-5.29 10.58-7.4 14.81c-2 4-4.23 7.41-8.47 9.52-4.24 2.11 3.18 8.46 15.87-1.06 12.69-9.52 13.36-20.43 13.36-20.43" stroke="#363D49" stroke-width="2" fill="#363D49" fill-rule="nonzero"/><path d="M442.35 212.63l28.72 44.11s33.81-9.37 45.14-25.64c-8.21-17.44-25.65-50.27-29.75-57.45-4.1-7.18-32.83-2.05-32.83-2.05s-1 5.08-7.18 8.16-9.17 2.65-9.17 2.65-12.37 13.33-12.37 17.91c0 4.06 1.34 19.26 1.66 35.33.17 8.3-1.66 19-1.66 26.22 4.1 5.13 8.48 3.24 8.48 3.24l7.08-24.11 1.88-28.37z" stroke="#363D49" stroke-width="2" fill="#FFF" fill-rule="nonzero" stroke-linecap="round" stroke-linejoin="round"/><path d="M204.12 232.23h63.3l-20.54 35.58a2 2 0 01-1.71 1h-61.94" stroke="#C2EAD8" stroke-width="2"/><path d="M329.72 231.52h-62.3L288 195.94a2 2 0 011.72-1h61.16l-21.16 36.58z" fill="#DADEE3" fill-rule="nonzero" opacity=".3"/><path d="M266.85 123h58.52a2 2 0 011.71 3l-18.83 32.61a2 2 0 01-1.71 1h-60.73" fill="#DADEE3" fill-rule="nonzero"/><path d="M329.72 231.52h-62.3L288 195.94a2 2 0 011.72-1h61.16l-21.16 36.58z" stroke="#DADEE3" stroke-width="2" stroke-linecap="round" stroke-linejoin="round"/><path d="M177.42 385.77h-60.23a1 1 0 01-.86-1.48l19.67-34.1a2 2 0 011.71-1h58.52a2 2 0 011.71 3l-18.83 32.61a2 2 0 01-1.69.97h0zM409.34 93.14h-59.93a2 2 0 01-1.71-3l19.52-33.51" stroke="#C2EAD8" stroke-width="2"/><path d="M266.85 123h58.52a2 2 0 011.71 3l-18.83 32.61a2 2 0 01-1.71 1h-60.73" stroke="#A6AFBC" stroke-width="2"/><path d="M240.16 385.77h-123a1 1 0 01-.86-1.48L325.8 21.48a1 1 0 01.86-.49h123a1 1 0 01.86 1.48L241 385.28a1 1 0 01-.84.49z" stroke="#0A9557" stroke-width="2"/><path d="M59.39 143s.69-4.17 1.06-10.58A32.62 32.62 0 0066.8 126v-2s-6.49-4.39-4.24-7.46c2.39-3.25 5.29 1 5.29 1S72.08 107 78.43 107c1.33 3.26 1 9.13 1 10.35a1 1 0 00.1.43l2.45 4.9a1 1 0 01-.48 1.32l-2.08 1v3.9a3.87 3.87 0 01-5 4c.74 3.84 1.87 9 1.87 9l-3.18 7.41-8.46 1.06-5.29-3.18.03-4.19zM70.53 131.61a10 10 0 005.17 1.32" stroke="#363D49" stroke-width="2" fill="#FFF" fill-rule="nonzero" stroke-linecap="round" stroke-linejoin="round"/><path d="M137.57 100.1s-23.17 35.45-26.35 37.56c-3.18 2.11-34.9 4.23-34.9 4.23s-.87 4.1-8.31 4.82c-6.69.66-8.62-3.76-8.62-3.76s-9.4 2.37-13.75 4.23c-7.41 3.18-8.46 10.58-8.46 23.28v48.65h46.54l9.52-53.94 25.39-12.7c2.11-1.06 6.35-5.29 8.46-9.52 2.11-4.23 16.83-38.62 16.83-38.62l-6.35-4.23z" stroke="#363D49" stroke-width="2" fill="#363D49" fill-rule="nonzero" stroke-linecap="round" stroke-linejoin="round"/><path d="M67.85 269.89l-9.77-25" stroke="#363D49" stroke-width="2" stroke-linecap="round" stroke-linejoin="round"/><path d="M47.89 383.78h16c.768 0 1.39.622 1.39 1.39v.19a1.39 1.39 0 01-1.39 1.39H49.12c-.68 0-1.23-.55-1.23-1.23v-1.74zM83.8 383.78h16c.768 0 1.39.622 1.39 1.39v.19a1.39 1.39 0 01-1.39 1.39H85a1.23 1.23 0 01-1.23-1.23v-1.74h.03z" fill="#363D49" fill-rule="nonzero"/><path d="M472.66 385.77H316.14" stroke="#DADEE3" stroke-width="2" stroke-linecap="round" stroke-linejoin="round"/><circle stroke="#0A9557" stroke-width="2" fill="#0FB167" fill-rule="nonzero" cx="402.53" cy="316.57" r="69.2"/><circle stroke="#0A9557" stroke-width="2" fill="#E6F7EF" fill-rule="nonzero" stroke-linecap="round" stroke-linejoin="round" cx="402.53" cy="316.57" r="49.09"/><circle stroke="#C2EAD8" stroke-width="2" fill="#F3FBF7" fill-rule="nonzero" cx="402.53" cy="316.57" r="28.26"/><path d="M432.59 267.93s-7.75 9.59-7.74 11.33c.01 1.74 2.61 1.72 5.2-.9 1.73-1.75 7.05-8.41 7.05-8.41" stroke="#363D49" stroke-width="2" fill="#FFF" fill-rule="nonzero"/><path d="M462.68 187s-.84 27.7-2.89 32.82c-2.05 5.12-28.72 46.18-28.72 46.18l7.18 6.15s32.82-34.88 35.9-37.95c3.08-3.07 11.37-42.3 12.67-50.23M432.65 172.88a41.82 41.82 0 004.28-5" stroke="#363D49" stroke-width="2" fill="#FFF" fill-rule="nonzero" stroke-linecap="round" stroke-linejoin="round"/><path d="M549.88 386.29h-15.85a1.44 1.44 0 01-1.44-1.44v-.09c0-.795.645-1.44 1.44-1.44h17.12v1.7a1.27 1.27 0 01-1.27 1.27zM505.95 386.27H490.1a1.44 1.44 0 01-1.44-1.44v-.09c0-.795.645-1.44 1.44-1.44h17.15v1.7a1.27 1.27 0 01-1.3 1.27z" fill="#363D49" fill-rule="nonzero"/><path d="M500.44 290.49l-5.72-19.54" stroke="#363D49" stroke-width="2" stroke-linecap="round" stroke-linejoin="round"/><path d="M305.54 56.57h125.25M388.08 20.99l-20.86 35.67" stroke="#C2EAD8" stroke-width="2"/><path d="M240.16 385.77h-123a1 1 0 01-.86-1.48L325.8 21.48a1 1 0 01.86-.49h123a1 1 0 01.86 1.48L241 385.28a1 1 0 01-.84.49z" stroke="#A6AFBC" stroke-width="2"/><path d="M277.43 385.77h-58.51a2 2 0 01-1.71-3L236 350.19a2 2 0 011.71-1h58.52a2 2 0 011.71 3l-18.83 32.61a2 2 0 01-1.68.97h0z" stroke="#A6AFBC" stroke-width="2" fill="#DADEE3" fill-rule="nonzero"/><path fill="#363D49" fill-rule="nonzero" d="M69.82 132.31l5.04 6.38-.13-5.45zM59.7 250.91l4.66 42.25 3.49-23.27zM436.93 178.15c-.05-.17 1-10.1 1-10.1l-3.93 3.87 2.93 6.23zM46.97 354.51l.17 4.54 7.66-1.37.36-3.17zM84.92 354.51l.16 4.54 7.66-1.37.36-3.17zM463.59 245.26l11.65-11.08-7.58 17.32z"/><path d="M0 0h560v400H0z"/></g></svg>