<svg width="560" height="400" xmlns="http://www.w3.org/2000/svg"><g fill="none" fill-rule="evenodd"><path d="M0 0h560v400H0z"/><path d="M0 0h560v400H0z"/><path d="M359.18 155.98h-4.46v-6.3a25.88 25.88 0 0125.88-25.92h4.46v6.3a25.88 25.88 0 01-25.88 25.92zM354.72 157.29c-8.21-16-17.44-18.7-17.44-18.7" stroke="#C2EAD8" stroke-width="2" stroke-linecap="round" stroke-linejoin="round"/><path d="M324.37 124.58h4.46c14.293 0 25.88 11.587 25.88 25.88v6.3h-4.46c-14.293 0-25.88-11.587-25.88-25.88v-6.3h0z" stroke="#86D7B3" stroke-width="2" stroke-linecap="round" stroke-linejoin="round"/><path d="M523.14 264.89h0-189.06c10.096.234 18.159 8.486 18.159 18.585s-8.063 18.35-18.159 18.585h189.06a18.61 18.61 0 100-37.21v.04z" stroke="#F3FBF7" stroke-width="2" fill="#FFF" fill-rule="nonzero"/><path d="M146.83 302.09H313.9c-10.096.234-18.159 8.486-18.159 18.585s8.063 18.35 18.159 18.585H146.83a18.61 18.61 0 110-37.21v.04z" fill="#DBDFE4" fill-rule="nonzero" opacity=".5"/><path d="M377.08 339.31H214.69c17.63 0 31.42 15.68 31.42 33.36h162.38c0-17.67-13.78-33.36-31.41-33.36z" fill="#FFF" fill-rule="nonzero"/><path d="M359.57 228.285l-4.854-.51.72-6.853c1.634-15.55 15.565-26.83 31.114-25.196l4.854.51-.72 6.853c-1.635 15.55-15.565 26.83-31.115 25.196zM484.79 203.43h-4.88v-6.89c0-15.635 12.675-28.31 28.31-28.31h4.88v6.89a28.31 28.31 0 01-28.31 28.31zM451.46 25.1h4.18c13.404 0 24.27 10.866 24.27 24.27v5.91h-4.18A24.27 24.27 0 01451.46 31v-5.9zM388.91 145.89h4.48c14.36 0 26 11.64 26 26v6.32h-4.48c-14.36 0-26-11.64-26-26v-6.32h0zM484.79 110.89h-4.46v-6.29a25.88 25.88 0 0125.88-25.88h4.46v6.3c-.006 14.29-11.59 25.87-25.88 25.87zM386.16 76.27H391c15.635 0 28.31 12.675 28.31 28.31v6.89h-4.88c-15.635 0-28.31-12.675-28.31-28.31v-6.89h.04zM480.51 55.27C488.71 39.26 498 37.5 498 37.5M419.55 111.47c8.21-16 17.44-18.7 17.44-18.7M419.55 215.21c8.21-16 20.12-21.83 20.12-21.83M458.79 133.62c16.33 10.83 21.08 24.55 21.08 24.55" stroke="#C2EAD8" stroke-width="2" stroke-linecap="round" stroke-linejoin="round"/><path d="M354.72 153.58v98.59M479.91 48.76v216.15M419.55 103.18v161.73" stroke="#86D7B3" stroke-width="2"/><path d="M21.76 30.49c0-11.813 9.577-21.39 21.39-21.39s21.39 9.577 21.39 21.39v10.14H21.76V30.49z" fill="#C1C7D1" fill-rule="nonzero" opacity=".5"/><path d="M44.17 8.67C55.9 9.08 65 19.08 65 30.81v151.08c0 45.84 37.16 83 83 83h213.13L278 201.13V39.4a30.75 30.75 0 00-30.76-30.75H43.38" fill="#FFF" fill-rule="nonzero"/><path d="M65 40.54H22.8a1.05 1.05 0 01-1.06-1v-9.2A21.64 21.64 0 0144.17 8.67C55.9 9.08 65 19.08 65 30.81v151.08c0 45.84 37.16 83 83 83h201l-21.17-8.39L278 201.13V39.4a30.75 30.75 0 00-30.76-30.75H43.38M333.22 302.1c10.08 0 18.67-7.84 19-17.92a18.59 18.59 0 00-18.58-19.27M147.26 302.1c-10.08 0-18.67 7.84-19 17.92a18.6 18.6 0 0018.59 19.28" stroke="#A6AFBC" stroke-width="2"/><path d="M40.66 184.61a10.12 10.12 0 00-9.24-10.22 9.89 9.89 0 00-10.56 9.88v4.95a1.05 1.05 0 001.06 1.05h18.74v-5.66z" stroke="#0A9557" stroke-width="2" fill="#0FB167" fill-rule="nonzero"/><path d="M314.76 302.1c-10.08 0-18.67 7.84-19 17.92a18.6 18.6 0 0018.59 19.27M522.7 302.1c10.08 0 18.67-7.84 19-17.92a18.59 18.59 0 00-18.59-19.27" stroke="#A6AFBC" stroke-width="2"/><path d="M90.08 39.4H251.8M90.08 62.18H251.8M371.39 278.57h141.22M371.39 289.96h117.08" stroke="#DADEE3" stroke-width="2" stroke-linecap="round" stroke-linejoin="round"/><path d="M259.86 351.38h120.72M259.86 361.71h53.52" stroke="#DADEE3" stroke-width="2" stroke-linecap="round"/><path d="M90.08 84.96h51.21" stroke="#DADEE3" stroke-width="2" stroke-linecap="round" stroke-linejoin="round"/><path d="M326.25 264.91h196.89M147.26 302.1H522.7M146.79 339.3h230.29M377.08 339.3c17.27 0 30.85 15.05 31.4 32.28a1.07 1.07 0 01-1.07 1.08H247.14a1.05 1.05 0 01-1-1c-.52-17.25-14.12-32.32-31.4-32.32" stroke="#A6AFBC" stroke-width="2"/><path d="M245.23 133.41s4-12.62 5.53-13.64c1.53-1.02 3.09 1.32 2.28 5.19-.53 2.57-3.33 11.28-3.33 11.28" stroke="#363D49" stroke-width="2"/><path d="M229.05 233.26s17.71-7.09 31.43-12.24c2.77-1.05 7.07-1.3 9.61.1 11.71 6.41 32.84 20.5 32.84 20.5l23.32 7.58s-45.37-47.3-47.79-49.07c-8-5.89-15.37-5.26-22.79-3.14-7.42 2.12-54 19.2-54 19.2L159.31 231" stroke="#363D49" stroke-width="2" fill="#FFF" fill-rule="nonzero" stroke-linecap="round" stroke-linejoin="round"/><path d="M159.31 231.43s2.12 18 4.24 23.32 5.3 10.6 21.2 10.6c15.9 0 68.89-10.63 74.19-11.66 5.08-1 11.29-.58 15.9 0 5.37.67 74.15 11 74.15 11l2.5-7.52s-80.89-25.7-86.19-25.7c-5.3 0-41.3 2.08-41.3 2.08h-22.28" stroke="#363D49" stroke-width="2" fill="#FFF" fill-rule="nonzero" stroke-linecap="round" stroke-linejoin="round"/><rect fill="#363D49" fill-rule="nonzero" transform="rotate(-70.98 247.264 121.41)" x="238.494" y="119.59" width="17.54" height="3.64" rx=".98"/><path d="M180.51 104.88s2.12-10.6 2.12-11.66c0-1.06-6 0-12.24.57s-13.2 1.55-16.38 7.91c-3.18 6.36-1.06 15.9 3.18 25.44 4.33 3.18 8.58-2.12 8.58-2.12l4.14-11.66 10.6-8.48z" stroke="#363D49" stroke-width="2" fill="#363D49" fill-rule="nonzero"/><path d="M446.72 123h4.88c15.635 0 28.31 12.675 28.31 28.31v6.89H475c-15.635 0-28.31-12.675-28.31-28.31V123h.03zM484.1 55.27h-4.18v-5.9c0-13.4 10.86-24.264 24.26-24.27h4.18v5.91c-.006 13.396-10.864 24.254-24.26 24.26h0zM424.44 215.04h-4.88v-6.89c.022-15.62 12.69-28.27 28.31-28.27h4.88v6.89c-.022 15.62-12.69 28.27-28.31 28.27h0zM424.01 110.95h-4.46v-6.3a25.88 25.88 0 0125.9-25.89h4.46v6.3a25.88 25.88 0 01-25.9 25.89h0z" stroke="#86D7B3" stroke-width="2" stroke-linecap="round" stroke-linejoin="round"/><circle stroke="#C2EAD8" fill="#C2EAD8" fill-rule="nonzero" cx="324.22" cy="87.24" r="5.69"/><circle stroke="#C2EAD8" stroke-width="2" cx="418.41" cy="37.13" r="5.69"/><circle stroke="#C2EAD8" stroke-width="2" cx="392.22" cy="239.85" r="5.69"/><circle stroke="#C2EAD8" fill="#C2EAD8" fill-rule="nonzero" cx="450.3" cy="229.52" r="5.69"/><circle stroke="#C2EAD8" stroke-width="2" cx="508.39" cy="239.85" r="5.69"/><circle stroke="#C2EAD8" stroke-width="2" cx="508.39" cy="137.35" r="5.69"/><circle stroke="#C2EAD8" stroke-width="2" cx="324.22" cy="187.46" r="5.69"/><path d="M142.53 305c7.874.282 14.573-5.686 15.2-13.54a1.07 1.07 0 00-1-1.16H70.09A14.71 14.71 0 0154.84 305h88.23" stroke="#0A9557" stroke-width="2" fill="#0FB167" fill-rule="nonzero"/><path d="M40.66 184.5V290c-.012 7.974 6.218 14.564 14.18 15 7.934.289 14.665-5.77 15.21-13.69a1.08 1.08 0 011-1l57.25-.25V184.5a10 10 0 00-9.54-10.13H31.12a10 10 0 019.54 10.13z" stroke="#0A9557" stroke-width="2" fill="#F3FBF7" fill-rule="nonzero"/><path d="M155.83 139.44l1.36-12.3a64.93 64.93 0 006.36-4.24c0-2.12.09-4.44.09-4.44s-4.39-5.65-1.39-7.65c3.19-2.11 5 2.61 5 2.61l1.64-6.13 11.66-2.41.22 7 2.08 5.81a1 1 0 01-.45 1.28l-1.85.72V125c0 1.06-.8 6-6.38 4 1.06 4.24 2.3 8.62 2.3 8.62l.9 5.41-6.37 2.13h-11.69l-3.48-5.72z" stroke="#363D49" stroke-width="2" fill="#FFF" fill-rule="nonzero" stroke-linecap="round" stroke-linejoin="round"/><path d="M145.53 177l7.47 28.58 6.31 25.42 40.32-14.11-1.1-51.61s28.86 10 32 11c3.14 1 8.48 0 9.54-4.24 1.06-4.24 12.48-39.65 12.48-39.65l-7.42-2.12-13.78 30.74s-25.44-15.9-27.56-17c-2.12-1.1-27.56-7-27.56-7s-2.12 3.87-9.54 4.93c-7.42 1.06-10.84-3-10.84-3s-18.84 12.59-22 15.77" stroke="#363D49" stroke-width="2" fill="#363D49" fill-rule="nonzero" stroke-linecap="round" stroke-linejoin="round"/><path d="M174.84 129.21a35.85 35.85 0 01-5.17-1.63" stroke="#363D49" stroke-width="2" fill="#FFF" fill-rule="nonzero" stroke-linecap="round" stroke-linejoin="round"/><path d="M144.23 202.3a8.52 8.52 0 01-2-6.82c.52-4.78 3.3-18.52 3.3-18.52l-2.3-13.8-9.36-8.46c-3.18 3.18-3.18 3.18-4.24 6.36s-4.12 36.67-4.12 38.79c0 2.12 0 7.42 5.3 10.6 5.3 3.18 45.46 21.63 45.46 21.63l3.18-8.11s-34.16-20.61-35.22-21.67z" stroke="#363D49" stroke-width="2" fill="#363D49" fill-rule="nonzero" stroke-linecap="round" stroke-linejoin="round"/><path d="M198.59 168.25v-6.92" stroke="#363D49" stroke-width="2" fill="#FFF" fill-rule="nonzero" stroke-linecap="round" stroke-linejoin="round"/><path d="M179 226s12.37 6.3 13.09 7.95c.72 1.65-1.75 2.73-5.3 1.34-2.36-.93-10.2-5-10.2-5" stroke="#363D49" stroke-width="2"/><path d="M347.69 265.328l5.7-17.2a1.69 1.69 0 012.135-1.074l.427.142a1.69 1.69 0 011.073 2.136l-5.23 15.786a1.5 1.5 0 01-1.896.952l-2.212-.733.004-.01z" fill="#363D49" fill-rule="nonzero"/><path d="M56.04 195.7h57.35M56.04 210.89h57.35M56.04 226.07h57.35M56.04 241.26h28.68" stroke="#C2EAD8" stroke-width="2" stroke-linecap="round" stroke-linejoin="round"/><path d="M444.54 297.63a8 8 0 00-7.26-8 7.78 7.78 0 00-8.29 7.76v3.71a1 1 0 001 1h14.55v-4.47zM524.49 392.14a11.55 11.55 0 0011.91-10.37 1.06 1.06 0 00-1.06-1.17h-66.7a1.05 1.05 0 00-1.05.95 11.55 11.55 0 01-11.93 10.59h69.25" stroke="#0A9557" stroke-width="2" fill="#0FB167" fill-rule="nonzero"/><path d="M444.54 297.55v82.77c-.057 6.282 4.846 11.494 11.12 11.82 6.17.224 11.426-4.446 11.93-10.6a1.07 1.07 0 011-1l44.73-.19v-82.8a7.9 7.9 0 00-7.49-7.95h-68.78a7.9 7.9 0 017.49 7.95h0z" stroke="#0A9557" stroke-width="2" fill="#F3FBF7" fill-rule="nonzero"/><path d="M456.61 306.34h45.01M456.61 318.26h45.01M456.61 330.18h45.01M456.61 342.09h22.5" stroke="#C2EAD8" stroke-width="2" stroke-linecap="round" stroke-linejoin="round"/><path fill="#363D49" fill-rule="nonzero" d="M168.98 128.28l5.65 5.75-.17-4.19zM210.21 233.11l50.8-13.06-31.96 13.21z"/></g></svg>