<?xml version="1.0" encoding="UTF-8"?>
<svg width="560px" height="400px" viewBox="0 0 560 400" version="1.1" xmlns="http://www.w3.org/2000/svg" xmlns:xlink="http://www.w3.org/1999/xlink">
    <!-- Generator: Sketch 58 (84663) - https://sketch.com -->
    <title>Tablet</title>
    <desc>Created with Sketch.</desc>
    <g id="Tablet" stroke="none" stroke-width="1" fill="none" fill-rule="evenodd">
        <g id="Statement">
            <rect id="Rectangle" x="0" y="0" width="560" height="400"></rect>
            <rect id="Rectangle" x="0" y="0" width="560" height="400"></rect>
            <path d="M380.6,123.76 L385.060031,123.76 L385.060031,130.06 C385.070619,136.930731 382.348673,143.523691 377.49408,148.385787 C372.639487,153.247883 366.050739,155.98 359.18,155.98 L354.719969,155.98 L354.719969,149.68 C354.709381,142.809269 357.431327,136.216309 362.28592,131.354213 C367.140513,126.492117 373.729261,123.76 380.6,123.76 Z" id="Path" stroke="#C2EAD8" stroke-width="2" stroke-linecap="round" stroke-linejoin="round" transform="translate(369.890000, 139.870000) rotate(-180.000000) translate(-369.890000, -139.870000) "></path>
            <path d="M354.72,157.29 C346.51,141.29 337.28,138.59 337.28,138.59" id="Path" stroke="#C2EAD8" stroke-width="2" stroke-linecap="round" stroke-linejoin="round"></path>
            <path d="M324.37,124.58 L328.83,124.58 C343.123129,124.58 354.71,136.166871 354.71,150.46 L354.71,156.76 L350.25,156.76 C335.956871,156.76 324.37,145.173129 324.37,130.88 L324.37,124.58 L324.37,124.58 Z" id="Path" stroke="#86D7B3" stroke-width="2" stroke-linecap="round" stroke-linejoin="round"></path>
            <path d="M523.14,264.89 L523.14,264.89 L334.08,264.89 C344.176276,265.124212 352.238868,273.376008 352.238868,283.475 C352.238868,293.573992 344.176276,301.825788 334.08,302.06 L523.14,302.06 L523.14,302.06 C529.889756,302.216496 536.194852,298.705028 539.615716,292.884256 C543.03658,287.063484 543.03658,279.846516 539.615716,274.025744 C536.194852,268.204972 529.889756,264.693504 523.14,264.85 L523.14,264.89 Z" id="Path" stroke="#F3FBF7" stroke-width="2" fill="#FFFFFF" fill-rule="nonzero"></path>
            <path d="M146.83,302.09 L146.83,302.09 L313.9,302.09 C303.803724,302.324212 295.741132,310.576008 295.741132,320.675 C295.741132,330.773992 303.803724,339.025788 313.9,339.26 L146.83,339.26 L146.83,339.26 C140.080244,339.416496 133.775148,335.905028 130.354284,330.084256 C126.93342,324.263484 126.93342,317.046516 130.354284,311.225744 C133.775148,305.404972 140.080244,301.893504 146.83,302.05 L146.83,302.09 Z" id="Path" fill="#DBDFE4" fill-rule="nonzero" opacity="0.5"></path>
            <path d="M377.08,339.31 L214.69,339.31 C232.32,339.31 246.11,354.99 246.11,372.67 L408.49,372.67 C408.49,355 394.71,339.31 377.08,339.31 Z" id="Path" fill="#FFFFFF" fill-rule="nonzero"></path>
            <path d="M384.774769,194.405502 L389.654769,194.405502 L389.654769,201.295502 C389.654769,216.930683 376.97995,229.605502 361.344769,229.605502 L356.464769,229.605502 L356.464769,222.715502 C356.464769,207.080321 369.139587,194.405502 384.774769,194.405502 Z" id="Path" stroke="#C2EAD8" stroke-width="2" stroke-linecap="round" stroke-linejoin="round" transform="translate(373.059769, 212.005502) rotate(-174.000000) translate(-373.059769, -212.005502) "></path>
            <path d="M508.22,168.23 L513.1,168.23 L513.1,175.12 C513.1,190.755181 500.425181,203.43 484.79,203.43 L479.91,203.43 L479.91,196.54 C479.91,189.031721 482.892652,181.830962 488.201807,176.521807 C493.510962,171.212652 500.711721,168.23 508.22,168.23 Z" id="Path" stroke="#C2EAD8" stroke-width="2" stroke-linecap="round" stroke-linejoin="round" transform="translate(496.505000, 185.830000) rotate(-180.000000) translate(-496.505000, -185.830000) "></path>
            <path d="M451.459998,25.1 L455.64,25.1 C469.043951,25.1 479.91,35.9660491 479.91,49.37 L479.91,55.28 L475.73,55.28 C469.291463,55.28 463.116777,52.7216174 458.564982,48.1679464 C454.013186,43.6142755 451.457347,37.4385366 451.459998,31 L451.459998,25.1 Z" id="Path" stroke="#C2EAD8" stroke-width="2" stroke-linecap="round" stroke-linejoin="round"></path>
            <path d="M388.91,145.89 L393.39,145.89 C407.749403,145.89 419.39,157.530597 419.39,171.89 L419.39,178.21 L414.91,178.21 C400.550597,178.21 388.91,166.569403 388.91,152.21 L388.91,145.89 L388.91,145.89 Z" id="Path" stroke="#C2EAD8" stroke-width="2" stroke-linecap="round" stroke-linejoin="round"></path>
            <path d="M506.21,78.72 L510.67,78.72 L510.67,85.01 C510.67,91.8738028 507.943365,98.456482 503.089923,103.309923 C498.236482,108.163365 491.653803,110.89 484.79,110.89 L480.33,110.89 L480.33,104.59 C480.335521,90.3007761 491.920775,78.72 506.21,78.72 Z" id="Path" stroke="#C2EAD8" stroke-width="2" stroke-linecap="round" stroke-linejoin="round" transform="translate(495.500000, 94.805000) rotate(-180.000000) translate(-495.500000, -94.805000) "></path>
            <path d="M386.16,76.27 L391,76.27 C406.635181,76.27 419.31,88.9448187 419.31,104.58 L419.31,111.47 L414.43,111.47 C398.794819,111.47 386.12,98.7951813 386.12,83.16 L386.12,76.27 L386.16,76.27 Z" id="Path" stroke="#C2EAD8" stroke-width="2" stroke-linecap="round" stroke-linejoin="round"></path>
            <path d="M480.51,55.27 C488.71,39.26 498,37.5 498,37.5" id="Path" stroke="#C2EAD8" stroke-width="2" stroke-linecap="round" stroke-linejoin="round"></path>
            <path d="M419.55,111.47 C427.76,95.47 436.99,92.77 436.99,92.77" id="Path" stroke="#C2EAD8" stroke-width="2" stroke-linecap="round" stroke-linejoin="round"></path>
            <path d="M419.55,215.21 C427.76,199.21 439.67,193.38 439.67,193.38" id="Path" stroke="#C2EAD8" stroke-width="2" stroke-linecap="round" stroke-linejoin="round"></path>
            <path d="M458.79,133.62 C475.12,144.45 479.87,158.17 479.87,158.17" id="Path" stroke="#C2EAD8" stroke-width="2" stroke-linecap="round" stroke-linejoin="round"></path>
            <path d="M354.72,153.58 L354.72,252.17" id="Path" stroke="#86D7B3" stroke-width="2"></path>
            <path d="M479.91,48.76 L479.91,264.91" id="Path" stroke="#86D7B3" stroke-width="2"></path>
            <path d="M419.55,103.18 L419.55,264.91" id="Path" stroke="#86D7B3" stroke-width="2"></path>
            <path d="M21.76,30.49 C21.76,18.6766292 31.3366292,9.1 43.15,9.1 C54.9633708,9.1 64.54,18.6766292 64.54,30.49 L64.54,40.63 L21.76,40.63 L21.76,30.49 Z" id="Path" fill="#C1C7D1" fill-rule="nonzero" opacity="0.5"></path>
            <path d="M44.17,8.67 C55.9,9.08 65,19.08 65,30.81 L65,181.89 C65,227.729634 102.160366,264.89 148,264.89 L361.13,264.89 L278,201.13 L278,39.4 C278,31.24286 274.758905,23.4199614 268.989998,17.6529302 C263.221092,11.885899 255.39714,8.64734727 247.24,8.64999837 L43.38,8.64999837" id="Path" fill="#FFFFFF" fill-rule="nonzero"></path>
            <path d="M65,40.54 L22.8,40.54 C22.2352167,40.5460184 21.7668639,40.1041761 21.7399543,39.54 L21.7399543,30.34 C21.7279202,24.4559757 24.112384,18.8207218 28.3441006,14.7323893 C32.5758172,10.6440568 38.2898859,8.45518219 44.17,8.67 C55.9,9.08 65,19.08 65,30.81 L65,181.89 C65,227.729634 102.160366,264.89 148,264.89 L349,264.89 L327.83,256.5 L278,201.13 L278,39.4 C278,31.24286 274.758905,23.4199614 268.989998,17.6529302 C263.221092,11.885899 255.39714,8.64734727 247.24,8.64999837 L43.38,8.64999837" id="Path" stroke="#A6AFBC" stroke-width="2"></path>
            <path d="M333.22,302.1 C343.3,302.1 351.89,294.26 352.22,284.18 C352.404677,279.134629 350.529309,274.231145 347.024966,270.596662 C343.520623,266.96218 338.68875,264.909337 333.64,264.91" id="Path" stroke="#A6AFBC" stroke-width="2"></path>
            <path d="M147.26,302.1 C137.18,302.1 128.59,309.94 128.26,320.02 C128.075325,325.068024 129.951749,329.974051 133.457966,333.610408 C136.964184,337.246765 141.798599,339.300661 146.85,339.3" id="Path" stroke="#A6AFBC" stroke-width="2"></path>
            <path d="M40.66,184.61 C40.7324252,179.308956 36.7015005,174.850509 31.42,174.39 C28.6847214,174.204269 25.9950706,175.162276 23.9930972,177.035335 C21.9911239,178.908393 20.8564736,181.528425 20.8599918,184.27 L20.8599918,189.22 C20.8599918,189.500219 20.9719836,189.768817 21.171065,189.96602 C21.3701463,190.163223 21.6397941,190.272669 21.92,190.270048 L40.66,190.270048 L40.66,184.61 Z" id="Path" stroke="#0A9557" stroke-width="2" fill="#0FB167" fill-rule="nonzero"></path>
            <path d="M314.76,302.1 C304.68,302.1 296.09,309.94 295.76,320.02 C295.578106,325.066324 297.455766,329.969726 300.961677,333.603878 C304.467587,337.238031 309.300399,339.290562 314.35,339.29" id="Path" stroke="#A6AFBC" stroke-width="2"></path>
            <path d="M522.7,302.1 C532.78,302.1 541.37,294.26 541.7,284.18 C541.884742,279.132893 540.008022,274.22785 536.501497,270.593061 C532.994971,266.958271 528.160486,264.90662 523.11,264.909996" id="Path" stroke="#A6AFBC" stroke-width="2"></path>
            <path d="M90.08,39.4 L251.8,39.4" id="Path" stroke="#DADEE3" stroke-width="2" stroke-linecap="round" stroke-linejoin="round"></path>
            <path d="M90.08,62.18 L251.8,62.18" id="Path" stroke="#DADEE3" stroke-width="2" stroke-linecap="round" stroke-linejoin="round"></path>
            <path d="M371.39,278.57 L512.61,278.57" id="Path" stroke="#DADEE3" stroke-width="2" stroke-linecap="round" stroke-linejoin="round"></path>
            <path d="M371.39,289.96 L488.47,289.96" id="Path" stroke="#DADEE3" stroke-width="2" stroke-linecap="round" stroke-linejoin="round"></path>
            <path d="M259.86,351.38 L380.58,351.38" id="Path" stroke="#DADEE3" stroke-width="2" stroke-linecap="round"></path>
            <path d="M259.86,361.71 L313.38,361.71" id="Path" stroke="#DADEE3" stroke-width="2" stroke-linecap="round"></path>
            <path d="M90.08,84.96 L141.29,84.96" id="Path" stroke="#DADEE3" stroke-width="2" stroke-linecap="round" stroke-linejoin="round"></path>
            <path d="M326.25,264.91 L523.14,264.91" id="Path" stroke="#A6AFBC" stroke-width="2"></path>
            <path d="M147.26,302.1 L522.7,302.1" id="Path" stroke="#A6AFBC" stroke-width="2"></path>
            <path d="M146.79,339.3 L377.08,339.3" id="Path" stroke="#A6AFBC" stroke-width="2"></path>
            <path d="M377.08,339.3 C394.35,339.3 407.93,354.35 408.480047,371.58 C408.482668,371.86551 408.371116,372.140245 408.170162,372.343077 C407.969208,372.545909 407.695523,372.66 407.41,372.66 L247.14,372.66 C246.598508,372.634774 246.165226,372.201492 246.14,371.66 C245.62,354.41 232.02,339.34 214.74,339.34" id="Path" stroke="#A6AFBC" stroke-width="2"></path>
            <path d="M245.23,133.41 C245.23,133.41 249.23,120.79 250.76,119.77 C252.29,118.75 253.85,121.09 253.04,124.96 C252.51,127.53 249.71,136.24 249.71,136.24" id="Path" stroke="#363D49" stroke-width="2"></path>
            <path d="M229.05,233.26 C229.05,233.26 246.76,226.17 260.48,221.02 C263.25,219.97 267.55,219.72 270.09,221.12 C281.8,227.53 302.93,241.62 302.93,241.62 L326.25,249.2 C326.25,249.2 280.88,201.9 278.46,200.13 C270.46,194.24 263.09,194.87 255.67,196.99 C248.25,199.11 201.67,216.19 201.67,216.19 L159.31,231" id="Path" stroke="#363D49" stroke-width="2" fill="#FFFFFF" fill-rule="nonzero" stroke-linecap="round" stroke-linejoin="round"></path>
            <path d="M159.31,231.43 C159.31,231.43 161.43,249.43 163.55,254.75 C165.67,260.07 168.85,265.35 184.75,265.35 C200.65,265.35 253.64,254.72 258.94,253.69 C264.02,252.69 270.23,253.11 274.84,253.69 C280.21,254.36 348.99,264.69 348.99,264.69 L351.49,257.17 C351.49,257.17 270.6,231.47 265.3,231.47 C260,231.47 224,233.55 224,233.55 L201.72,233.55" id="Path" stroke="#363D49" stroke-width="2" fill="#FFFFFF" fill-rule="nonzero" stroke-linecap="round" stroke-linejoin="round"></path>
            <rect id="Rectangle" fill="#363D49" fill-rule="nonzero" transform="translate(247.264282, 121.409971) rotate(-70.980000) translate(-247.264282, -121.409971) " x="238.494282" y="119.589971" width="17.54" height="3.64" rx="0.98"></rect>
            <path d="M180.51,104.88 C180.51,104.88 182.63,94.28 182.63,93.22 C182.63,92.16 176.63,93.22 170.39,93.79 C164.15,94.36 157.19,95.34 154.01,101.7 C150.83,108.06 152.95,117.6 157.19,127.14 C161.52,130.32 165.77,125.02 165.77,125.02 L169.91,113.36 L180.51,104.88 Z" id="Path" stroke="#363D49" stroke-width="2" fill="#363D49" fill-rule="nonzero"></path>
            <path d="M446.72,123 L451.6,123 C467.235181,123 479.91,135.674819 479.91,151.31 L479.91,158.2 L475,158.2 C459.364819,158.2 446.69,145.525181 446.69,129.89 L446.69,123 L446.72,123 Z" id="Path" stroke="#86D7B3" stroke-width="2" stroke-linecap="round" stroke-linejoin="round"></path>
            <path d="M504.18,25.1 L508.36,25.1 L508.36,31 C508.36,44.4000466 497.500045,55.2644788 484.1,55.27 L479.92,55.27 L479.92,49.36 C479.925518,35.9638585 490.783858,25.1055185 504.18,25.1 L504.18,25.1 Z" id="Path" stroke="#86D7B3" stroke-width="2" stroke-linecap="round" stroke-linejoin="round" transform="translate(494.140000, 40.185000) rotate(-180.000000) translate(-494.140000, -40.185000) "></path>
            <path d="M447.87,179.88 L452.75,179.88 L452.75,186.77 C452.727931,202.389558 440.059574,215.04 424.44,215.04 L419.56,215.04 L419.56,208.15 C419.582069,192.530442 432.250426,179.88 447.87,179.88 L447.87,179.88 Z" id="Path" stroke="#86D7B3" stroke-width="2" stroke-linecap="round" stroke-linejoin="round" transform="translate(436.155000, 197.460000) rotate(-180.000000) translate(-436.155000, -197.460000) "></path>
            <path d="M445.45,78.7599923 L449.910002,78.7599923 L449.910002,85.06 C449.912656,91.9290019 447.184448,98.5172841 442.326392,103.373464 C437.468336,108.229645 430.879,110.955309 424.01,110.950008 L419.549998,110.950008 L419.549998,104.65 C419.547344,97.7809981 422.275552,91.1927159 427.133608,86.3365356 C431.991664,81.4803554 438.581,78.7546911 445.45,78.7599923 L445.45,78.7599923 Z" id="Path" stroke="#86D7B3" stroke-width="2" stroke-linecap="round" stroke-linejoin="round" transform="translate(434.730000, 94.855000) rotate(-180.000000) translate(-434.730000, -94.855000) "></path>
            <circle id="Oval" stroke="#C2EAD8" fill="#C2EAD8" fill-rule="nonzero" cx="324.22" cy="87.24" r="5.69"></circle>
            <circle id="Oval" stroke="#C2EAD8" stroke-width="2" cx="418.41" cy="37.13" r="5.69"></circle>
            <circle id="Oval" stroke="#C2EAD8" stroke-width="2" cx="392.22" cy="239.85" r="5.69"></circle>
            <circle id="Oval" stroke="#C2EAD8" fill="#C2EAD8" fill-rule="nonzero" cx="450.3" cy="229.52" r="5.69"></circle>
            <circle id="Oval" stroke="#C2EAD8" stroke-width="2" cx="508.39" cy="239.85" r="5.69"></circle>
            <circle id="Oval" stroke="#C2EAD8" stroke-width="2" cx="508.39" cy="137.35" r="5.69"></circle>
            <circle id="Oval" stroke="#C2EAD8" stroke-width="2" cx="324.22" cy="187.46" r="5.69"></circle>
            <path d="M142.53,305 C150.403795,305.281871 157.103452,299.313887 157.73,291.46 C157.754799,291.172766 157.662639,290.887678 157.474395,290.669315 C157.28615,290.450952 157.017753,290.317792 156.73,290.3 L70.09,290.3 C70.0899769,294.294988 68.4650804,298.118144 65.5888062,300.890683 C62.7125321,303.663223 58.8322952,305.146655 54.84,305 L143.07,305" id="Path" stroke="#0A9557" stroke-width="2" fill="#0FB167" fill-rule="nonzero"></path>
            <path d="M40.66,184.5 L40.66,290 C40.6480761,297.974327 46.8775874,304.564079 54.84,305 C62.7735028,305.288587 69.5047695,299.230005 70.05,291.31 C70.0883992,290.774426 70.514426,290.348399 71.05,290.31 L128.3,290.06 L128.3,184.5 C128.375875,179.101711 124.153131,174.617813 118.76,174.37 L31.12,174.37 C36.5131313,174.617813 40.7358751,179.101711 40.66,184.5 Z" id="Path" stroke="#0A9557" stroke-width="2" fill="#F3FBF7" fill-rule="nonzero"></path>
            <path d="M155.83,139.44 L157.19,127.14 C159.391424,125.852788 161.515103,124.437002 163.55,122.9 C163.55,120.78 163.64,118.46 163.64,118.46 C163.64,118.46 159.25,112.81 162.25,110.81 C165.44,108.7 167.25,113.42 167.25,113.42 L168.89,107.29 L180.55,104.88 L180.77,111.88 L182.85,117.69 C183.05666,118.168735 182.860778,118.725911 182.4,118.97 L180.55,119.69 L180.55,125 C180.55,126.06 179.75,131 174.17,129 C175.23,133.24 176.47,137.62 176.47,137.62 L177.37,143.03 L171,145.16 L159.31,145.16 L155.83,139.44 Z" id="Path" stroke="#363D49" stroke-width="2" fill="#FFFFFF" fill-rule="nonzero" stroke-linecap="round" stroke-linejoin="round"></path>
            <path d="M145.53,177 L153,205.58 L159.31,231 L199.63,216.89 L198.53,165.28 C198.53,165.28 227.39,175.28 230.53,176.28 C233.67,177.28 239.01,176.28 240.07,172.04 C241.13,167.8 252.55,132.39 252.55,132.39 L245.13,130.27 L231.35,161.01 C231.35,161.01 205.91,145.11 203.79,144.01 C201.67,142.91 176.23,137.01 176.23,137.01 C176.23,137.01 174.11,140.88 166.69,141.94 C159.27,143 155.85,138.94 155.85,138.94 C155.85,138.94 137.01,151.53 133.85,154.71" id="Path" stroke="#363D49" stroke-width="2" fill="#363D49" fill-rule="nonzero" stroke-linecap="round" stroke-linejoin="round"></path>
            <path d="M174.84,129.21 C173.077999,128.797924 171.349726,128.253034 169.67,127.58" id="Path" stroke="#363D49" stroke-width="2" fill="#FFFFFF" fill-rule="nonzero" stroke-linecap="round" stroke-linejoin="round"></path>
            <path d="M144.23,202.3 C142.601709,200.426537 141.871385,197.936133 142.23,195.48 C142.75,190.7 145.53,176.96 145.53,176.96 L143.23,163.16 L133.87,154.7 C130.69,157.88 130.69,157.88 129.63,161.06 C128.57,164.24 125.51,197.73 125.51,199.85 C125.51,201.97 125.51,207.27 130.81,210.45 C136.11,213.63 176.27,232.08 176.27,232.08 L179.45,223.97 C179.45,223.97 145.29,203.36 144.23,202.3 Z" id="Path" stroke="#363D49" stroke-width="2" fill="#363D49" fill-rule="nonzero" stroke-linecap="round" stroke-linejoin="round"></path>
            <path d="M198.59,168.25 L198.59,161.33" id="Path" stroke="#363D49" stroke-width="2" fill="#FFFFFF" fill-rule="nonzero" stroke-linecap="round" stroke-linejoin="round"></path>
            <path d="M179,226 C179,226 191.37,232.3 192.09,233.95 C192.81,235.6 190.34,236.68 186.79,235.29 C184.43,234.36 176.59,230.29 176.59,230.29" id="Path" stroke="#363D49" stroke-width="2"></path>
            <path d="M342.721824,254.617381 L360.841824,254.617381 C361.29004,254.617381 361.719898,254.795435 362.036834,255.112371 C362.353771,255.429307 362.531824,255.859166 362.531824,256.307381 L362.531824,256.757381 C362.531824,257.690743 361.775185,258.447381 360.841824,258.447381 L344.211824,258.447381 C343.383397,258.447381 342.711824,257.775809 342.711824,256.947381 L342.711824,254.617381 L342.721824,254.617381 Z" id="Path" fill="#363D49" fill-rule="nonzero" transform="translate(352.621824, 256.532381) rotate(-71.670000) translate(-352.621824, -256.532381) "></path>
            <path d="M56.04,195.7 L113.39,195.7" id="Path" stroke="#C2EAD8" stroke-width="2" stroke-linecap="round" stroke-linejoin="round"></path>
            <path d="M56.04,210.89 L113.39,210.89" id="Path" stroke="#C2EAD8" stroke-width="2" stroke-linecap="round" stroke-linejoin="round"></path>
            <path d="M56.04,226.07 L113.39,226.07" id="Path" stroke="#C2EAD8" stroke-width="2" stroke-linecap="round" stroke-linejoin="round"></path>
            <path d="M56.04,241.26 L84.72,241.26" id="Path" stroke="#C2EAD8" stroke-width="2" stroke-linecap="round" stroke-linejoin="round"></path>
            <path d="M444.540075,297.63 C444.557766,293.485284 441.406988,290.013352 437.28,289.63 C435.133238,289.48897 433.02391,290.243183 431.453269,291.713409 C429.882628,293.183635 428.990903,295.238611 428.99,297.39 L428.99,301.1 C428.99,301.652285 429.437715,302.1 429.99,302.1 L444.540075,302.1 L444.540075,297.63 Z" id="Path" stroke="#0A9557" stroke-width="2" fill="#0FB167" fill-rule="nonzero"></path>
            <path d="M524.49,392.14 C530.572116,392.361132 535.782232,387.8247 536.4,381.77 C536.431269,381.470354 536.333553,381.171558 536.131275,380.948289 C535.928997,380.72502 535.641269,380.598373 535.34,380.599985 L468.64,380.599985 C468.09701,380.597532 467.641708,381.009472 467.59,381.55 C467.081128,387.700301 461.827248,392.364055 455.66,392.14 L524.91,392.14" id="Path" stroke="#0A9557" stroke-width="2" fill="#0FB167" fill-rule="nonzero"></path>
            <path d="M444.54,297.55 L444.54,380.32 C444.48331,386.602104 449.386127,391.813552 455.66,392.14 C461.830814,392.363745 467.086165,387.69428 467.59,381.54 C467.624151,381.002496 468.052496,380.574151 468.59,380.54 L513.320237,380.35 L513.320237,297.55 C513.352445,293.322875 510.051559,289.819264 505.83,289.6 L437.05,289.6 C441.271559,289.819264 444.572445,293.322875 444.54,297.55 L444.54,297.55 Z" id="Path" stroke="#0A9557" stroke-width="2" fill="#F3FBF7" fill-rule="nonzero"></path>
            <path d="M456.61,306.34 L501.62,306.34" id="Path" stroke="#C2EAD8" stroke-width="2" stroke-linecap="round" stroke-linejoin="round"></path>
            <path d="M456.61,318.26 L501.62,318.26" id="Path" stroke="#C2EAD8" stroke-width="2" stroke-linecap="round" stroke-linejoin="round"></path>
            <path d="M456.61,330.18 L501.62,330.18" id="Path" stroke="#C2EAD8" stroke-width="2" stroke-linecap="round" stroke-linejoin="round"></path>
            <path d="M456.61,342.09 L479.11,342.09" id="Path" stroke="#C2EAD8" stroke-width="2" stroke-linecap="round" stroke-linejoin="round"></path>
            <polygon id="Path" fill="#363D49" fill-rule="nonzero" points="168.98 128.28 174.63 134.03 174.46 129.84"></polygon>
            <polygon id="Path" fill="#363D49" fill-rule="nonzero" points="210.21 233.11 261.01 220.05 229.05 233.26"></polygon>
        </g>
    </g>
</svg>