<?xml version="1.0" encoding="UTF-8"?>
<svg width="560px" height="400px" viewBox="0 0 560 400" version="1.1" xmlns="http://www.w3.org/2000/svg" xmlns:xlink="http://www.w3.org/1999/xlink">
    <!-- Generator: Sketch 58 (84663) - https://sketch.com -->
    <title>Tablet</title>
    <desc>Created with Sketch.</desc>
    <g id="Tablet" stroke="none" stroke-width="1" fill="none" fill-rule="evenodd">
        <g id="Customers">
            <rect id="Rectangle" x="0" y="0" width="560" height="400"></rect>
            <rect id="Rectangle" fill="#DADEE3" fill-rule="nonzero" opacity="0.3" x="238" y="53.89" width="271.44" height="321.25" rx="4.13"></rect>
            <path d="M258.77,34.29 L258.77,20.88 C258.77,18.599064 260.619064,16.75 262.9,16.75 L531.1,16.75 C533.380936,16.75 535.23,18.599064 535.23,20.88 L535.23,347.88 C535.23,348.974427 534.794561,350.023883 534.019747,350.796821 C533.244933,351.569759 532.194424,352.000012 531.1,352.000012 L509.44,352.000012" id="Path" stroke="#DBDFE4" stroke-width="2"></path>
            <rect id="Rectangle" fill="#FFFFFF" fill-rule="nonzero" x="202.04" y="34.7" width="283.67" height="163.6" rx="4.13"></rect>
            <path d="M77.94,393.26 L11.61,393.26" id="Path" stroke="#DADEE3" stroke-width="2" stroke-linecap="round"></path>
            <path d="M222.67,393.26 L156.34,393.26" id="Path" stroke="#DADEE3" stroke-width="2" stroke-linecap="round"></path>
            <path d="M238,216.87 L238,198.09" id="Path" stroke="#DADEE3" stroke-width="2"></path>
            <path d="M238,281.86 L238,263.29" id="Path" stroke="#DADEE3" stroke-width="2"></path>
            <path d="M238,346.84 L238,328.28" id="Path" stroke="#DADEE3" stroke-width="2"></path>
            <path d="M485.71,53.89 L505.35,53.89 C506.43821,53.89 507.48156,54.3236408 508.249161,55.0949957 C509.016762,55.8663505 509.445321,56.9118034 509.440049,58 L509.440049,371 C509.440049,373.280936 507.590936,375.13 505.31,375.13 L485.71,375.13" id="Path" stroke="#DADEE3" stroke-width="2"></path>
            <path d="M103,104.43 L103,113.72 L105.06,117.84 L103,118.84 L103,127.47 C103.016225,127.882625 102.86497,128.284288 102.580605,128.583719 C102.296239,128.88315 101.902913,129.054921 101.49,129.06 L98.49,128.87 L99.95,140.5 L90.66,145.66 L80.35,141.53 L80.35,106.5 L103,104.43 Z" id="Path" stroke="#363D49" stroke-width="2" fill="#F5F6F7" fill-rule="nonzero" stroke-linecap="round" stroke-linejoin="round"></path>
            <path d="M232.92,198.300012 L206.17,198.300012 C205.075576,198.302656 204.025067,197.869759 203.250253,197.096821 C202.475439,196.323883 202.04,195.274427 202.04,194.18 L202.04,99.25" id="Path" stroke="#0A9557" stroke-width="2"></path>
            <rect id="Rectangle" stroke="#A6AFBC" stroke-width="2" fill="#FFFFFF" fill-rule="nonzero" x="202.04" y="216.87" width="283.67" height="46.42" rx="2.06"></rect>
            <path d="M246.4,53.8899875 L332,53.8899875 C334.277049,53.8844599 336.12898,55.7229713 336.14,58 L336.14,198.3 L222.67,198.3 L222.67,55.74" id="Path" fill="#E6F7EF" fill-rule="nonzero"></path>
            <path d="M357.8,63.17 L456.83,63.17" id="Path" stroke="#C2EAD8" stroke-width="2" fill="#C2EAD8" fill-rule="nonzero" stroke-linecap="round" stroke-linejoin="round"></path>
            <path d="M357.8,78.65 L419.1,78.65" id="Path" stroke="#C2EAD8" stroke-width="2" fill="#C2EAD8" fill-rule="nonzero" stroke-linecap="round" stroke-linejoin="round"></path>
            <path d="M357.8,94.12 L419.1,94.12" id="Path" stroke="#C2EAD8" stroke-width="2" fill="#C2EAD8" fill-rule="nonzero" stroke-linecap="round" stroke-linejoin="round"></path>
            <path d="M252.58,232.34 L378.43,232.34" id="Path" stroke="#DADEE3" stroke-width="2" stroke-linecap="round" stroke-linejoin="round"></path>
            <path d="M252.58,247.82 L315.51,247.82" id="Path" stroke="#DADEE3" stroke-width="2" stroke-linecap="round" stroke-linejoin="round"></path>
            <rect id="Rectangle" stroke="#C2EAD8" stroke-width="2" fill="#E6F7EF" fill-rule="nonzero" x="357.8" y="111.65" width="23.58" height="23.58" rx="2.06"></rect>
            <rect id="Rectangle" stroke="#DADEE3" stroke-width="2" fill="#F5F6F7" fill-rule="nonzero" x="214.42" y="228.22" width="23.58" height="23.58" rx="2.06"></rect>
            <rect id="Rectangle" stroke="#A6AFBC" stroke-width="2" fill="#FFFFFF" fill-rule="nonzero" x="202.04" y="281.86" width="283.67" height="46.42" rx="2.06"></rect>
            <path d="M252.58,297.33 L378.43,297.33" id="Path" stroke="#DADEE3" stroke-width="2" stroke-linecap="round" stroke-linejoin="round"></path>
            <path d="M252.58,312.8 L315.51,312.8" id="Path" stroke="#DADEE3" stroke-width="2" stroke-linecap="round" stroke-linejoin="round"></path>
            <rect id="Rectangle" stroke="#DADEE3" stroke-width="2" fill="#F5F6F7" fill-rule="nonzero" x="214.42" y="293.21" width="23.58" height="23.58" rx="2.06"></rect>
            <rect id="Rectangle" stroke="#A6AFBC" stroke-width="2" fill="#FFFFFF" fill-rule="nonzero" x="202.04" y="346.84" width="283.67" height="46.42" rx="2.06"></rect>
            <path d="M252.58,362.32 L378.43,362.32" id="Path" stroke="#DADEE3" stroke-width="2" stroke-linecap="round" stroke-linejoin="round"></path>
            <path d="M252.58,377.79 L315.51,377.79" id="Path" stroke="#DADEE3" stroke-width="2" stroke-linecap="round" stroke-linejoin="round"></path>
            <rect id="Rectangle" stroke="#DADEE3" stroke-width="2" fill="#F5F6F7" fill-rule="nonzero" x="214.42" y="358.19" width="23.58" height="23.58" rx="2.06"></rect>
            <rect id="Rectangle" stroke="#C2EAD8" stroke-width="2" fill="#E6F7EF" fill-rule="nonzero" x="395.53" y="111.65" width="23.58" height="23.58" rx="2.06"></rect>
            <rect id="Rectangle" stroke="#C2EAD8" stroke-width="2" fill="#E6F7EF" fill-rule="nonzero" x="433.25" y="111.65" width="23.58" height="23.58" rx="2.06"></rect>
            <circle id="Oval" stroke="#0A9557" stroke-width="2" fill="#0FB167" fill-rule="nonzero" cx="369.66" cy="166.84" r="12.89"></circle>
            <polyline id="Path" stroke="#FFFFFF" stroke-width="2" stroke-linecap="round" stroke-linejoin="round" points="363.79 166.53 368.19 170.93 376.37 162.75"></polyline>
            <circle id="Oval" stroke="#DADEE3" stroke-width="2" fill="#F5F6F7" fill-rule="nonzero" cx="462.5" cy="241.11" r="9.8"></circle>
            <polyline id="Path" stroke="#DADEE3" stroke-width="2" stroke-linecap="round" stroke-linejoin="round" points="458.04 240.88 461.38 244.22 467.6 238"></polyline>
            <circle id="Oval" stroke="#DADEE3" stroke-width="2" fill="#F5F6F7" fill-rule="nonzero" cx="462.5" cy="305.07" r="9.8"></circle>
            <polyline id="Path" stroke="#DADEE3" stroke-width="2" stroke-linecap="round" stroke-linejoin="round" points="458.04 304.83 461.38 308.18 467.6 301.96"></polyline>
            <circle id="Oval" stroke="#DADEE3" stroke-width="2" fill="#F5F6F7" fill-rule="nonzero" cx="462.5" cy="369.02" r="9.8"></circle>
            <polyline id="Path" stroke="#DADEE3" stroke-width="2" stroke-linecap="round" stroke-linejoin="round" points="458.04 368.79 461.38 372.13 467.6 365.91"></polyline>
            <path d="M158.71,20.88 L89.6,20.88 C86.7657589,20.88 84.4619709,23.165844 84.439967,26 L84.439967,81.29 C84.4354099,82.1036552 84.910184,82.8437769 85.6516587,83.1788456 C86.3931334,83.5139144 87.2623641,83.3811417 87.87,82.84 L99.64,72.46 L167,72.46 C168.367599,72.4600026 169.67904,71.9160424 170.64514,70.9480661 C171.61124,69.9800899 172.152656,68.6675967 172.15001,67.3 L172.15001,56" id="Path" stroke="#0A9557" stroke-width="2" fill="#F3FBF7" fill-rule="nonzero"></path>
            <path d="M270.49,91.22 C262.35,92.57 260.17,97.4 258.11,103.59 C256.05,109.78 253.22,116.06 251.11,121.79 C257.78,126.1 267.86,128.34 271.99,128.34 C276.12,128.34 289.26,124.88 293.38,121.79 C290.77,114.63 288.99,109.49 285.98,101.53 C282.86,93.34 276.67,90.18 270.49,91.22 Z" id="Path" stroke="#363D49" stroke-width="2" fill="#363D49" fill-rule="nonzero"></path>
            <path d="M263.25,104.81 C263.25,104.81 262.75,109.9 262.75,115.46 C262.75,119.58 267.36,123.46 267.36,123.46 L266.43,132.08 L264.66,136.66 L274.79,140.18 L284.47,137.52 L281.19,131.52 L280.19,124.19 L280.12,107.74 C280.118534,107.0733 279.794503,106.448532 279.25038,106.063277 C278.706257,105.678023 278.009331,105.579922 277.38,105.8 C274,106.91 268.08,108.26 263.25,104.81 Z" id="Path" stroke="#363D49" stroke-width="2" fill="#F5F6F7" fill-rule="nonzero" stroke-linecap="round" stroke-linejoin="round"></path>
            <path d="M263.2,105.34 C263.2,105.34 262.75,109.77 262.75,115.17 C262.75,119.17 266.41,124.35 271.97,124.1" id="Path" stroke="#363D49" stroke-width="2" stroke-linecap="round" stroke-linejoin="round"></path>
            <path d="M97.85,96.18 C98.85,95.18 101.98,93.09 104.04,95.18 C106.1,97.27 107.14,102.4 103.04,104.46 C98.94,106.52 90.66,107.56 90.66,107.56 L89.42,114.56 C89.42,114.56 87.96,111.12 85.3,111.68 C82.3,112.31 82.41,120.05 87.57,121.08 L87.57,126.17 L80.35,128.23 C80.35,128.23 78.28,116.88 77.25,115.85 C76.22,114.82 71.06,109.66 76.25,105.54 C76.25,102.44 77.25,97.28 84.5,98.31 C86.51,94.12 92.7,92.06 97.85,96.18 Z" id="Path" stroke="#363D49" stroke-width="2" fill="#363D49" fill-rule="nonzero" stroke-linecap="round" stroke-linejoin="round"></path>
            <path d="M71,228.22 C71,228.22 75.13,307.65 75.13,312.8 L75.13,392.23 L84.41,392.23 C84.41,392.23 94.73,316.88 95.76,306.62 C96.79,296.36 97.82,270.51 97.82,270.51 C97.82,270.51 111.23,300.43 113.3,306.62 C115.37,312.81 120.52,392.23 120.52,392.23 L130.83,392.23 C130.83,392.23 132.9,313.84 132.9,307.65 C132.9,301.46 118.16,226.17 118.16,226.17 L71,228.22 Z" id="Path" stroke="#363D49" stroke-width="2" fill="#FFFFFF" fill-rule="nonzero" stroke-linecap="round" stroke-linejoin="round"></path>
            <path d="M74.16,391.19 L93.24,391.19 C94.0960414,391.19 94.79,391.883959 94.79,392.74 L94.79,392.74 C94.79,393.596041 94.0960414,394.29 93.24,394.29 L75.53,394.29 C74.7733699,394.29 74.16,393.67663 74.16,392.92 L74.16,391.19 L74.16,391.19 Z" id="Path" fill="#363D49" fill-rule="nonzero"></path>
            <path d="M119.48,391.2 L138.56,391.2 C138.971086,391.2 139.365334,391.363303 139.656016,391.653984 C139.946697,391.944666 140.11,392.338914 140.11,392.75 L140.11,392.75 C140.11,393.161086 139.946697,393.555334 139.656016,393.846016 C139.365334,394.136697 138.971086,394.3 138.56,394.3 L120.85,394.3 C120.486653,394.3 120.138189,394.155661 119.881264,393.898736 C119.624339,393.641811 119.48,393.293347 119.48,392.93 L119.48,391.2 L119.48,391.2 Z" id="Path" fill="#363D49" fill-rule="nonzero"></path>
            <path d="M179.35,156 C179.35,156 190.69,146.72 192.76,146.72 C194.83,146.72 194.82,149.81 191.76,152.91 C189.7,154.97 183.51,160.13 183.51,160.13" id="Path" stroke="#363D49" stroke-width="2" fill="#F5F6F7" fill-rule="nonzero"></path>
            <path d="M186.66,79.7 C186.66,79.7 183.89,87.07 189.5,92.11" id="Path" stroke="#A6AFBC" stroke-width="2" stroke-linecap="round"></path>
            <path d="M207.89,81.22 C207.89,81.22 206.1,73.56 198.58,72.22" id="Path" stroke="#A6AFBC" stroke-width="2" stroke-linecap="round"></path>
            <path d="M215.5,79.28 C215.5,79.28 212.5,66.28 199.71,64.03" id="Path" stroke="#A6AFBC" stroke-width="2" stroke-linecap="round"></path>
            <path d="M179.28,77.42 C179.28,77.42 175.62,90.24 185.8,98.06" id="Path" stroke="#A6AFBC" stroke-width="2" stroke-linecap="round"></path>
            <path d="M205.26,93.23 C205.26,93.23 198.12,80.43 196.2,79.67 C194.28,78.91 193.14,81.79 194.88,85.81 C196.05,88.48 200.16,96.11 200.16,96.11" id="Path" stroke="#363D49" stroke-width="2"></path>
            <path d="M197.75,94.35 L204.66,89.84 C204.720207,89.787636 204.809793,89.787636 204.87,89.84 C205.87,91.53 217.18,109.96 221.09,116.44 C221.95,117.86 223.3,118.3 224.4,118.86 L247.59,130.61 C249.2627,131.4192 251.075859,131.897956 252.93,132.02 L266.43,132.02 C266.43,132.02 266.85,135.02 273.99,135.02 C280.41,135.02 281.16,131.17 281.16,131.17 L295.6,136.53 C298.522198,137.536232 300.957527,139.607333 302.42,142.33 C306.42,149.2 316.61,166.85 320.84,174.14 C322.098635,176.197855 322.57099,178.641317 322.17,181.02 C321.61,185.33 319.68,198.21 319.68,198.21 L311.68,198 C311.68,198 311.49,186.17 311.43,182.22 C311.478981,180.501621 310.846291,178.833621 309.67,177.58 L298,165.08 L293.56,198.08 L254.4,198.08 C254.4,198.08 251.63,169.63 250.4,160.08 C249.6,153.65 246.13,150.97 242.83,148.52 C235.93,143.4 223.45,134.91 218.59,131.29 C216.257691,129.331586 214.308163,126.958248 212.84,124.29 C209,117.29 198.53,96.29 197.66,94.52 C197.644936,94.4490243 197.682833,94.3774417 197.75,94.35 L197.75,94.35 Z" id="Path" stroke="#363D49" stroke-width="2" fill="#363D49" fill-rule="nonzero"></path>
            <path d="M299.61,166.87 L295.11,162.13" id="Path" stroke="#363D49" stroke-width="2" stroke-linecap="round"></path>
            <path d="M242.27,4.37980555 L162.84,4.37980555 C161.745576,4.37734362 160.695067,4.81024084 159.920253,5.58317882 C159.145439,6.3561168 158.709806,7.40557324 158.709806,8.5 L158.709806,51.83 C158.699324,52.9322582 159.12973,53.9930452 159.905415,54.7762433 C160.681101,55.5594414 161.73769,56.0000517 162.84,56 L231.2,56 L243,66.34 C243.610319,66.8719054 244.474708,66.9991993 245.212453,66.665816 C245.950198,66.3324327 246.425885,65.5995649 246.43,64.79 L246.43,8.5 C246.43,7.40034218 245.990495,6.3462963 245.209172,5.57248622 C244.42785,4.79867615 243.369606,4.36932371 242.27,4.37980555 L242.27,4.37980555 Z" id="Path" stroke="#0A9557" stroke-width="2" fill="#F3FBF7" fill-rule="nonzero"></path>
            <path d="M80.32,141.57 C80.32,141.57 61.75,147.76 58.66,149.82 C55.57,151.88 51.43,158.07 52.47,167.36 C53.51,176.65 59.69,201.36 60.72,205.52 C61.4223331,208.559854 62.8341438,211.390329 64.84,213.78 C65.84,214.78 70,217.9 70,217.9 L71.1,229.47 L118.48,228.22 L120.55,173.55 C120.55,173.55 137.05,187.99 139.12,190.05 C141.19,192.11 144.27,193.15 148.4,190.05 C152.15,187.24 178.87,167.41 183.74,163.8 C184.170442,163.483557 184.27613,162.884661 183.98,162.44 L178.83,154.72 C178.537926,154.2886 177.963576,154.153715 177.51,154.41 C173.64,156.61 156.91,166.14 150.82,169.53 C148.17,171 146.17,170.1 144.34,167.98 C138.75,161.53 127.26,148.28 125.71,146.73 C123.64,144.66 119.52,140.54 113.33,140.54 L101,140.54 C101,140.54 92.75,143.63 89.65,143.63 C86.55,143.63 80.32,141.57 80.32,141.57 Z" id="Path" stroke="#363D49" stroke-width="2" fill="#363D49" fill-rule="nonzero"></path>
            <path d="M99.8,274.88 L91.29,253.5" id="Path" stroke="#363D49" stroke-width="2" fill="#F5F6F7" fill-rule="nonzero" stroke-linecap="round"></path>
            <path d="M70,217.9 L66.54,168.2" id="Path" stroke="#363D49" stroke-width="2" stroke-linecap="round" stroke-linejoin="round"></path>
            <path d="M122.9,175.61 L116.38,169.42" id="Path" stroke="#363D49" stroke-width="2" stroke-linecap="round" stroke-linejoin="round"></path>
            <path d="M93.17,127.66 C95.0490157,128.531341 97.0989017,128.972066 99.17,128.95" id="Path" stroke="#363D49" stroke-width="2" fill="#F5F6F7" fill-rule="nonzero" stroke-linecap="round" stroke-linejoin="round"></path>
            <circle id="Oval" stroke="#0FB167" fill="#0FB167" fill-rule="nonzero" cx="202.08" cy="30.22" r="4.48"></circle>
            <circle id="Oval" stroke="#0FB167" fill="#0FB167" fill-rule="nonzero" cx="182.4" cy="30.22" r="4.48"></circle>
            <circle id="Oval" stroke="#0FB167" fill="#0FB167" fill-rule="nonzero" cx="221.76" cy="30.22" r="4.48"></circle>
            <circle id="Oval" stroke="#0FB167" fill="#0FB167" fill-rule="nonzero" cx="128.28" cy="47.05" r="4.48"></circle>
            <circle id="Oval" stroke="#0FB167" fill="#0FB167" fill-rule="nonzero" cx="108.61" cy="47.05" r="4.48"></circle>
            <circle id="Oval" stroke="#0FB167" fill="#0FB167" fill-rule="nonzero" cx="147.96" cy="47.05" r="4.48"></circle>
            <path d="M68.27,220.1 L65.57,174.69" id="Path" stroke="#F5F6F7" stroke-width="2" stroke-linecap="round" stroke-linejoin="round"></path>
            <path d="M246.4,34.29 L481.59,34.29 C483.86703,34.2955134 485.71,36.1429635 485.71,38.42 L485.71,194.18 C485.71,196.455413 483.865413,198.3 481.59,198.3 L214.42,198.3" id="Path" stroke="#0A9557" stroke-width="2"></path>
            <polygon id="Path" fill="#363D49" fill-rule="nonzero" points="92.5 128.4 98.88 136.49 98.56 129.72"></polygon>
            <polygon id="Path" fill="#363D49" fill-rule="nonzero" points="90.32 253.7 95.55 299.96 97.82 271.27"></polygon>
        </g>
    </g>
</svg>