<?xml version="1.0" encoding="UTF-8"?>
<svg width="560px" height="400px" viewBox="0 0 560 400" version="1.1" xmlns="http://www.w3.org/2000/svg" xmlns:xlink="http://www.w3.org/1999/xlink">
    <!-- Generator: Sketch 58 (84663) - https://sketch.com -->
    <title>Tablet</title>
    <desc>Created with Sketch.</desc>
    <g id="Tablet" stroke="none" stroke-width="1" fill="none" fill-rule="evenodd">
        <g id="Discounts">
            <rect id="Rectangle" x="0" y="0" width="560" height="400"></rect>
            <path d="M514.28,68.2 L514.28,46.81 C514.28,45.8805301 513.529454,45.1254998 512.6,45.12 L382.76,45.12 L382.76,125.31 L512.6,125.31 C513.529454,125.3045 514.28,124.54947 514.28,123.62 L514.28,101.62 C505.040276,101.62 497.55,94.1297239 497.55,84.89 C497.55,75.6502761 505.040276,68.16 514.28,68.16 L514.28,68.2 Z" id="Path" stroke="#DBDFE4" stroke-width="2" fill="#DBDFE4" fill-rule="nonzero" opacity="0.3"></path>
            <rect id="Rectangle" fill="#F5F6F7" fill-rule="nonzero" x="382.76" y="45.12" width="131.53" height="11.54"></rect>
            <rect id="Rectangle" fill="#F5F6F7" fill-rule="nonzero" x="382.76" y="113.19" width="131.53" height="11.54"></rect>
            <path d="M111.889972,186.92 L111.889972,209.32 C121.405726,209.547323 129.001341,217.326559 129.001341,226.845 C129.001341,236.363441 121.405726,244.142677 111.889972,244.37 L111.889972,267.37 C111.889972,268.347544 112.682456,269.14 113.66,269.14 L249.66,269.14 L249.66,185.14 L113.66,185.14 C113.188829,185.14 112.737101,185.327846 112.404872,185.661952 C112.072644,185.996057 111.887338,186.448837 111.889972,186.92 Z" id="Path" fill="#DBDFE4" fill-rule="nonzero" opacity="0.3"></path>
            <rect id="Rectangle" fill="#F5F6F7" fill-rule="nonzero" x="111.89" y="185.15" width="133.93" height="12.09"></rect>
            <rect id="Rectangle" fill="#F5F6F7" fill-rule="nonzero" x="111.89" y="256.46" width="133.93" height="12.09"></rect>
            <path d="M240.16,385.77 L117.16,385.77 C116.809916,385.763982 116.488477,385.575302 116.312562,385.272565 C116.136648,384.969829 116.131883,384.597135 116.3,384.29 L325.8,21.48 C325.980064,21.1763005 326.306933,20.99 326.66,20.99 L449.66,20.99 C450.010084,20.996018 450.331523,21.1846984 450.507438,21.4874349 C450.683352,21.7901715 450.688117,22.1628649 450.52,22.47 L241,385.28 C240.82362,385.577649 240.505913,385.762978 240.16,385.77 Z" id="Path" stroke="#0A9557" stroke-width="2"></path>
            <path d="M63.86,385.77 L6.01,385.77" id="Path" stroke="#DADEE3" stroke-width="2" stroke-linecap="round" stroke-linejoin="round"></path>
            <path d="M249.06,244.37 C239.544274,244.142677 231.948659,236.363441 231.948659,226.845 C231.948659,217.326559 239.544274,209.547323 249.06,209.32" id="Path" stroke="#DBDFE4" stroke-width="2" stroke-linecap="round" stroke-linejoin="round"></path>
            <path d="M111.889972,186.92 L111.889972,209.32 C121.405726,209.547323 129.001341,217.326559 129.001341,226.845 C129.001341,236.363441 121.405726,244.142677 111.889972,244.37 L111.889972,267.37 C111.889972,268.347544 112.682456,269.14 113.66,269.14 L249.66,269.14 L249.66,185.14 L113.66,185.14 C113.188829,185.14 112.737101,185.327846 112.404872,185.661952 C112.072644,185.996057 111.887338,186.448837 111.889972,186.92 Z" id="Path" stroke="#DBDFE4" stroke-width="2" stroke-linecap="round" stroke-linejoin="round"></path>
            <path d="M111.89,197.24 L249.06,197.24" id="Path" stroke="#DBDFE4" stroke-width="2" stroke-linecap="round" stroke-linejoin="round"></path>
            <path d="M111.89,256.46 L249.06,256.46" id="Path" stroke="#DBDFE4" stroke-width="2" stroke-linecap="round" stroke-linejoin="round"></path>
            <path d="M137.87,185.15 C137.87,181.811439 140.576439,179.105 143.915,179.105 C147.253561,179.105 149.96,181.811439 149.96,185.15" id="Path" stroke="#DBDFE4" stroke-width="2" stroke-linecap="round" stroke-linejoin="round"></path>
            <path d="M208.58,185.15 C208.58,181.8142 211.2842,179.11 214.62,179.11 C217.9558,179.11 220.66,181.8142 220.66,185.15" id="Path" stroke="#DBDFE4" stroke-width="2" stroke-linecap="round" stroke-linejoin="round"></path>
            <path d="M143.92,179.11 L143.92,155.9" id="Path" stroke="#DBDFE4" stroke-width="2" stroke-linecap="round" stroke-linejoin="round"></path>
            <path d="M214.62,179.11 L214.62,129.2" id="Path" stroke="#DBDFE4" stroke-width="2" stroke-linecap="round" stroke-linejoin="round"></path>
            <path d="M514.28,68.2 L514.28,46.81 C514.28,45.8805301 513.529454,45.1254998 512.6,45.12 L382.76,45.12 L382.76,125.31 L512.6,125.31 C513.529454,125.3045 514.28,124.54947 514.28,123.62 L514.28,101.62 C505.040276,101.62 497.55,94.1297239 497.55,84.89 C497.55,75.6502761 505.040276,68.16 514.28,68.16 L514.28,68.2 Z" id="Path" stroke="#DBDFE4" stroke-width="2" stroke-linecap="round" stroke-linejoin="round"></path>
            <path d="M368.92,77.8 C379.755827,77.8 388.54,86.5841734 388.54,97.42 C388.54,108.255827 379.755827,117.04 368.92,117.04" id="Path" stroke="#363D49" stroke-width="2"></path>
            <path d="M382.76,56.66 L513.71,56.66" id="Path" stroke="#DBDFE4" stroke-width="2"></path>
            <path d="M382.76,113.19 L513.71,113.19" id="Path" stroke="#DBDFE4" stroke-width="2"></path>
            <path d="M398,50.75 C398.139784,47.1149368 401.12725,44.2401442 404.765,44.2401442 C408.40275,44.2401442 411.390216,47.1149368 411.53,50.75" id="Path" stroke="#363D49" stroke-width="2"></path>
            <path d="M475.06,45.12 C475.188747,42.029412 477.731732,39.5901562 480.825,39.5901562 C483.918268,39.5901562 486.461253,42.029412 486.59,45.12" id="Path" stroke="#DBDFE4" stroke-width="2"></path>
            <path d="M413.33,39.36 L413.33,11.39" id="Path" stroke="#DBDFE4" stroke-width="2" stroke-linecap="round" stroke-linejoin="round"></path>
            <path d="M480.83,39.36 L480.83,11.39" id="Path" stroke="#DBDFE4" stroke-width="2" stroke-linecap="round" stroke-linejoin="round"></path>
            <path d="M471.07,256.74 C471.07,256.74 465.94,296.74 464.92,304.96 C463.9,313.18 464.92,316.24 466.97,320.34 C469.02,324.44 499.07,383.34 499.07,383.34 L506.25,383.34 C506.25,383.34 488.51,325.49 487.48,322.41 C486.45,319.33 485.43,315.23 487.48,311.13 C489.53,307.03 498.77,284.46 498.77,284.46 C498.77,284.46 503.9,302.92 504.92,307.03 C506.276733,312.11322 508.276196,317.002662 510.87,321.58 C513.37,326 543,383.32 543,383.32 L550.18,383.32 C550.18,383.32 530.59,316.24 529.56,311.11 C528.53,305.98 526.48,298.8 526.48,291.62 L526.48,265.45 C526.48,255.68 525.15,247.61 522.33,242.25 C521.27,240.25 516.23,231.1 516.23,231.1 L491.61,244.43 L471.07,256.74 Z" id="Path" stroke="#363D49" stroke-width="2" fill="#363D49" fill-rule="nonzero" stroke-linecap="round" stroke-linejoin="round"></path>
            <path d="M418.76,157.24 C416.654168,156.725899 414.593955,156.040276 412.6,155.19 C410.55,154.19 407.47,151.09 407.47,150.06 C407.47,149.03 413.63,145.96 418.76,142.88 C423.89,139.8 430.04,134.67 434.14,134.67 C438.24,134.67 446.45,139.8 446.45,150.06 L446.45,164.42 L439.27,159.29 L418.76,157.24 Z" id="Path" stroke="#363D49" stroke-width="2" fill="#363D49" fill-rule="nonzero"></path>
            <path d="M437.28,182.41 L434.28,171.21 C434.28,171.21 433.14,172.41 432,173.49 C430.26,175.12 429,173.6 428.06,171.83 C426.9,169.65 426.24,168.18 426.24,168.18 L424.08,169.08 C423.776802,169.20728 423.431703,169.18664 423.145838,169.024128 C422.859973,168.861615 422.665718,168.575636 422.62,168.25 C422.33,166.16 422.32,162.33 421.81,161.54 C421.3,160.75 417.93,156.6 417.93,156.6 C417.93,156.6 428.41,149.49 430.62,148.39 C432.083023,149.96001 433.230521,151.796685 434,153.8 C434,153.8 434,148.27 437.32,149.38 C440.64,150.49 439.53,157.12 439.53,157.12 L446.05,161.77 L453.65,171.6 L453.91,181.46 L442.83,187 L437.28,182.41 Z" id="Path" stroke="#363D49" stroke-width="2" fill="#FFFFFF" fill-rule="nonzero" stroke-linecap="round" stroke-linejoin="round"></path>
            <path d="M121.17,104.33 C121.17,104.33 106.17,124.5 101.05,132.33 C99.73,134.33 98.43,135.33 95.5,136.1 C87.21,138.28 76.32,141.85 76.32,141.85 L81.41,146.76 L92.18,144.32 L111.18,137.62 L126.84,116.18 L121.17,104.33 Z" id="Path" stroke="#363D49" stroke-width="2" stroke-linecap="round" stroke-linejoin="round"></path>
            <circle id="Oval" stroke="#0A9557" stroke-width="2" fill="#0FB167" fill-rule="nonzero" cx="158.35" cy="88.69" r="69.2"></circle>
            <circle id="Oval" stroke="#0A9557" stroke-width="2" fill="#E6F7EF" fill-rule="nonzero" stroke-linecap="round" stroke-linejoin="round" cx="158.35" cy="88.69" r="49.09"></circle>
            <circle id="Oval" stroke="#C2EAD8" stroke-width="2" fill="#F3FBF7" fill-rule="nonzero" cx="158.35" cy="88.69" r="28.26"></circle>
            <path d="M37.18,219.11 C37.18,219.11 36.94,239.75 37.18,246.62 C38.1,273.62 44.58,354.52 44.58,354.52 L55.16,354.52 L67.85,269.89 C67.85,269.89 74.67,287.29 78.16,297.62 C79.4811023,301.274568 80.2135543,305.115722 80.33,309 C81.17,325.17 81.6,354.49 81.6,354.49 L93.24,354.49 C93.24,354.49 100.65,302.65 100.65,297.36 C100.65,292.07 83.72,219.08 83.72,219.08 L37.18,219.11 Z" id="Path" stroke="#363D49" stroke-width="2" stroke-linecap="round" stroke-linejoin="round"></path>
            <polygon id="Path" stroke="#363D49" stroke-width="2" stroke-linecap="round" stroke-linejoin="round" points="55.16 354.51 53.04 385.04 48.81 385.04 46.97 354.51"></polygon>
            <polygon id="Path" stroke="#363D49" stroke-width="2" stroke-linecap="round" stroke-linejoin="round" points="93.24 354.51 89.01 385.04 84.78 385.04 85.06 354.51"></polygon>
            <path d="M138.4,100.84 C138.4,100.84 144.4,89.65 146.11,88.97 C147.82,88.29 148.78,90.78 147.31,94.28 C146.31,96.62 142.11,104.28 142.11,104.28" id="Path" stroke="#363D49" stroke-width="2" fill="#FFFFFF" fill-rule="nonzero"></path>
            <path d="M60.45,132.37 C55.16,129.2 53.04,122.85 53.04,122.85 C53.04,122.85 48.81,108.04 61.51,102.75 C74.21,97.46 78.43,107 78.43,107 L71,120.74 L60.45,132.37 Z" id="Path" stroke="#363D49" stroke-width="2" fill="#363D49" fill-rule="nonzero"></path>
            <path d="M240.16,385.77 L117.16,385.77 C116.809916,385.763982 116.488477,385.575302 116.312562,385.272565 C116.136648,384.969829 116.131883,384.597135 116.3,384.29 L325.8,21.48 C325.980064,21.1763005 326.306933,20.99 326.66,20.99 L449.66,20.99 C450.010084,20.996018 450.331523,21.1846984 450.507438,21.4874349 C450.683352,21.7901715 450.688117,22.1628649 450.52,22.47 L241,385.28 C240.82362,385.577649 240.505913,385.762978 240.16,385.77 Z" id="Path" fill="#FFFFFF" fill-rule="nonzero"></path>
            <circle id="Oval" stroke="#363D49" stroke-width="2" fill="#FFFFFF" fill-rule="nonzero" cx="55.16" cy="106.99" r="5.29"></circle>
            <path d="M49.87,107 C49.87,107 43.52,104.88 39.29,109.11 C35.06,113.34 34,119.69 31.89,123.92 C29.89,127.92 27.66,131.33 23.42,133.44 C19.18,135.55 26.6,141.9 39.29,132.38 C51.98,122.86 52.65,111.95 52.65,111.95" id="Path" stroke="#363D49" stroke-width="2" fill="#363D49" fill-rule="nonzero"></path>
            <path d="M442.35,212.63 L471.07,256.74 C471.07,256.74 504.88,247.37 516.21,231.1 C508,213.66 490.56,180.83 486.46,173.65 C482.36,166.47 453.63,171.6 453.63,171.6 C453.63,171.6 452.63,176.68 446.45,179.76 C440.27,182.84 437.28,182.41 437.28,182.41 C437.28,182.41 424.91,195.74 424.91,200.32 C424.91,204.38 426.25,219.58 426.57,235.65 C426.74,243.95 424.91,254.65 424.91,261.87 C429.01,267 433.39,265.11 433.39,265.11 L440.47,241 L442.35,212.63 Z" id="Path" stroke="#363D49" stroke-width="2" fill="#FFFFFF" fill-rule="nonzero" stroke-linecap="round" stroke-linejoin="round"></path>
            <path d="M204.12,232.23 L267.42,232.23 L246.88,267.81 C246.526701,268.422031 245.876641,268.802184 245.17,268.81 L183.23,268.81" id="Path" stroke="#C2EAD8" stroke-width="2"></path>
            <path d="M329.72,231.52 L267.42,231.52 L288,195.94 C288.355105,195.324911 289.009778,194.944287 289.72,194.94 L350.88,194.94 L329.72,231.52 Z" id="Path" fill="#DADEE3" fill-rule="nonzero" opacity="0.3"></path>
            <path d="M266.85,123 L325.37,123 C326.080588,123.00781 326.733667,123.392093 327.085573,124.009473 C327.43748,124.626853 327.435358,125.3846 327.08,126 L308.25,158.61 C307.896701,159.222031 307.246641,159.602184 306.54,159.61 L245.81,159.61" id="Path" fill="#DADEE3" fill-rule="nonzero"></path>
            <path d="M329.72,231.52 L267.42,231.52 L288,195.94 C288.355105,195.324911 289.009778,194.944287 289.72,194.94 L350.88,194.94 L329.72,231.52 Z" id="Path" stroke="#DADEE3" stroke-width="2" stroke-linecap="round" stroke-linejoin="round"></path>
            <path d="M177.42,385.77 L117.19,385.77 C116.839916,385.763982 116.518477,385.575302 116.342562,385.272565 C116.166648,384.969829 116.161883,384.597135 116.33,384.29 L136,350.19 C136.353299,349.577969 137.003359,349.197816 137.71,349.19 L196.23,349.19 C196.940588,349.19781 197.593667,349.582093 197.945573,350.199473 C198.29748,350.816853 198.295358,351.5746 197.94,352.19 L179.11,384.8 C178.752924,385.394452 178.113401,385.761516 177.42,385.77 L177.42,385.77 Z" id="Path" stroke="#C2EAD8" stroke-width="2"></path>
            <path d="M409.34,93.14 L349.41,93.14 C348.699412,93.1321898 348.046333,92.7479069 347.694427,92.1305269 C347.34252,91.5131469 347.344642,90.7553996 347.7,90.14 L367.22,56.63" id="Path" stroke="#C2EAD8" stroke-width="2"></path>
            <path d="M266.85,123 L325.37,123 C326.080588,123.00781 326.733667,123.392093 327.085573,124.009473 C327.43748,124.626853 327.435358,125.3846 327.08,126 L308.25,158.61 C307.896701,159.222031 307.246641,159.602184 306.54,159.61 L245.81,159.61" id="Path" stroke="#A6AFBC" stroke-width="2"></path>
            <path d="M240.16,385.77 L117.16,385.77 C116.809916,385.763982 116.488477,385.575302 116.312562,385.272565 C116.136648,384.969829 116.131883,384.597135 116.3,384.29 L325.8,21.48 C325.980064,21.1763005 326.306933,20.99 326.66,20.99 L449.66,20.99 C450.010084,20.996018 450.331523,21.1846984 450.507438,21.4874349 C450.683352,21.7901715 450.688117,22.1628649 450.52,22.47 L241,385.28 C240.82362,385.577649 240.505913,385.762978 240.16,385.77 Z" id="Path" stroke="#0A9557" stroke-width="2"></path>
            <path d="M59.39,143 C59.39,143 60.08,138.83 60.45,132.42 C62.8540614,130.584734 64.9911995,128.424037 66.8,126 L66.8,124 C66.8,124 60.31,119.61 62.56,116.54 C64.95,113.29 67.85,117.54 67.85,117.54 C67.85,117.54 72.08,107 78.43,107 C79.76,110.26 79.43,116.13 79.43,117.35 C79.430883,117.498993 79.4650488,117.645906 79.53,117.78 L81.98,122.68 C82.2079343,123.177226 81.9940805,123.765324 81.5,124 L79.42,125 L79.42,128.9 C79.5201528,130.178312 78.9806462,131.423239 77.9793932,132.224241 C76.9781401,133.025244 75.645149,133.278315 74.42,132.9 C75.16,136.74 76.29,141.9 76.29,141.9 L73.11,149.31 L64.65,150.37 L59.36,147.19 L59.39,143 Z" id="Path" stroke="#363D49" stroke-width="2" fill="#FFFFFF" fill-rule="nonzero" stroke-linecap="round" stroke-linejoin="round"></path>
            <path d="M70.53,131.61 C72.1019695,132.510137 73.8889197,132.96638 75.7,132.93" id="Path" stroke="#363D49" stroke-width="2" fill="#FFFFFF" fill-rule="nonzero" stroke-linecap="round" stroke-linejoin="round"></path>
            <path d="M137.57,100.1 C137.57,100.1 114.4,135.55 111.22,137.66 C108.04,139.77 76.32,141.89 76.32,141.89 C76.32,141.89 75.45,145.99 68.01,146.71 C61.32,147.37 59.39,142.95 59.39,142.95 C59.39,142.95 49.99,145.32 45.64,147.18 C38.23,150.36 37.18,157.76 37.18,170.46 L37.18,219.11 L83.72,219.11 L93.24,165.17 L118.63,152.47 C120.74,151.41 124.98,147.18 127.09,142.95 C129.2,138.72 143.92,104.33 143.92,104.33 L137.57,100.1 Z" id="Path" stroke="#363D49" stroke-width="2" fill="#363D49" fill-rule="nonzero" stroke-linecap="round" stroke-linejoin="round"></path>
            <path d="M67.85,269.89 L58.08,244.89" id="Path" stroke="#363D49" stroke-width="2" stroke-linecap="round" stroke-linejoin="round"></path>
            <path d="M47.89,383.78 L63.89,383.78 C64.6576758,383.78 65.28,384.402324 65.28,385.17 L65.28,385.36 C65.28,386.127676 64.6576758,386.75 63.89,386.75 L49.12,386.75 C48.4406898,386.75 47.89,386.19931 47.89,385.52 L47.89,383.78 Z" id="Path" fill="#363D49" fill-rule="nonzero"></path>
            <path d="M83.8,383.78 L99.8,383.78 C100.567676,383.78 101.19,384.402324 101.19,385.17 L101.19,385.36 C101.19,386.127676 100.567676,386.75 99.8,386.75 L85,386.75 C84.6737837,386.75 84.3609284,386.620411 84.1302587,386.389741 C83.8995889,386.159072 83.77,385.846216 83.77,385.52 L83.77,383.78 L83.8,383.78 Z" id="Path" fill="#363D49" fill-rule="nonzero"></path>
            <path d="M472.66,385.77 L316.14,385.77" id="Path" stroke="#DADEE3" stroke-width="2" stroke-linecap="round" stroke-linejoin="round"></path>
            <circle id="Oval" stroke="#0A9557" stroke-width="2" fill="#0FB167" fill-rule="nonzero" cx="402.53" cy="316.57" r="69.2"></circle>
            <circle id="Oval" stroke="#0A9557" stroke-width="2" fill="#E6F7EF" fill-rule="nonzero" stroke-linecap="round" stroke-linejoin="round" cx="402.53" cy="316.57" r="49.09"></circle>
            <circle id="Oval" stroke="#C2EAD8" stroke-width="2" fill="#F3FBF7" fill-rule="nonzero" cx="402.53" cy="316.57" r="28.26"></circle>
            <path d="M432.59,267.93 C432.59,267.93 424.84,277.52 424.84999,279.26 C424.86,281 427.46,280.98 430.05,278.36 C431.78,276.61 437.1,269.95 437.1,269.95" id="Path" stroke="#363D49" stroke-width="2" fill="#FFFFFF" fill-rule="nonzero"></path>
            <path d="M462.68,187 C462.68,187 461.84,214.7 459.79,219.82 C457.74,224.94 431.07,266 431.07,266 L438.25,272.15 C438.25,272.15 471.07,237.27 474.15,234.2 C477.23,231.13 485.52,191.9 486.82,183.97" id="Path" stroke="#363D49" stroke-width="2" fill="#FFFFFF" fill-rule="nonzero" stroke-linecap="round" stroke-linejoin="round"></path>
            <path d="M432.65,172.88 C434.205806,171.328361 435.636903,169.656518 436.93,167.88" id="Path" stroke="#363D49" stroke-width="2" fill="#FFFFFF" fill-rule="nonzero" stroke-linecap="round" stroke-linejoin="round"></path>
            <path d="M533.86,383.32 L549.71,383.32 C550.50529,383.32 551.15,383.96471 551.15,384.76 L551.15,384.85 C551.15,385.64529 550.50529,386.29 549.71,386.29 L532.59,386.29 L532.59,384.59 C532.59,383.888598 533.158598,383.32 533.86,383.32 Z" id="Path" fill="#363D49" fill-rule="nonzero" transform="translate(541.870000, 384.805000) rotate(180.000000) translate(-541.870000, -384.805000) "></path>
            <path d="M489.96,383.300355 L505.81,383.300355 C506.60529,383.300355 507.25,383.945065 507.25,384.740355 L507.25,384.830355 C507.25,385.625645 506.60529,386.270355 505.81,386.270355 L488.66,386.270355 L488.66,384.570355 C488.66,384.228267 488.797818,383.900607 489.042518,383.661554 C489.287217,383.422501 489.618008,383.292274 489.96,383.300355 Z" id="Path" fill="#363D49" fill-rule="nonzero" transform="translate(497.955000, 384.785177) rotate(180.000000) translate(-497.955000, -384.785177) "></path>
            <path d="M500.44,290.49 L494.72,270.95" id="Path" stroke="#363D49" stroke-width="2" stroke-linecap="round" stroke-linejoin="round"></path>
            <path d="M305.54,56.57 L430.79,56.57" id="Path" stroke="#C2EAD8" stroke-width="2"></path>
            <path d="M388.08,20.99 L367.22,56.66" id="Path" stroke="#C2EAD8" stroke-width="2"></path>
            <path d="M240.16,385.77 L117.16,385.77 C116.809916,385.763982 116.488477,385.575302 116.312562,385.272565 C116.136648,384.969829 116.131883,384.597135 116.3,384.29 L325.8,21.48 C325.980064,21.1763005 326.306933,20.99 326.66,20.99 L449.66,20.99 C450.010084,20.996018 450.331523,21.1846984 450.507438,21.4874349 C450.683352,21.7901715 450.688117,22.1628649 450.52,22.47 L241,385.28 C240.82362,385.577649 240.505913,385.762978 240.16,385.77 Z" id="Path" stroke="#A6AFBC" stroke-width="2"></path>
            <path d="M277.43,385.77 L218.92,385.77 C218.209412,385.76219 217.556333,385.377907 217.204427,384.760527 C216.85252,384.143147 216.854642,383.3854 217.21,382.77 L236,350.19 C236.353299,349.577969 237.003359,349.197816 237.71,349.19 L296.23,349.19 C296.940588,349.19781 297.593667,349.582093 297.945573,350.199473 C298.29748,350.816853 298.295358,351.5746 297.94,352.19 L279.11,384.8 C278.754792,385.391459 278.119822,385.758078 277.43,385.77 L277.43,385.77 Z" id="Path" stroke="#A6AFBC" stroke-width="2" fill="#DADEE3" fill-rule="nonzero"></path>
            <polygon id="Path" fill="#363D49" fill-rule="nonzero" points="69.82 132.31 74.86 138.69 74.73 133.24"></polygon>
            <polygon id="Path" fill="#363D49" fill-rule="nonzero" points="59.7 250.91 64.36 293.16 67.85 269.89"></polygon>
            <path d="M436.93,178.15 C436.88,177.98 437.93,168.05 437.93,168.05 L434,171.92 L436.93,178.15 Z" id="Path" fill="#363D49" fill-rule="nonzero"></path>
            <polygon id="Path" fill="#363D49" fill-rule="nonzero" points="46.97 354.51 47.14 359.05 54.8 357.68 55.16 354.51"></polygon>
            <polygon id="Path" fill="#363D49" fill-rule="nonzero" points="84.92 354.51 85.08 359.05 92.74 357.68 93.1 354.51"></polygon>
            <polygon id="Path" fill="#363D49" fill-rule="nonzero" points="463.59 245.26 475.24 234.18 467.66 251.5"></polygon>
            <rect id="Rectangle" x="0" y="0" width="560" height="400"></rect>
        </g>
    </g>
</svg>