<?xml version="1.0" encoding="UTF-8"?>
<svg width="560px" height="400px" viewBox="0 0 560 400" version="1.1" xmlns="http://www.w3.org/2000/svg" xmlns:xlink="http://www.w3.org/1999/xlink">
    <!-- Generator: Sketch 58 (84663) - https://sketch.com -->
    <title>Tablet</title>
    <desc>Created with Sketch.</desc>
    <g id="Tablet" stroke="none" stroke-width="1" fill="none" fill-rule="evenodd">
        <g id="Orders">
            <rect id="Rectangle" x="0" y="0" width="560" height="400"></rect>
            <rect id="Rectangle" opacity="0" x="0" y="0" width="560" height="400"></rect>
            <rect id="Rectangle" fill="#DBDFE4" fill-rule="nonzero" opacity="0.5" x="56.56" y="25.29" width="477.79" height="312.08" rx="3.91"></rect>
            <rect id="Rectangle" stroke="#DBDFE4" stroke-width="2" x="177.41" y="239.08" width="91.63" height="61.08" rx="1.91"></rect>
            <rect id="Rectangle" fill="#FFFFFF" fill-rule="nonzero" x="41.56" y="8.11" width="477.22" height="314.96" rx="3.82"></rect>
            <path d="M41.56,198 L518.78,198 L518.78,319.13 C518.78,321.306002 517.016002,323.07 514.84,323.07 L41.56,323.07 L41.56,198 Z" id="Path" fill="#DADEE3" fill-rule="nonzero" opacity="0.3"></path>
            <rect id="Rectangle" fill="#DBDFE4" fill-rule="nonzero" opacity="0.3" transform="translate(348.608833, 260.550752) rotate(135.000000) translate(-348.608833, -260.550752) " x="335.723833" y="247.665752" width="25.77" height="25.77"></rect>
            <path d="M518.78,33.88 L199.11,34.17 C198.054568,34.1701224 197.043212,33.7467903 196.30257,32.9948689 C195.561927,32.2429475 195.153927,31.2253098 195.17,30.17 L195.28,20.42 C195.298818,19.3638876 194.89171,18.3446596 194.150473,17.5921342 C193.409235,16.8396088 192.396276,16.4171446 191.34,16.42 L104.69,16.42 C102.513998,16.42 100.75,18.1839981 100.75,20.36 L100.75,30.24 C100.755566,32.4082379 99.0081822,34.1734977 96.84,34.19 L41.8999872,34.63 L41.8999872,12 C41.8999872,10.9542325 42.3115859,9.95052928 43.0510576,9.21105759 C43.7905293,8.47158591 44.7942325,8.05733561 45.84,8.05998723 L518.78,8.05998723 L518.78,33.88 Z" id="Path" fill="#DADEE3" fill-rule="nonzero" opacity="0.3"></path>
            <path d="M202.32,33.88 L518.78,33.88" id="Path" stroke="#DADEE3" stroke-width="2"></path>
            <path d="M41.56,33.88 L94.11,33.88" id="Path" stroke="#DADEE3" stroke-width="2"></path>
            <path d="M108.84,16.7 L191.41,16.7" id="Path" stroke="#DADEE3" stroke-width="2"></path>
            <path d="M204.66,33.88 L198.92,33.88 C196.810272,33.88 195.1,32.1697277 195.1,30.06 L195.1,20.51 C195.094487,18.4041786 193.385829,16.7 191.28,16.7 L183.89,16.7" id="Path" stroke="#DADEE3" stroke-width="2"></path>
            <path d="M91.3,33.88 L97,33.88 C99.1097277,33.88 100.82,32.1697277 100.82,30.06 L100.82,20.51 C100.825513,18.4041786 102.534171,16.7 104.64,16.7 L112.04,16.7" id="Path" stroke="#DADEE3" stroke-width="2"></path>
            <path d="M199,16.7 L285.9,16.7 C288.009728,16.7 289.72,18.4102723 289.72,20.52 L289.72,33.88 L199,33.88 C196.890272,33.88 195.18,32.1697277 195.18,30.06 L195.18,20.51 C195.185513,18.4041786 196.894171,16.7 199,16.7 L199,16.7 Z" id="Path" stroke="#DADEE3" stroke-width="2"></path>
            <circle id="Oval" fill="#DADEE3" fill-rule="nonzero" cx="56.56" cy="21.49" r="3.82"></circle>
            <circle id="Oval" fill="#DADEE3" fill-rule="nonzero" cx="70.84" cy="21.49" r="3.82"></circle>
            <circle id="Oval" fill="#DADEE3" fill-rule="nonzero" cx="85.13" cy="21.49" r="3.82"></circle>
            <path d="M299.26,22.53 L308.05,22.53" id="Path" stroke="#DADEE3" stroke-width="2" stroke-linecap="round" stroke-linejoin="round"></path>
            <path d="M303.66,26.92 L303.66,18.13" id="Path" stroke="#DADEE3" stroke-width="2" stroke-linecap="round" stroke-linejoin="round"></path>
            <rect id="Rectangle" stroke="#C2EAD8" stroke-width="2" fill="#F3FBF7" fill-rule="nonzero" x="270.63" y="63.46" width="167.98" height="104.99" rx="1.91"></rect>
            <circle id="Oval" stroke="#0A9557" stroke-width="2" fill="#0FB167" fill-rule="nonzero" cx="461.51" cy="69.19" r="4.77"></circle>
            <circle id="Oval" stroke="#DADEE3" stroke-width="2" fill="#F5F6F7" fill-rule="nonzero" cx="461.51" cy="116.91" r="4.77"></circle>
            <circle id="Oval" stroke="#DADEE3" stroke-width="2" fill="#F5F6F7" fill-rule="nonzero" cx="461.51" cy="140.77" r="4.77"></circle>
            <circle id="Oval" stroke="#DADEE3" stroke-width="2" fill="#F5F6F7" fill-rule="nonzero" cx="461.51" cy="93.05" r="4.77"></circle>
            <rect id="Rectangle" stroke="#C2EAD8" stroke-width="1.99699775" fill="#F3FBF7" fill-rule="nonzero" transform="translate(222.225100, 254.227800) rotate(-7.480886) translate(-222.225100, -254.227800) " x="195.540218" y="227.542918" width="53.3697648" height="53.3697648" rx="1.91"></rect>
            <rect id="Rectangle" stroke="#F3FBF7" stroke-width="2" fill="#0FB167" fill-rule="nonzero" transform="translate(249.605773, 253.411802) rotate(17.130000) translate(-249.605773, -253.411802) " x="222.880773" y="226.686802" width="53.45" height="53.45" rx="1.91"></rect>
            <path d="M276.35,292.53 L273.18,306.27 C272.96513,307.159023 272.174555,307.789013 271.26,307.8 L196.18,307.8" id="Path" stroke="#0A9557" stroke-width="2" stroke-linecap="round" stroke-linejoin="round"></path>
            <rect id="Rectangle" fill="#DADEE3" fill-rule="nonzero" opacity="0.3" x="75.8" y="221.15" width="78.81" height="78.81" rx="2.01"></rect>
            <circle id="Oval" fill="#FFFFFF" fill-rule="nonzero" opacity="0.5" cx="115.21" cy="260.56" r="16.37"></circle>
            <rect id="Rectangle" stroke="#DBDFE4" stroke-width="2" x="309.2" y="221.15" width="78.81" height="78.81" rx="2.01"></rect>
            <path d="M376.430097,139.29 L376.430097,110.15 C376.431424,109.791315 376.240634,109.459341 375.93,109.28 L350.69,94.71 C350.380599,94.5313672 349.999401,94.5313672 349.69,94.71 L324.46,109.28 C324.145513,109.456774 323.950622,109.789236 323.949966,110.15 L323.949966,139.29 C323.946991,139.654339 324.14238,139.99148 324.46,140.17 L349.69,154.74 C349.999401,154.918633 350.380599,154.918633 350.69,154.74 L375.93,140.17 C376.243767,139.988894 376.435043,139.652248 376.430097,139.29 Z" id="Path" stroke="#C2EAD8" stroke-width="2" stroke-linecap="round" stroke-linejoin="round"></path>
            <path d="M350.170034,124.06 L350.170034,94.92 C350.173009,94.5556611 349.97762,94.2185197 349.66,94.04 L324.43,79.47 C324.120599,79.2913672 323.739401,79.2913672 323.43,79.47 L298.18,94 C297.866233,94.1811065 297.674957,94.517752 297.679903,94.88 L297.679903,124.02 C297.678576,124.378685 297.869366,124.710659 298.18,124.89 L323.42,139.46 C323.729401,139.638633 324.110599,139.638633 324.42,139.46 L349.65,124.89 C349.956232,124.722964 350.153293,124.408425 350.170034,124.06 Z" id="Path" stroke="#C2EAD8" stroke-width="2" stroke-linecap="round" stroke-linejoin="round"></path>
            <path d="M414.81,131.23 L414.81,102.6 C414.807857,102.244889 414.617545,101.917552 414.31,101.74 L389.52,87.42 C389.210599,87.2413672 388.829401,87.2413672 388.52,87.42 L363.73,101.74 C363.422455,101.917552 363.232143,102.244889 363.23,102.6 L363.23,131.23 C363.232143,131.585111 363.422455,131.912448 363.73,132.09 L388.52,146.4 C388.829401,146.578633 389.210599,146.578633 389.52,146.4 L414.31,132.09 C414.617545,131.912448 414.807857,131.585111 414.81,131.23 Z" id="Path" stroke="#C2EAD8" stroke-width="2" stroke-linecap="round" stroke-linejoin="round"></path>
            <path d="M376.41,139.41 C376.379292,139.725021 376.201259,140.006906 375.93,140.17 L350.69,154.74 C350.380599,154.918633 349.999401,154.918633 349.69,154.74 L324.46,140.17 C324.246182,140.052291 324.087902,139.854441 324.02,139.62 C324.167927,139.616368 324.312483,139.575066 324.44,139.5 L349.68,124.93 C349.993767,124.748894 350.185043,124.412248 350.18,124.05 L350.18,94.92 C350.181833,94.8029093 350.157937,94.686844 350.11,94.58 C350.315366,94.5614678 350.52144,94.6068739 350.7,94.71 L363.42,102.05 C363.3,102.2 376.42,109.26 376.42,109.26 L376.41,139.41 Z" id="Path" stroke="#4AC48D" stroke-width="2" fill="#E6F7EF" fill-rule="nonzero" stroke-linecap="round" stroke-linejoin="round"></path>
            <path d="M350.1,94.58 C349.951406,94.5879454 349.8071,94.6326115 349.68,94.71 L324.45,109.28 C324.135513,109.456774 323.940622,109.789236 323.94,110.15 L323.94,139.29 C323.938982,139.403789 323.962874,139.516423 324.01,139.62 C323.802374,139.643674 323.592549,139.601709 323.41,139.5 L298.19,124.93 C297.86852,124.754103 297.669,124.416454 297.669996,124.05 L297.669996,94.92 C297.669,94.5535461 297.86852,94.2158972 298.19,94.04 L323.41,79.47 C323.719401,79.2913672 324.100599,79.2913672 324.41,79.47 L349.669996,94 C349.880562,94.1330373 350.033898,94.3398633 350.1,94.58 Z" id="Path" stroke="#4AC48D" stroke-width="2" fill="#E6F7EF" fill-rule="nonzero" stroke-linecap="round" stroke-linejoin="round"></path>
            <path d="M414.8,102.6 L414.8,131.23 C414.796433,131.579495 414.610653,131.901767 414.31,132.08 L389.52,146.4 C389.210599,146.578633 388.829401,146.578633 388.52,146.4 L376.41,139.4 C376.419742,139.360593 376.419742,139.319407 376.41,139.28 L376.41,110.15 C376.411424,109.791315 376.220634,109.459341 375.91,109.28 L363.39,102.05 C363.467951,101.920643 363.578234,101.813806 363.71,101.74 L388.5,87.43 C388.809401,87.2513672 389.190599,87.2513672 389.5,87.43 L414.29,101.74 C414.601396,101.915005 414.795799,102.242821 414.8,102.6 Z" id="Path" stroke="#4AC48D" stroke-width="2" fill="#E6F7EF" fill-rule="nonzero" stroke-linecap="round" stroke-linejoin="round"></path>
            <path d="M315.49,223.81 C315.49,223.81 303.68,226.73 302.21,226.05 C300.74,225.37 301.78,223.17 305,222 C307.15,221.23 314.86,219.33 314.86,219.33" id="Path" stroke="#363D49" stroke-width="2" fill="#FFFFFF" fill-rule="nonzero"></path>
            <path d="M359.39,134.09 C355.415057,132.258272 353.3846,127.788712 354.62,123.59 C355.57,121.68 354.62,124.59 364.12,125.1 C375.68,125.77 376.91,123.28 380.39,127.41 C384.97,132.87 382.3,153.18 382.3,153.18 L371.8,153.18 L369.89,140.77 L359.39,134.09 Z" id="Path" stroke="#363D49" stroke-width="2" fill="#363D49" fill-rule="nonzero"></path>
            <circle id="Oval" stroke="#0A9557" stroke-width="2" fill="#E6F7EF" fill-rule="nonzero" cx="302.12" cy="224.76" r="4.77"></circle>
            <path d="M297.35,226.67 L290.93,229.78 C290.400972,230.039235 290.013148,230.518527 289.87,231.09 L286.87,243.85" id="Path" stroke="#0A9557" stroke-width="2"></path>
            <path d="M187.59,393.45 L101.68,393.45" id="Path" stroke="#DADEE3" stroke-width="2" stroke-linecap="round"></path>
            <path d="M357.02,393.21 L260.61,393.21" id="Path" stroke="#DADEE3" stroke-width="2" stroke-linecap="round"></path>
            <path d="M550.79,393.21 L409.2,393.21" id="Path" stroke="#DADEE3" stroke-width="2" stroke-linecap="round"></path>
            <path d="M359.39,134.09 L359.39,142.68 C359.39,143.68 356.53,147.4 356.53,148.36 C356.53,149.32 359.39,149.36 359.39,149.36 L359.39,155.13 C359.51503,156.647806 360.730583,157.846359 362.25,157.95 C364.16,157.95 366.86,156.18 366.86,156.18 L365.12,167.5 L371.12,170.9 L380.53,169.57 L382.31,164.63 L382.31,153.18 C382.31,153.18 376.31,151.3 374.37,150.54 C373.44,150.17 371.81,149.36 371.81,147.45 L371.81,143.64 C371.81,143.64 375.81,139.7 374.37,137.64 C372.66,135.13 369.9,138.87 369.9,138.87 L359.39,134.09 Z" id="Path" stroke="#363D49" stroke-width="2" fill="#FFFFFF" fill-rule="nonzero" stroke-linecap="round" stroke-linejoin="round"></path>
            <path d="M364.74,157.31 L369.97,154.54" id="Path" stroke="#363D49" stroke-width="2" fill="#FFFFFF" fill-rule="nonzero" stroke-linecap="round" stroke-linejoin="round"></path>
            <path d="M276.35,292.53 L197.72,292.53 C196.820798,292.53 196.044573,291.900055 195.86,291.02 L185.93,245.02 C185.884176,244.740192 185.959286,244.454085 186.136641,244.232868 C186.313997,244.01165 186.576923,243.87612 186.86,243.86 L286.86,243.86 L276.35,292.53 Z" id="Path" stroke="#0A9557" stroke-width="2" fill="#E6F7EF" fill-rule="nonzero"></path>
            <path d="M197.17,257.18 L274.92,257.18" id="Path" stroke="#C2EAD8" stroke-width="2" stroke-linecap="round" stroke-linejoin="round"></path>
            <path d="M199.14,268.55 L272.95,268.55" id="Path" stroke="#C2EAD8" stroke-width="2" stroke-linecap="round" stroke-linejoin="round"></path>
            <path d="M202.09,280.04 L270,280.04" id="Path" stroke="#C2EAD8" stroke-width="2" stroke-linecap="round" stroke-linejoin="round"></path>
            <path d="M203.85,251.49 L210.53,285.44" id="Path" stroke="#C2EAD8" stroke-width="2" stroke-linecap="round" stroke-linejoin="round"></path>
            <path d="M217.21,251.49 L223.89,285.44" id="Path" stroke="#C2EAD8" stroke-width="2" stroke-linecap="round" stroke-linejoin="round"></path>
            <path d="M230.57,251.49 L237.25,285.44" id="Path" stroke="#C2EAD8" stroke-width="2" stroke-linecap="round" stroke-linejoin="round"></path>
            <path d="M243.93,251.49 L250.61,285.44" id="Path" stroke="#C2EAD8" stroke-width="2" stroke-linecap="round" stroke-linejoin="round"></path>
            <path d="M257.3,251.49 L263.98,285.44" id="Path" stroke="#C2EAD8" stroke-width="2" stroke-linecap="round" stroke-linejoin="round"></path>
            <path d="M379.9,391.31 L395.26,391.31 C396.027676,391.31 396.65,391.932324 396.65,392.7 L396.65,392.78 C396.65,393.547676 396.027676,394.17 395.26,394.17 L378.67,394.17 L378.67,392.53 C378.675491,391.854598 379.224576,391.31 379.9,391.31 Z" id="Path" fill="#363D49" fill-rule="nonzero" transform="translate(387.660000, 392.740000) rotate(180.000000) translate(-387.660000, -392.740000) "></path>
            <path d="M345.44,391.31 L360.8,391.31 C361.567676,391.31 362.19,391.932324 362.19,392.7 L362.19,392.78 C362.19,393.547676 361.567676,394.17 360.8,394.17 L344.22,394.17 L344.22,392.53 C344.225438,391.858478 344.768478,391.315438 345.44,391.31 L345.44,391.31 Z" id="Path" fill="#363D49" fill-rule="nonzero" transform="translate(353.205000, 392.740000) rotate(-180.000000) translate(-353.205000, -392.740000) "></path>
            <path d="M375.93,109.28 L389.51,116.9" id="Path" stroke="#4AC48D" stroke-width="2" fill="#E6F7EF" fill-rule="nonzero" stroke-linecap="round" stroke-linejoin="round"></path>
            <path d="M297.68,94.58 L323.94,110.15" id="Path" stroke="#4AC48D" stroke-width="2" fill="#E6F7EF" fill-rule="nonzero" stroke-linecap="round" stroke-linejoin="round"></path>
            <path d="M389,87.62 L389,116.23 C389,116.583067 389.186301,116.909936 389.49,117.09 L414.27,131.4 C414.399498,131.468939 414.543334,131.50661 414.69,131.51 C414.729958,131.408059 414.750315,131.299492 414.750004,131.19 L414.750004,102.59 C414.747857,102.234889 414.557545,101.907552 414.25,101.73 L389.5,87.42 C389.376551,87.3426386 389.235472,87.2979063 389.09,87.29 C389.035953,87.3919862 389.005214,87.5046959 389,87.62 Z" id="Path" stroke="#0A9557" stroke-width="2" fill="#0FB167" fill-rule="nonzero" stroke-linecap="round" stroke-linejoin="round"></path>
            <path d="M350.170098,94.92 L350.170098,124.05 C350.175043,124.412248 349.983767,124.748894 349.67,124.93 L324.43,139.5 C324.302483,139.575066 324.157927,139.616368 324.01,139.62 C323.962874,139.516423 323.938982,139.403789 323.939969,139.29 L323.939969,110.15 C323.940622,109.789236 324.135513,109.456774 324.45,109.28 L349.68,94.71 C349.8071,94.6326115 349.951406,94.5879454 350.1,94.58 C350.147937,94.686844 350.171833,94.8029093 350.170098,94.92 L350.170098,94.92 Z" id="Path" stroke="#0A9557" stroke-width="2" fill="#0FB167" fill-rule="nonzero" stroke-linecap="round" stroke-linejoin="round"></path>
            <polygon id="Path" fill="#363D49" fill-rule="nonzero" points="370.67 154.77 365.81 165.97 367.26 156.46"></polygon>
            <polygon id="Path" fill="#363D49" fill-rule="nonzero" points="354.83 218.85 355.29 225.16 366.56 216.55"></polygon>
            <rect id="Rectangle" fill="#DADEE3" fill-rule="nonzero" opacity="0.5" x="90.68" y="63.46" width="48.84" height="48.84" rx="1.97"></rect>
            <rect id="Rectangle" fill="#DADEE3" fill-rule="nonzero" opacity="0.25" x="146.66" y="63.46" width="48.84" height="48.84" rx="1.97"></rect>
            <rect id="Rectangle" fill="#DADEE3" fill-rule="nonzero" opacity="0.5" x="202.3" y="63.46" width="48.84" height="48.84" rx="1.97"></rect>
            <rect id="Rectangle" fill="#DADEE3" fill-rule="nonzero" opacity="0.25" x="90.68" y="119.61" width="48.84" height="48.84" rx="1.97"></rect>
            <rect id="Rectangle" fill="#DADEE3" fill-rule="nonzero" opacity="0.5" x="146.66" y="119.61" width="48.84" height="48.84" rx="1.97"></rect>
            <rect id="Rectangle" fill="#DADEE3" fill-rule="nonzero" opacity="0.25" x="202.3" y="119.61" width="48.84" height="48.84" rx="1.97"></rect>
            <path d="M157.68,143.16 C157.68,143.16 150.46,157.9 146.68,167.21 C145.24,170.74 145.05,174.5 146.2,176.53 C152.77,188.1 158.6,198.04 158.6,198.04 L168.42,198.04 C168.42,198.04 162.71,184.43 158.83,174.86 C159.94,171.49 165.37,158.67 165.37,158.67 L169.4,198 L208,198 L212.1,158.14 C212.1,158.14 225.04,162.74 232.39,164.91 C237.09,166.3 239.04,167.35 241.82,165.21 C251.39,157.84 277.33,135.96 277.33,135.96 L272.56,130.23 C272.56,130.23 253.15,143.5 244.42,149.4 C241.19,151.57 239.48,151.26 236.98,150.1 C228.8,146.26 216.24,139.78 216.24,139.78 L197.19,130.23 L173.63,131.16 L158,143.71" id="Path" stroke="#363D49" stroke-width="2" fill="#FFFFFF" fill-rule="nonzero" stroke-linecap="round" stroke-linejoin="round"></path>
            <path d="M273.24,131.47 C273.24,131.47 282.13,124.2 283.74,124.2 C285.35,124.2 285.36,126.63 282.93,129.05 C281.32,130.66 276,135 276,135" id="Path" stroke="#363D49" stroke-width="2"></path>
            <path d="M184.27,88.94 C178.48,89.42 173.2,93.16 171.27,97.94 C169.34,102.72 170.52,105.59 168.61,108.45 C166.7,111.31 162.68,112.7 162.68,120.85 C162.592146,124.41151 161.306241,127.839416 159.03,130.58 C154.47,135.79 156.33,141.58 157.93,144.71 C167.05,142.97 168.27,150.71 175.02,149.38 C177.59,148.88 182.91,144.53 182.91,144.53 C182.91,144.53 180.15,136.4 180.15,133.53 C180.15,130.66 185.15,122.4 185.15,122.4 C185.15,122.4 192.3,130.52 192.3,133.4 C192.175162,136.153643 191.894715,138.898023 191.46,141.62 C191.46,141.62 197.73,146.13 205.36,145.18 C212.99,144.23 215.04,141.26 216.09,138.04 C211.32,134.04 209.59,130.5 209.59,122.14 C209.645126,116.317598 207.61631,110.667417 203.87,106.21 C199.38,101.07 199.87,96.43 195.44,92.39 C192.36,89.52 186.7,88.74 184.27,88.94 Z" id="Path" stroke="#363D49" stroke-width="2" fill="#363D49" fill-rule="nonzero" stroke-linecap="round" stroke-linejoin="round"></path>
            <path d="M181.72,121.64 C181.02,125.23 180.17,132.06 180.17,132.06 C181.369229,133.940279 183.449882,135.073121 185.68,135.060113 C188.121068,134.975497 190.4673,134.093904 192.36,132.55 L191.26,121.84" id="Path" stroke="#363D49" stroke-width="2" fill="#FFFFFF" fill-rule="nonzero" stroke-linecap="round" stroke-linejoin="round"></path>
            <path d="M41.56,198.04 L518.78,198.04" id="Path" stroke="#DADEE3" stroke-width="2"></path>
            <polyline id="Path" stroke="#363D49" stroke-width="2" fill="#FFFFFF" fill-rule="nonzero" stroke-linecap="round" stroke-linejoin="round" points="326.57 213.74 342.77 200.9 354.62 181.81 359.12 206.63 331.86 214.88 326.57 213.74"></polyline>
            <path d="M365.23,167 C362.926011,168.240069 360.76049,169.72174 358.77,171.42 C354.27,175.34 352.19,183.7 352.64,189.36 C353.03,194.12 356.53,242.16 356.53,242.16 L391.84,242.16 C391.84,242.16 396.66,189.61 396.66,184.84 C396.66,180.07 395.66,174.53 391.84,170.58 C389.97,168.63 382.3,163.9 382.3,163.9 C379.862791,165.969883 376.880224,167.292768 373.71,167.71 C368,168.62 365.23,167 365.23,167 Z" id="Path" stroke="#363D49" stroke-width="2" fill="#FFFFFF" fill-rule="nonzero" stroke-linecap="round"></path>
            <path d="M368,176.09 C368,176.09 357.5,199.95 354.64,202.81 C351.78,205.67 313.64,218.08 313.64,218.08 L315.55,225.72 C315.55,225.72 348.33,220.06 360.43,217.85 C362.18,217.53 366.07,216.78 368.08,213.74 C373.84,205.06 384.26,185.63 384.26,185.63" id="Path" stroke="#363D49" stroke-width="2" fill="#FFFFFF" fill-rule="nonzero" stroke-linecap="round"></path>
            <rect id="Rectangle" stroke="#A6AFBC" stroke-width="2" x="41.56" y="8.11" width="477.22" height="314.96" rx="3.82"></rect>
            <path d="M389,310.66 L391.29,257 L391.84,242 L356.53,242 C356.53,242 345.07,294.5 344.12,298.32 C342.692653,304.886786 342.354813,311.643588 343.12,318.32 C344.12,326.91 353.68,392.83 353.68,392.83 L361.26,392.83 C361.26,392.83 360.32,318.32 360.26,316.41 C360.26,308.48 365.44,299 369.89,291.86 C369.89,291.86 370.76,307.86 371.24,313.55 C371.72,319.24 388,392.83 388,392.83 L395.58,392.83 L389,310.66 Z" id="Path" stroke="#363D49" stroke-width="2" fill="#363D49" fill-rule="nonzero" stroke-linecap="round" stroke-linejoin="round"></path>
            <path d="M366.67,301.83 C369.78,294.83 375.24,288.36 379.75,279.93 C382.46,274.88 387.29,264.82 389.02,258.87" id="Path" stroke="#FFFFFF" stroke-width="2" stroke-linecap="round" stroke-linejoin="round"></path>
            <path d="M194.42,356.3 L279.05,356.3" id="Path" stroke="#4AC48D" stroke-width="2"></path>
            <path d="M191.41,368.88 L282.08,368.88" id="Path" stroke="#86D7B3" stroke-width="2"></path>
            <polyline id="Path" stroke="#0A9557" stroke-width="2" points="189.53 378.19 206.68 307.8 266.81 307.8 283.91 378.01"></polyline>
            <circle id="Oval" stroke="#0A9557" stroke-width="2" fill="#E6F7EF" fill-rule="nonzero" cx="187.59" cy="385.57" r="7.64"></circle>
            <circle id="Oval" fill="#C2EAD8" fill-rule="nonzero" cx="187.59" cy="385.57" r="2.86"></circle>
            <circle id="Oval" stroke="#0A9557" stroke-width="2" fill="#E6F7EF" fill-rule="nonzero" cx="284.94" cy="385.57" r="7.64"></circle>
            <circle id="Oval" fill="#C2EAD8" fill-rule="nonzero" cx="284.94" cy="385.57" r="2.86"></circle>
            <rect id="Rectangle" fill="#DADEE3" fill-rule="nonzero" opacity="0.3" x="406.84" y="221.15" width="78.81" height="78.81" rx="2.01"></rect>
            <polygon id="Path" fill="#FFFFFF" fill-rule="nonzero" opacity="0.5" points="462.47 269.92 462.47 251.19 446.24 241.82 430.02 251.19 430.02 269.92 446.24 279.29"></polygon>
            <polygon id="Path" fill="#363D49" fill-rule="nonzero" points="354.85 219.1 355.15 223.26 365.14 217.15"></polygon>
            <path d="M188.94,100.44 C183.94,104.57 179.87,105.44 178.89,106.38 C177.91,107.32 177.96,111.46 178.54,114.31 C179.12,117.16 181.16,122.86 186.98,123.31 C193.89,123.89 194.33,112.91 193.84,108.99 C193.59,107 192,97.92 188.94,100.44 Z" id="Path" stroke="#363D49" stroke-width="2" fill="#FFFFFF" fill-rule="nonzero" stroke-linecap="round" stroke-linejoin="round"></path>
        </g>
    </g>
</svg>