<?xml version="1.0" encoding="UTF-8"?>
<svg width="560px" height="400px" viewBox="0 0 560 400" version="1.1" xmlns="http://www.w3.org/2000/svg" xmlns:xlink="http://www.w3.org/1999/xlink">
    <!-- Generator: Sketch 58 (84663) - https://sketch.com -->
    <title>Tablet</title>
    <desc>Created with Sketch.</desc>
    <g id="Tablet" stroke="none" stroke-width="1" fill="none" fill-rule="evenodd">
        <g id="Items">
            <rect id="Rectangle" x="0" y="0" width="560" height="400"></rect>
            <rect id="Rectangle" x="0" y="0" width="560" height="400"></rect>
            <rect id="Rectangle" fill="#DBDFE4" fill-rule="nonzero" opacity="0.5" x="57.52" y="20.3" width="474" height="330" rx="4"></rect>
            <rect id="Rectangle" fill="#FFFFFF" fill-rule="nonzero" x="43.52" y="7.3" width="474" height="330" rx="4"></rect>
            <circle id="Oval" fill="#DADEE3" fill-rule="nonzero" cx="58.52" cy="21.3" r="4"></circle>
            <circle id="Oval" fill="#DADEE3" fill-rule="nonzero" cx="74.52" cy="21.3" r="4"></circle>
            <circle id="Oval" fill="#DADEE3" fill-rule="nonzero" cx="90.52" cy="21.3" r="4"></circle>
            <path d="M212.96,34.3 L517.52,34.3" id="Path" stroke="#DADEE3" stroke-width="2"></path>
            <path d="M44.52,34.3 L99.57,34.3" id="Path" stroke="#DADEE3" stroke-width="2"></path>
            <path d="M115.02,16.3 L201.52,16.3" id="Path" stroke="#DADEE3" stroke-width="2"></path>
            <path d="M215.4,34.3 L209.4,34.3 C207.190861,34.3 205.4,32.509139 205.4,30.3 L205.4,20.3 C205.4,18.090861 203.609139,16.3 201.4,16.3 L193.65,16.3" id="Path" stroke="#DADEE3" stroke-width="2"></path>
            <path d="M96.63,34.3 L102.63,34.3 C104.839139,34.3 106.63,32.509139 106.63,30.3 L106.63,20.3 C106.63,18.090861 108.420861,16.3 110.63,16.3 L118.38,16.3" id="Path" stroke="#DADEE3" stroke-width="2"></path>
            <path d="M214.52,22.4 L223.74,22.4" id="Path" stroke="#DADEE3" stroke-width="2" stroke-linecap="round" stroke-linejoin="round"></path>
            <path d="M219.13,27.01 L219.13,17.8" id="Path" stroke="#DADEE3" stroke-width="2" stroke-linecap="round" stroke-linejoin="round"></path>
            <rect id="Rectangle" fill="#E6F7EF" fill-rule="nonzero" x="82.02" y="65.23" width="110" height="110" rx="2.29"></rect>
            <path d="M148.22,152.41002 L124.75,152.41002 C123.711665,152.414454 122.817084,151.67947 122.62,150.66 L118,126.85 C117.881093,126.215988 118.050421,125.56194 118.46205,125.065279 C118.87368,124.568619 119.484934,124.280837 120.13,124.28 L152.8,124.28 C153.444565,124.28 154.055353,124.568285 154.465515,125.065509 C154.875676,125.562733 155.042348,126.217153 154.92,126.85 L150.34,150.66 C150.147261,151.677921 149.256001,152.413631 148.22,152.41002 L148.22,152.41002 Z" id="Path" stroke="#C2EAD8" stroke-width="2"></path>
            <path d="M161.85,101.56 C158.1,101.56 150.59,104.38 149.65,115.64 C159,116.57 162.79,106.25 161.85,101.56 Z" id="Path" stroke="#C2EAD8" stroke-width="2" stroke-linecap="round" stroke-linejoin="round"></path>
            <path d="M137.45,101.56 C141.21,101.56 148.71,104.38 149.65,115.64 C140.27,116.57 136.52,106.25 137.45,101.56 Z" id="Path" stroke="#C2EAD8" stroke-width="2" stroke-linecap="round" stroke-linejoin="round"></path>
            <path d="M136.59,101.56 C132.84,101.56 125.33,104.38 124.39,115.64 C133.78,116.57 137.53,106.25 136.59,101.56 Z" id="Path" stroke="#C2EAD8" stroke-width="2" stroke-linecap="round" stroke-linejoin="round"></path>
            <path d="M112.2,101.56 C115.95,101.56 123.46,104.38 124.39,115.64 C115,116.57 111.26,106.25 112.2,101.56 Z" id="Path" stroke="#C2EAD8" stroke-width="2" stroke-linecap="round" stroke-linejoin="round"></path>
            <path d="M151.83,88.05 C146.6,88.67 136.61,93.83 137.16,109.67 C150.39,109.43 153.91,94.43 151.83,88.05 Z" id="Path" stroke="#C2EAD8" stroke-width="2" fill="#E6F7EF" fill-rule="nonzero" stroke-linecap="round" stroke-linejoin="round"></path>
            <path d="M122.22,88.05 C127.44,88.67 137.44,93.83 136.89,109.67 C123.66,109.43 120.13,94.43 122.22,88.05 Z" id="Path" stroke="#C2EAD8" stroke-width="2" fill="#E6F7EF" fill-rule="nonzero" stroke-linecap="round" stroke-linejoin="round"></path>
            <path d="M124.04,115.63 L125.08,124.28" id="Path" stroke="#C2EAD8" stroke-width="2" stroke-linecap="round" stroke-linejoin="round"></path>
            <path d="M150.01,115.63 L148.96,124.28" id="Path" stroke="#C2EAD8" stroke-width="2" stroke-linecap="round" stroke-linejoin="round"></path>
            <path d="M136.91,109.67 L136.91,124.18" id="Path" stroke="#C2EAD8" stroke-width="2" stroke-linecap="round" stroke-linejoin="round"></path>
            <rect id="Rectangle" fill="#DADEE3" fill-rule="nonzero" opacity="0.3" x="82.02" y="195.53" width="110" height="110" rx="2.29"></rect>
            <rect id="Rectangle" fill="#DADEE3" fill-rule="nonzero" opacity="0.3" x="225.52" y="195.53" width="110" height="110" rx="2.29"></rect>
            <path d="M235.4,203.03 L325.64,203.03 C326.954438,203.03 328.02,204.095562 328.02,205.41 L328.02,295.65 C328.02,296.964438 326.954438,298.03 325.64,298.03 L235.4,298.03 C234.085562,298.03 233.02,296.964438 233.02,295.65 L233.02,205.41 C233.02,204.095562 234.085562,203.03 235.4,203.03 Z" id="Rectangle" stroke="#DBDFE4" stroke-width="2" stroke-linecap="round" stroke-linejoin="round" stroke-dasharray="4.04"></path>
            <path d="M91.9,203.03 L182.14,203.03 C183.454438,203.03 184.52,204.095562 184.52,205.41 L184.52,295.65 C184.52,296.964438 183.454438,298.03 182.14,298.03 L91.9,298.03 C90.5855623,298.03 89.52,296.964438 89.52,295.65 L89.52,205.41 C89.52,204.095562 90.5855623,203.03 91.9,203.03 Z" id="Rectangle" stroke="#DBDFE4" stroke-width="2" stroke-linecap="round" stroke-linejoin="round" stroke-dasharray="4.04"></path>
            <polygon id="Path" fill="#DADEE3" fill-rule="nonzero" opacity="0.3" points="517.52 34.3 205.48 34.3 205.7 16.3 106.31 16.3 106.31 34.3 43.52 34.3 43.52 7.3 517.52 7.3"></polygon>
            <rect id="Rectangle" fill="#E6F7EF" fill-rule="nonzero" x="369.02" y="65.23" width="110" height="110" rx="2.29"></rect>
            <rect id="Rectangle" fill="#DADEE3" fill-rule="nonzero" opacity="0.3" x="369.02" y="188.8" width="110" height="110" rx="2.29"></rect>
            <rect id="Rectangle" stroke="#A6AFBC" stroke-width="2" x="43.52" y="7.3" width="474" height="330" rx="4"></rect>
            <path d="M415.02,120.23 L432.02,120.23" id="Path" stroke="#BFE2D1" stroke-width="2" stroke-linecap="round" stroke-linejoin="round"></path>
            <path d="M423.52,128.73 L423.52,111.73" id="Path" stroke="#BFE2D1" stroke-width="2" stroke-linecap="round" stroke-linejoin="round"></path>
            <path d="M272.02,250.53 L289.02,250.53" id="Path" stroke="#DBDFE4" stroke-width="2" stroke-linecap="round" stroke-linejoin="round"></path>
            <path d="M280.52,259.03 L280.52,242.03" id="Path" stroke="#DBDFE4" stroke-width="2" stroke-linecap="round" stroke-linejoin="round"></path>
            <path d="M128.02,250.53 L145.02,250.53" id="Path" stroke="#DBDFE4" stroke-width="2" stroke-linecap="round" stroke-linejoin="round"></path>
            <path d="M136.52,259.03 L136.52,242.03" id="Path" stroke="#DBDFE4" stroke-width="2" stroke-linecap="round" stroke-linejoin="round"></path>
            <path d="M415.02,243.8 L432.02,243.8" id="Path" stroke="#DBDFE4" stroke-width="2" stroke-linecap="round" stroke-linejoin="round"></path>
            <path d="M423.52,252.3 L423.52,235.3" id="Path" stroke="#DBDFE4" stroke-width="2" stroke-linecap="round" stroke-linejoin="round"></path>
            <rect id="Rectangle" stroke="#C2EAD8" stroke-width="2" x="225.52" y="65.23" width="110" height="110" rx="2.29"></rect>
            <path d="M235.4,72.73 L325.64,72.73 C326.954438,72.73 328.02,73.7955623 328.02,75.11 L328.02,165.35 C328.02,166.664438 326.954438,167.73 325.64,167.73 L235.4,167.73 C234.085562,167.73 233.02,166.664438 233.02,165.35 L233.02,75.11 C233.02,73.7955623 234.085562,72.73 235.4,72.73 Z" id="Rectangle" stroke="#C2EAD8" stroke-width="2" stroke-linecap="round" stroke-linejoin="round" stroke-dasharray="4.04"></path>
            <path d="M378.9,72.73 L469.14,72.73 C470.454438,72.73 471.52,73.7955623 471.52,75.11 L471.52,165.35 C471.52,166.664438 470.454438,167.73 469.14,167.73 L378.9,167.73 C377.585562,167.73 376.52,166.664438 376.52,165.35 L376.52,75.11 C376.52,73.7955623 377.585562,72.73 378.9,72.73 Z" id="Rectangle" stroke="#C2EAD8" stroke-width="2" stroke-linecap="round" stroke-linejoin="round" stroke-dasharray="4.04"></path>
            <path d="M378.9,196.3 L469.14,196.3 C470.454438,196.3 471.52,197.365562 471.52,198.68 L471.52,288.92 C471.52,290.234438 470.454438,291.3 469.14,291.3 L378.9,291.3 C377.585562,291.3 376.52,290.234438 376.52,288.92 L376.52,198.68 C376.52,197.365562 377.585562,196.3 378.9,196.3 Z" id="Rectangle" stroke="#DBDFE4" stroke-width="2" stroke-linecap="round" stroke-linejoin="round" stroke-dasharray="4.04"></path>
            <polygon id="Path" stroke="#363D49" stroke-width="2" fill="#FFFFFF" fill-rule="nonzero" stroke-linecap="round" stroke-linejoin="round" points="154.74 234.87 161.07 309.85 166.35 392.46 175.86 392.46 180.08 316.19 181.55 284.2 188.53 313.02 188.53 392.77 199.09 392.77 206.54 309.85 206.19 228.54"></polygon>
            <path d="M266.58,132.65 C266.58,132.65 275.79,123.9 277.58,123.76 C279.37,123.62 279.58,126.3 277.09,129.18 C275.44,131.09 269.04,137.11 269.04,137.11" id="Path" stroke="#075D37" stroke-width="2"></path>
            <path d="M168.57,137.55 C168.57,137.55 161.36,125.67 160.03,123.68 C157.9,120.48 156.83,110.88 165.37,106.61 C173.91,102.34 183.5,103.41 183.5,103.41 C183.5,103.41 185.5,103.96 182.88,110.62 C180.26,117.28 178.23,129.07 178.23,129.07 L168.57,137.55 Z" id="Path" stroke="#363D49" stroke-width="2" fill="#363D49" fill-rule="nonzero"></path>
            <polyline id="Path" stroke="#363D49" stroke-width="2" fill="#FFFFFF" fill-rule="nonzero" stroke-linecap="round" stroke-linejoin="round" points="357.68 301.94 358.17 314.08 367.66 392.19 373.31 392.19 369.17 313.84 369.9 304.75"></polyline>
            <polyline id="Path" stroke="#363D49" stroke-width="2" fill="#FFFFFF" fill-rule="nonzero" stroke-linecap="round" stroke-linejoin="round" points="382.04 307.49 381.86 314.08 391.44 392.19 398.12 392.19 392.95 313.84 392.95 308.52"></polyline>
            <path d="M390.49,150 C390.49,150 388.81,151.39 384.68,151.39 C380.55,151.39 380.54,148.76 380.54,147.25 L380.54,143.82 C380.54,143.82 377.44,143.82 377.44,142.82 C377.44,141.82 379.28,138.34 379.51,136.94 L379.51,130.74 C379.51,130.74 381.6,128.97 388.69,130.74 C391.013372,131.264155 393.181426,132.32592 395.02,133.84 C395.02,133.84 400.19,141.31 399.15,148.32 L399.15,159.09 L396.05,165.89 L388.81,165.89 L383.64,161.76 L385.71,151.42" id="Path" stroke="#363D49" stroke-width="2" fill="#FFFFFF" fill-rule="nonzero" stroke-linecap="round" stroke-linejoin="round"></path>
            <polygon id="Path" stroke="#075D37" stroke-width="2" points="358.52 182.16 356.22 188.6 367.1 188.6 367.1 186.09"></polygon>
            <path d="M291.27,154.41 L269.77,154.41 C268.94737,154.407534 268.231085,153.847679 268.03,153.05 L259.92,120.63 C259.787782,120.092557 259.910165,119.524167 260.25185,119.088761 C260.593536,118.653356 261.116532,118.399349 261.67,118.399993 L299.38,118.399993 C299.933129,118.398479 300.455891,118.652762 300.796157,119.08885 C301.136424,119.524938 301.255967,120.093841 301.12,120.63 L293,153.05 C292.799848,153.844091 292.088897,154.402989 291.27,154.41 L291.27,154.41 Z" id="Path" stroke="#0A9557" stroke-width="2" fill="#0FB167" fill-rule="nonzero"></path>
            <path d="M168.68,393.11 L7.01,393.11" id="Path" stroke="#DADEE3" stroke-width="2" stroke-linecap="round"></path>
            <path d="M371.6,393.11 L307.3,393.11" id="Path" stroke="#DADEE3" stroke-width="2" stroke-linecap="round"></path>
            <path d="M552.12,393.11 L413.43,393.11" id="Path" stroke="#DADEE3" stroke-width="2" stroke-linecap="round"></path>
            <path d="M185.63,148.21 L168.57,148.21 L168.57,136.48 C168.57,136.48 172.83,129.01 172.83,127.95 C172.83,126.89 168.57,124.75 168.57,121.55 C168.453257,120.232516 169.213108,118.994026 170.440518,118.50122 C171.667928,118.008414 173.073255,118.377583 173.9,119.41 C176.48,122.15 183.42,109.13 183.42,109.13 L186.7,117.86 L190.33,122.86 C190.494741,123.079083 190.562328,123.356187 190.516958,123.626517 C190.471588,123.896848 190.317238,124.136703 190.09,124.29 L187.77,125.83 C187.77,125.83 188.83,134.37 188.83,135.43 C188.83,136.49 182.43,136.5 182.43,136.5 L185.63,148.21 Z" id="Path" stroke="#363D49" stroke-width="2" fill="#FFFFFF" fill-rule="nonzero" stroke-linecap="round" stroke-linejoin="round"></path>
            <path d="M184.22,136.44 C182.334275,136.45008 180.450011,136.333149 178.58,136.09" id="Path" stroke="#363D49" stroke-width="2" fill="#FFFFFF" fill-rule="nonzero" stroke-linecap="round" stroke-linejoin="round"></path>
            <path d="M266.52,134 C266.52,134 274.98,125.89 276.9,125.75 C278.82,125.61 279.04,128.52 276.37,131.64 C274.58,133.72 270.06,138.12 270.06,138.12" id="Path" stroke="#363D49" stroke-width="2" fill="#F5F6F7" fill-rule="nonzero"></path>
            <path d="M182.62,394.43 L166.62,394.43 C166.278783,394.43001 165.951685,394.293782 165.711349,394.051568 C165.471013,393.809354 165.337334,393.481206 165.339961,393.14 L165.339961,391.43 L182.65,391.43 C183.450813,391.43 184.1,392.079187 184.1,392.88 L184.1,393 C184.094754,393.386339 183.935534,393.754607 183.657673,394.023081 C183.379812,394.291555 183.006291,394.43803 182.62,394.43 Z" id="Path" fill="#363D49" fill-rule="nonzero"></path>
            <path d="M187.54,391.43 L204.85,391.43 C205.650813,391.43 206.3,392.079187 206.3,392.88 L206.3,393 C206.3,393.800813 205.650813,394.45 204.85,394.45 L188.85,394.45 C188.143076,394.45 187.57,393.876924 187.57,393.17 L187.57,391.45 L187.54,391.43 Z" id="Path" fill="#363D49" fill-rule="nonzero"></path>
            <path d="M182.13,286.58 L173.8,252.3" id="Path" stroke="#363D49" stroke-width="2" fill="#092317" fill-rule="nonzero" stroke-linecap="round" stroke-linejoin="round"></path>
            <path d="M383.64,158.62 C383.64,158.62 373.46,162.97 367.17,165.85 C364.324662,167.085409 362.092024,169.408072 360.97,172.3 C359.834653,175.212644 359.088222,178.262249 358.75,181.37 L367.92,187.37 L368.52,182.56 L367.92,187.37 L362.82,225.06 L406.39,230 L411.56,193.82 L419.83,196.47 C421.183078,191.378536 422.241501,186.2133 423,181 C423.4,176.57 422.89,171.14 417.72,167.89 C413.81,165.43 399.11,158.59 399.11,158.59 C397.628644,161.177293 394.861114,162.758191 391.88,162.72 C388.672741,162.597144 385.672312,161.104212 383.64,158.62 L383.64,158.62 Z" id="Path" stroke="#363D49" stroke-width="2" fill="#FFFFFF" fill-rule="nonzero" stroke-linecap="round" stroke-linejoin="round"></path>
            <path d="M364.7,216.58 L343.83,216.58 C342.88565,216.606368 342.051641,215.968351 341.83,215.05 L334,183.5 C333.842186,182.890114 333.98095,182.241519 334.374491,181.749593 C334.768032,181.257667 335.370347,180.979913 336,181 L372.65,181 C373.279653,180.979913 373.881968,181.257667 374.275509,181.749593 C374.66905,182.241519 374.807814,182.890114 374.65,183.5 L366.76,215.05 C366.534112,215.991342 365.666458,216.635765 364.7,216.58 L364.7,216.58 Z" id="Path" stroke="#0A9557" stroke-width="2" fill="#0FB167" fill-rule="nonzero"></path>
            <circle id="Oval" stroke="#363D49" stroke-width="2" fill="#363D49" fill-rule="nonzero" cx="406.66" cy="125.81" r="6.48"></circle>
            <path d="M406.39,191.7 L416.72,195.34 C416.72,195.34 411.56,219.61 410.52,221.68 C409.48,223.75 407.42,226.85 401.22,223.75 C395.02,220.65 365,207.21 365,207.21 L361.72,205.65 C361.72,205.65 354.47,201.04 352.53,199.5 C349.63,197.19 349.33,194.58 351.07,194.38 C352.81,194.18 363.26,200.91 363.26,200.91 C363.26,200.91 400.15,212.37 401.18,212.37 C402.21,212.37 406.39,191.7 406.39,191.7 Z" id="Path" stroke="#363D49" stroke-width="2" fill="#FFFFFF" fill-rule="nonzero" stroke-linecap="round" stroke-linejoin="round"></path>
            <path d="M386.27,133.41 C383.333823,132.975535 380.520567,131.933336 378.01,130.35 C377.44,127.54 380.63,118.35 390.89,118.35 C401.15,118.35 405.07,125.93 405.07,132.13 C405.07,138.33 403.34,145.77 399.15,149.36 C398.99,138.41 393.5,133.21 393.5,133.21 C391.096784,133.431672 388.681795,133.498477 386.27,133.41 L386.27,133.41 Z" id="Path" stroke="#363D49" stroke-width="2" fill="#363D49" fill-rule="nonzero" stroke-linecap="round" stroke-linejoin="round"></path>
            <path d="M331.57,160.3 L337,160.3 C342.671964,160.3 347.27,164.898036 347.27,170.57 L347.27,174 L341.83,174 C339.106227,174 336.494012,172.917985 334.568013,170.991987 C332.642015,169.065988 331.56,166.453773 331.56,163.73 L331.56,160.33 L331.57,160.3 Z" id="Path" stroke="#0A9557" stroke-width="2" fill="#FFFFFF" fill-rule="nonzero" stroke-linecap="round" stroke-linejoin="round"></path>
            <path d="M342,140.3 L345.67,140.3 C350.419649,140.3 354.27,144.150351 354.27,148.9 L354.27,152.57 L350.6,152.57 C345.862042,152.57 342.016528,148.737929 342,144 L342,140.3 L342,140.3 Z" id="Path" stroke="#0A9557" stroke-width="2" fill="#FFFFFF" fill-rule="nonzero" stroke-linecap="round" stroke-linejoin="round"></path>
            <path d="M371.04,149.09 L375.22,149.09 L375.22,153.27 C375.22,158.671345 370.841345,163.05 365.44,163.05 L361.26,163.05 L361.26,158.87 C361.26,153.468655 365.638655,149.09 371.04,149.09 L371.04,149.09 Z" id="Path" stroke="#0A9557" stroke-width="2" fill="#FFFFFF" fill-rule="nonzero" stroke-linecap="round" stroke-linejoin="round" transform="translate(368.240000, 156.070000) rotate(-180.000000) translate(-368.240000, -156.070000) "></path>
            <path d="M354.26,152.57 L354.26,181.37" id="Path" stroke="#0A9557" stroke-width="2" fill="#FFFFFF" fill-rule="nonzero"></path>
            <path d="M347.28,173.96 L354.26,173.96" id="Path" stroke="#0A9557" stroke-width="2" fill="#FFFFFF" fill-rule="nonzero"></path>
            <path d="M354.26,163.04 L361.24,163.04" id="Path" stroke="#0A9557" stroke-width="2" fill="#FFFFFF" fill-rule="nonzero"></path>
            <path d="M405.86,194.28 L408.39,182.61" id="Path" stroke="#363D49" stroke-width="2" fill="#FFFFFF" fill-rule="nonzero" stroke-linecap="round" stroke-linejoin="round"></path>
            <path d="M382.790041,391.140041 L397.700041,391.140041 C398.478762,391.140041 399.110041,391.771319 399.110041,392.550041 L399.110041,392.740041 C399.110041,393.113996 398.961488,393.472635 398.697061,393.737061 C398.432635,394.001488 398.073996,394.150041 397.700041,394.150041 L381.54,394.150041 L381.54,392.390041 C381.53735,392.057702 381.668181,391.738194 381.903188,391.503188 C382.138194,391.268181 382.457702,391.13735 382.790041,391.140041 L382.790041,391.140041 Z" id="Path" fill="#363D49" fill-rule="nonzero" transform="translate(390.325020, 392.645020) rotate(-180.000000) translate(-390.325020, -392.645020) "></path>
            <path d="M357.950049,391.111012 L372.860049,391.111012 C373.234004,391.111012 373.592643,391.259565 373.85707,391.523991 C374.121496,391.788417 374.270049,392.147056 374.270049,392.521012 L374.270049,392.711012 C374.270049,393.084967 374.121496,393.443606 373.85707,393.708032 C373.592643,393.972459 373.234004,394.121012 372.860049,394.121012 L356.66,394.121012 L356.66,392.361012 C356.657035,392.021562 356.793316,391.695718 357.037103,391.459491 C357.280889,391.223264 357.610862,391.09731 357.950049,391.111012 L357.950049,391.111012 Z" id="Path" fill="#363D49" fill-rule="nonzero" transform="translate(365.465024, 392.615506) rotate(-180.000000) translate(-365.465024, -392.615506) "></path>
            <path d="M298.62,97.5 C296.33,97.5 294.48,99.87 294.48,102.15 C294.48,99.87 292.63,97.5 290.34,97.5 C288.362871,97.5524712 286.772471,99.1428713 286.72,101.12 C286.72,105.25 291.89,107.84 294.48,109.39 C297.06,107.84 302.24,105.25 302.24,101.12 C302.187529,99.1428713 300.597129,97.5524712 298.62,97.5 Z" id="Path" stroke="#0A9557" stroke-width="2" fill="#FFFFFF" fill-rule="nonzero" stroke-linecap="round" stroke-linejoin="round"></path>
            <path d="M270.7,97.5 C268.42,97.5 266.57,99.87 266.57,102.15 C266.57,99.87 264.71,97.5 262.43,97.5 C260.450721,97.5474597 258.85746,99.1407209 258.81,101.12 C258.81,105.25 263.98,107.84 266.57,109.39 C269.15,107.84 274.32,105.25 274.32,101.12 C274.27254,99.1407209 272.679279,97.5474597 270.7,97.5 Z" id="Path" stroke="#0A9557" stroke-width="2" fill="#FFFFFF" fill-rule="nonzero" stroke-linecap="round" stroke-linejoin="round"></path>
            <path d="M280.07,104.89 L280.07,118.4" id="Path" stroke="#0A9557" stroke-width="2"></path>
            <path d="M294.48,109.39 L294.48,118.4" id="Path" stroke="#0A9557" stroke-width="2"></path>
            <path d="M266.57,109.39 L266.57,118.4" id="Path" stroke="#0A9557" stroke-width="2"></path>
            <path d="M286.24,87.16 C282.83,87.16 280.07,90.69 280.07,94.1 C280.07,90.69 277.31,87.16 273.91,87.16 C270.958722,87.2336846 268.583685,89.6087222 268.51,92.56 C268.51,98.72 276.22,102.56 280.07,104.89 C283.93,102.58 291.64,98.72 291.64,92.56 C291.566315,89.6087222 289.191278,87.2336846 286.24,87.16 L286.24,87.16 Z" id="Path" stroke="#0A9557" stroke-width="2" fill="#FFFFFF" fill-rule="nonzero" stroke-linecap="round" stroke-linejoin="round"></path>
            <path d="M265.37,133.25 L233.67,156.7 L207.52,151.3 L185.36,147.21 L168.52,147.3 C168.52,147.3 148.52,154.3 149.52,169.3 C149.94,175.62 154.74,234.87 154.74,234.87 L206.18,228.54 L206.54,171.54 C206.54,171.54 237,169.88 240.34,168.05 C243.52,166.3 271.51,139.78 271.51,139.78 L265.37,133.25 Z" id="Path" stroke="#363D49" stroke-width="2" fill="#363D49" fill-rule="nonzero" stroke-linecap="round" stroke-linejoin="round"></path>
            <polygon id="Path" fill="#363D49" fill-rule="nonzero" points="177.9 136.83 183.34 142.99 182.35 136.48"></polygon>
            <polygon id="Path" fill="#363D49" fill-rule="nonzero" points="385.3 157.04 391.23 150.65 385.83 151.46"></polygon>
            <polygon id="Path" fill="#363D49" fill-rule="nonzero" points="173.04 252.3 180.45 306.38 181.46 284.2"></polygon>
            <polygon id="Path" fill="#363D49" fill-rule="nonzero" points="357.7 304.95 357.7 307.05 369.28 309.68 369.66 306.9"></polygon>
            <polygon id="Path" fill="#363D49" fill-rule="nonzero" points="382.04 308.16 382.04 310.27 392.55 312.04 392.55 308.12"></polygon>
            <path d="M362.82,225.06 C357.64,238.38 343.13,275.06 335.29,296.8 C349.29,306.72 392.71,310.62 419.59,307.52 C413.39,269.27 406.15,229.95 406.15,229.95 L362.82,225.06 Z" id="Path" stroke="#363D49" stroke-width="2" fill="#363D49" fill-rule="nonzero" stroke-linecap="round" stroke-linejoin="round"></path>
        </g>
    </g>
</svg>