<svg width="560" height="400" xmlns="http://www.w3.org/2000/svg"><g fill="none" fill-rule="evenodd"><path d="M407.35 308.52a142.69 142.69 0 01-30.16-3.23v32.34h61.35v-32.55a143.12 143.12 0 01-31.19 3.44h0z" stroke="#C1C7D1" stroke-width="2" fill="#F5F6F7" fill-rule="nonzero"/><path d="M0 0h560v400H0z"/><path d="M265.26 78.18l43.83 25.02" stroke="#DADEE3" stroke-width="2"/><circle fill="#F3FBF7" fill-rule="nonzero" cx="407.35" cy="166.06" r="119.58"/><path d="M464.46 60.88v-.01" stroke="#86D7B3" stroke-width="2"/><path d="M460.89 107.76a24.54 24.54 0 003.63-12.89l-.06-34a119.93 119.93 0 0152.71 57.71l-56.28-10.82z" fill="#E6F7EF" fill-rule="nonzero"/><path d="M526.93 166c.02 11.63-1.664 23.2-5 34.34l-61-7.76a12.5 12.5 0 00-1.51-7l-5.95-10.81a2.08 2.08 0 00-3.35-.42l-5.86 6.32a7.62 7.62 0 01-11.27-.11L423.5 170a7.64 7.64 0 01-1.74-6.81l5.17-22.19a15.3 15.3 0 015.37-8.51l23-18.41a24.62 24.62 0 005.58-6.31l56.28 10.83a119.053 119.053 0 019.77 47.4z" stroke="#0A9557" stroke-width="2" fill="#86D7B3" fill-rule="nonzero" opacity=".5"/><path d="M521.91 200.3c-13.751 45.819-53.472 79.043-101 84.48l17.68-61.62 19.52-23.6a12.46 12.46 0 002.84-7l60.96 7.74z" fill="#E6F7EF" fill-rule="nonzero"/><path d="M291.23 137.25c10.558-42.519 43.484-75.882 85.86-87L411.44 79a13.75 13.75 0 01-1.72 22.29 14 14 0 01-5.66 1.93L378.2 106a13.81 13.81 0 00-9.8 5.79L352.86 134a13.69 13.69 0 01-7.23 5.27l-16.14 5a13.78 13.78 0 00-8.79 8.18l-1.63 4.23" fill="#0FB167" fill-rule="nonzero"/><path d="M319.07 156.65l-3.67 9.47a21.17 21.17 0 004.2 22l20 21.63a23.1 23.1 0 014.82 23.46l-9.85 27.64c-37.692-28.955-54.698-77.457-43.34-123.61" fill="#86D7B3" fill-rule="nonzero"/><path d="M95.73 216.39v30.89a49.5 49.5 0 00-44.2 27.2l-27.33-14.4a80.35 80.35 0 0171.53-43.69z" fill="#E6F7EF" fill-rule="nonzero"/><path d="M46.24 296.76a49.18 49.18 0 005.29 22.29l-27.33 14.4a80.46 80.46 0 010-73.37l27.33 14.4a49.17 49.17 0 00-5.29 22.28z" fill="#86D7B3" fill-rule="nonzero"/><path d="M95.73 346.26v30.89a80.38 80.38 0 01-71.53-43.7l27.33-14.4a49.49 49.49 0 0044.2 27.21z" fill="#0FB167" fill-rule="nonzero"/><path stroke="#DADEE3" stroke-width="2" stroke-linecap="round" stroke-linejoin="round" d="M434.38 357.39h51.99l-10.39-19.76H342.87"/><path d="M342.87 357.39h60.32" stroke="#DADEE3" stroke-width="2" fill="#F5F6F7" fill-rule="nonzero" stroke-linecap="round" stroke-linejoin="round"/><path d="M367.45 278.81l-13.14 36.99M460.38 17.36l-12.82 36.05M162.92 377.15H6.5" stroke="#DADEE3" stroke-width="2" stroke-linecap="round"/><path d="M265.38 143.05l26.79-9.71" stroke="#DADEE3" stroke-width="2"/><path d="M95.57 345.78v31.37" stroke="#0A9557" stroke-width="2"/><path d="M95.57 216.39v31.37M138.53 320.38l14.26 7.51" stroke="#C2EAD8" stroke-width="2"/><path d="M24.03 260.09l27.77 14.62" stroke="#4AC48D" stroke-width="2"/><path d="M24.03 333.45l27.77-14.62M377.19 50.31l34.25 28.79A13.77 13.77 0 01414 97.27h0a13.77 13.77 0 01-10 6l-25.87 2.79a13.75 13.75 0 00-9.79 5.79l-15.55 22.21a13.74 13.74 0 01-7.22 5.26l-16.15 5a13.73 13.73 0 00-8.78 8.18l-5.3 13.7a21.15 21.15 0 004.2 22l20 21.62a23.17 23.17 0 014.82 23.47L334.6 261M319.1 156.66l-27.52-19.32" stroke="#0A9557" stroke-width="2"/><path d="M464.46 61l.06 34a24.53 24.53 0 01-9.21 19.19l-23 18.41a15.47 15.47 0 00-5.37 8.52l-5.17 22.15a7.63 7.63 0 001.75 6.81l9.48 10.54a7.62 7.62 0 0011.26.11l5.87-6.33a2.09 2.09 0 013.35.42l5.94 10.81a12.51 12.51 0 01-1.32 14l-19.53 23.6-17.68 61.63M460.89 107.85l56.28 10.84M460.9 192.63l61.02 7.77" stroke="#86D7B3" stroke-width="2"/><path d="M146.66 102.27c-5.56 0-12.52 3.14-17.2 21.31a162.27 162.27 0 01-5 16.8s7.42 4.82 22.43 5.08c15.01.26 21.7-6.19 21.7-6.19s-6.73-22.17-8.74-27.75a14.1 14.1 0 00-13.19-9.25z" stroke="#363D49" stroke-width="2" fill="#363D49" fill-rule="nonzero"/><circle stroke="#DADEE3" stroke-width="2" cx="41.22" cy="149.58" r="5.92"/><circle stroke="#DADEE3" stroke-width="2" cx="92.25" cy="139.92" r="5.92"/><circle stroke="#363D49" stroke-width="2" cx="145.77" cy="154.01" r="5.92"/><circle stroke="#DADEE3" stroke-width="2" cx="201.25" cy="133.34" r="5.92"/><circle stroke="#DADEE3" stroke-width="2" cx="259.46" cy="143.27" r="5.92"/><path d="M47.36 150.08l39.18-10.05M98.6 140.03l34.86 17.58M157.81 157.07L195.05 133M207.11 133l46.17 10.05" stroke="#DADEE3" stroke-width="2"/><circle stroke="#0A9557" stroke-width="2" cx="407.35" cy="166.06" r="119.58"/><path d="M424.59 24.63c58.89 7.184 107.166 50.111 121.183 107.76 14.018 57.647-9.156 117.947-58.172 151.37-49.017 33.424-113.615 32.974-162.161-1.13" stroke="#A6AFBC" stroke-width="2" stroke-linecap="round" stroke-linejoin="round"/><circle fill="#0FB167" fill-rule="nonzero" opacity=".5" cx="403.19" cy="24.63" r="6.29"/><circle fill="#4AC48D" fill-rule="nonzero" opacity=".5" cx="373.87" cy="28.59" r="6.29"/><circle fill="#86D7B3" fill-rule="nonzero" opacity=".5" cx="346.02" cy="38.55" r="6.29"/><circle fill="#86D7B3" fill-rule="nonzero" opacity=".5" cx="320.85" cy="54.09" r="6.29"/><path d="M222.25 242h27a2.08 2.08 0 012.08 2.08v133.1h-31.2V244a2.08 2.08 0 012.12-2z" fill="#DADEE3" fill-rule="nonzero" opacity=".3"/><rect fill="#DADEE3" fill-rule="nonzero" opacity=".3" x="311.68" y="299.16" width="31.2" height="77.99" rx="2.04"/><path d="M405.27 343.87h27a2.08 2.08 0 012.08 2.08v31.2h-31.2V346a2.08 2.08 0 012.12-2.13z" fill="#DADEE3" fill-rule="nonzero" opacity=".3"/><path d="M222.25 242h27a2.08 2.08 0 012.08 2.08v133.1h-31.2V244a2.08 2.08 0 012.12-2z" stroke="#A6AFBC" stroke-width="2"/><path d="M268 268h27a2.08 2.08 0 012.08 2.08v107.07h-31.2V270a2.08 2.08 0 012.12-2z" stroke="#DADEE3" stroke-width="2"/><path stroke="#DADEE3" stroke-width="2" fill="#F5F6F7" fill-rule="nonzero" stroke-linecap="round" stroke-linejoin="round" d="M434.38 377.15h51.99v-19.76h-51.99"/><path stroke="#DADEE3" stroke-width="2" fill="#F5F6F7" fill-rule="nonzero" d="M403.19 357.39h-60.32v19.76h60.32"/><path d="M155 350.93c-27.465 30.084-73.096 34.86-106.194 11.112-33.098-23.747-43.192-68.503-23.49-104.158C45.017 222.229 88.28 206.956 126 222.34l.76.08M175.93 293.42v3.35a80.09 80.09 0 01-9 37.07" stroke="#0A9557" stroke-width="2"/><path d="M144.62 290.12a50.33 50.33 0 01.44 6.65c-.01 23.564-16.64 43.851-39.744 48.484-23.105 4.633-46.27-7.675-55.364-29.414-9.094-21.739-1.592-46.874 17.93-60.073 19.521-13.198 45.642-10.795 62.428 5.743" stroke="#4AC48D" stroke-width="2"/><path d="M243.16 242h-14.92l-3.78-22.67a1 1 0 011-1.21h20.42a1 1 0 011 1.21L243.16 242zM246.09 225.33s4.16-4.16 7.28-1c2.66 2.65 0 11.54-9.19 11.54" stroke="#A6AFBC" stroke-width="2"/><path d="M139.52 150.88l16 .28-.05-9.12s-1.76-5-3.29-8.73c2.74-1.85 5-10.19 4.16-15.84-12.2-.21-10.25-7.72-13.07-4-2.93 3.89-4.15 4.45-6.66 4.93.42 3.73.62 12.35 5.12 15.07-1 2.86-2.59 8.46-2.59 8.46l.38 8.95z" stroke="#363D49" stroke-width="2" fill="#FFF" fill-rule="nonzero" stroke-linecap="round" stroke-linejoin="round"/><path d="M126.72 217.83V246c0 5.79 1.09 11.93 4.11 17 3.02 5.07 19 37.8 19 37.8l6.27 61.29h10.81v-71.35l-1-14.06 10 21 3.15 64.38h11.05s5-70.33 5-74.35c0-4.02-20.24-69.9-20.24-69.9l-48.15.02z" stroke="#363D49" stroke-width="2" fill="#363D49" fill-rule="nonzero" stroke-linecap="round" stroke-linejoin="round"/><path stroke="#363D49" stroke-width="2" stroke-linecap="round" stroke-linejoin="round" d="M157.95 362.08h7.03v14.52h-7.03zM181.12 362.08h7.03v13.94h-7.03z"/><path d="M165.78 229.92S161 241 161.45 242.64c.45 1.64 2.91.94 4.67-2.21 1.17-2.1 3.86-8.17 3.86-8.17" fill="#FFF" fill-rule="nonzero"/><path d="M230 190.57s5.3 4.53 1.78 10.08c-3.52 5.55-3 7.83-.74 11.6M239.12 195.73s3.95 3.37 1.33 7.5-2.24 5.83-.55 8.64" stroke="#DADEE3" stroke-width="2" stroke-linecap="round" stroke-linejoin="round"/><circle stroke="#DADEE3" stroke-width="2" cx="41.22" cy="84.27" r="5.92"/><circle stroke="#DADEE3" stroke-width="2" cx="92.25" cy="104.75" r="5.92"/><circle stroke="#DADEE3" stroke-width="2" cx="142.77" cy="78.66" r="5.92"/><circle stroke="#DADEE3" stroke-width="2" cx="201.25" cy="98.18" r="5.92"/><circle stroke="#DADEE3" stroke-width="2" cx="259.46" cy="76.96" r="5.92"/><path d="M47.36 87.79l39.18 17.08M98.6 104.87l39.18-23.11M148.84 78.75l46.21 19.09M207.11 97.84l46.17-20.3" stroke="#DADEE3" stroke-width="2"/><path d="M139.41 142.08c-6.51 2.95-15.09 6.74-20.22 9.52-4.42 2.39-9.55 6.87-9.55 21.59 0 11.05.3 18.34 1.24 29.07 1 11.64 5.25 13.4 9.39 13.4 3.57 0 6.45-3.29 6.45-3.29v10h39.17a74.55 74.55 0 01-2 8s6 3 7 3S185 201.32 186 197.3c1-4.02 0-22.22 0-31.42 0-3.62-.78-11.83-8-14.8-5-2.05-19.2-8.19-22.22-9.19a8.55 8.55 0 01-7.93 5.18c-7 0-8.44-4.99-8.44-4.99z" stroke="#363D49" stroke-width="2" fill="#FFF" fill-rule="nonzero" stroke-linecap="round" stroke-linejoin="round"/><path d="M152.83 186.48h-5.23a.94.94 0 01-.94-.93V170.9a.93.93 0 01.94-.93h7.25a.93.93 0 01.93.93v12.78a1 1 0 01-.3.69l-2 1.86a.93.93 0 01-.65.25z" stroke="#363D49" stroke-width="2" fill="#363D49" fill-rule="nonzero" stroke-linecap="round" stroke-linejoin="round"/><path d="M147.26 192.78s5.1-4.25 6.8-5.95c2.55-2.55 2.55-5.1.85-5.1-1.7 0-11 7.65-11 7.65" stroke="#363D49" stroke-width="2" fill="#FFF" fill-rule="nonzero"/><path stroke="#363D49" stroke-width="2" stroke-linecap="round" stroke-linejoin="round" d="M165.78 222.99l6.32-29.69-.77-25.81M126.42 212.69l22.18-17.37-6.31-8.11-17.74 12.32-.24-30.86"/><path d="M168.72 286.55l-13.76-40.02" stroke="#F5F6F7" stroke-width="2" stroke-linecap="round" stroke-linejoin="round"/><path d="M157 375.07h16.23c.779 0 1.41.631 1.41 1.41v.19a1.41 1.41 0 01-1.41 1.41h-15c-.69 0-1.25-.56-1.25-1.25v-1.77l.02.01zM180.12 375.07h16.23c.779 0 1.41.631 1.41 1.41v.19a1.41 1.41 0 01-1.41 1.41h-15c-.69 0-1.25-.56-1.25-1.25v-1.77l.02.01z" fill="#363D49" fill-rule="nonzero"/><path d="M313.72 299.16h27.12a2 2 0 012 2v76h-31.2v-76a2 2 0 012.08-2z" stroke="#A6AFBC" stroke-width="2"/><path d="M359.51 322h27a2.08 2.08 0 012.08 2.08v53h-31.2v-53a2.08 2.08 0 012.12-2.08z" stroke="#DADEE3" stroke-width="2" fill="#F5F6F7" fill-rule="nonzero"/><path d="M405.27 343.87h27a2.08 2.08 0 012.08 2.08v31.2h-31.2V346a2.08 2.08 0 012.12-2.13h0z" stroke="#A6AFBC" stroke-width="2"/><circle stroke="#C2EAD8" stroke-width="2" fill="#F3FBF7" fill-rule="nonzero" cx="95.57" cy="296.77" r="22.31"/><path d="M438.9 377.15H207.86M552.81 377.15h-75.43" stroke="#DADEE3" stroke-width="2" stroke-linecap="round"/></g></svg>