<?xml version="1.0" encoding="UTF-8"?>
<svg width="560px" height="400px" viewBox="0 0 560 400" version="1.1" xmlns="http://www.w3.org/2000/svg" xmlns:xlink="http://www.w3.org/1999/xlink">
    <!-- Generator: Sketch 58 (84663) - https://sketch.com -->
    <title>Tablet</title>
    <desc>Created with Sketch.</desc>
    <g id="Tablet" stroke="none" stroke-width="1" fill="none" fill-rule="evenodd">
        <g id="Analytics">
            <path d="M407.35,308.52 C397.21046,308.517975 387.100017,307.435192 377.19,305.29 L377.19,337.63 L438.54,337.63 L438.54,305.08 C428.300842,307.366383 417.841325,308.519981 407.35,308.52 L407.35,308.52 Z" id="Path" stroke="#C1C7D1" stroke-width="2" fill="#F5F6F7" fill-rule="nonzero"></path>
            <rect id="Rectangle" x="0" y="0" width="560" height="400"></rect>
            <path d="M265.26,78.18 L309.09,103.2" id="Path" stroke="#DADEE3" stroke-width="2"></path>
            <circle id="Oval" fill="#F3FBF7" fill-rule="nonzero" cx="407.35" cy="166.06" r="119.58"></circle>
            <path d="M464.46,60.88 L464.46,60.87" id="Path" stroke="#86D7B3" stroke-width="2"></path>
            <path d="M460.89,107.76 C463.271608,103.882954 464.528407,99.420107 464.52,94.87 L464.46,60.87 C487.981226,73.6811475 506.537083,93.9971883 517.17,118.58 L460.89,107.76 Z" id="Path" fill="#E6F7EF" fill-rule="nonzero"></path>
            <path d="M526.930181,166 C526.950259,177.62949 525.265685,189.199144 521.93,200.34 L460.93,192.58 C461.120101,190.149338 460.595226,187.716141 459.42,185.58 L453.47,174.77 C453.149713,174.182604 452.566428,173.785131 451.902582,173.701903 C451.238737,173.618674 450.575382,173.859852 450.12,174.35 L444.26,180.67 C442.800544,182.242362 440.745893,183.126672 438.600689,183.105734 C436.455486,183.084796 434.418487,182.16055 432.99,180.56 L423.5,170 C421.848245,168.147401 421.19938,165.607875 421.76,163.19 L426.93,141 C427.709295,137.639002 429.601695,134.640059 432.3,132.49 L455.3,114.08 C457.508672,112.312831 459.396293,110.178263 460.88,107.77 L517.16,118.6 C523.627712,133.56441 526.95308,149.69772 526.930181,166 Z" id="Path" stroke="#0A9557" stroke-width="2" fill="#86D7B3" fill-rule="nonzero" opacity="0.5"></path>
            <path d="M521.91,200.3 C508.158601,246.118525 468.4376,279.342586 420.91,284.78 L438.59,223.16 L458.11,199.56 C459.75822,197.576768 460.750503,195.130999 460.95,192.56 L521.91,200.3 Z" id="Path" fill="#E6F7EF" fill-rule="nonzero"></path>
            <path d="M291.23,137.25 C301.787856,94.7314003 334.714349,61.3677276 377.09,50.25 L411.44,79 C414.835373,81.8517642 416.647129,86.1659007 416.305989,90.5868439 C415.964848,95.0077872 413.512683,98.9928996 409.72,101.29 C407.994354,102.333466 406.063649,102.991816 404.06,103.22 L378.2,106 C374.252866,106.431411 370.682398,108.540902 368.4,111.79 L352.86,134 C351.108232,136.516819 348.562203,138.372639 345.63,139.27 L329.49,144.27 C325.463633,145.509653 322.225542,148.523031 320.7,152.45 L319.07,156.68" id="Path" fill="#0FB167" fill-rule="nonzero"></path>
            <path d="M319.07,156.65 L315.4,166.12 C312.488483,173.654085 314.117754,182.18836 319.6,188.12 L339.6,209.75 C345.45164,216.061432 347.309225,225.102704 344.42,233.21 L334.57,260.85 C296.878101,231.894881 279.87236,183.392814 291.23,137.24" id="Path" fill="#86D7B3" fill-rule="nonzero"></path>
            <path d="M95.73,216.389994 L95.73,247.28 C77.0436762,247.277096 59.9482831,257.797338 51.53,274.48 L24.2,260.08 C37.9570765,233.249035 65.577758,216.378525 95.73,216.389994 L95.73,216.389994 Z" id="Path" fill="#E6F7EF" fill-rule="nonzero"></path>
            <path d="M46.24,296.76 C46.2240905,304.502832 48.0365951,312.14002 51.53,319.05 L24.2,333.45 C12.4002819,310.416599 12.4002819,283.113401 24.2,260.08 L51.53,274.48 C48.0377704,281.386835 46.2252882,289.020503 46.24,296.76 L46.24,296.76 Z" id="Path" fill="#86D7B3" fill-rule="nonzero"></path>
            <path d="M95.73,346.26 L95.73,377.15 C65.577494,377.152672 37.959566,360.279983 24.2,333.45 L51.53,319.05 C59.9437267,335.73818 77.0408016,346.263325 95.73,346.26 L95.73,346.26 Z" id="Path" fill="#0FB167" fill-rule="nonzero"></path>
            <polyline id="Path" stroke="#DADEE3" stroke-width="2" stroke-linecap="round" stroke-linejoin="round" points="434.38 357.39 486.37 357.39 475.98 337.63 342.87 337.63"></polyline>
            <path d="M342.87,357.39 L403.19,357.39" id="Path" stroke="#DADEE3" stroke-width="2" fill="#F5F6F7" fill-rule="nonzero" stroke-linecap="round" stroke-linejoin="round"></path>
            <path d="M367.45,278.81 L354.31,315.8" id="Path" stroke="#DADEE3" stroke-width="2" stroke-linecap="round"></path>
            <path d="M460.38,17.36 L447.56,53.41" id="Path" stroke="#DADEE3" stroke-width="2" stroke-linecap="round"></path>
            <path d="M162.92,377.15 L6.5,377.15" id="Path" stroke="#DADEE3" stroke-width="2" stroke-linecap="round"></path>
            <path d="M265.38,143.05 L292.17,133.34" id="Path" stroke="#DADEE3" stroke-width="2"></path>
            <path d="M95.57,345.78 L95.57,377.15" id="Path" stroke="#0A9557" stroke-width="2"></path>
            <path d="M95.57,216.39 L95.57,247.76" id="Path" stroke="#C2EAD8" stroke-width="2"></path>
            <path d="M138.53,320.38 L152.79,327.89" id="Path" stroke="#C2EAD8" stroke-width="2"></path>
            <path d="M24.03,260.09 L51.8,274.71" id="Path" stroke="#4AC48D" stroke-width="2"></path>
            <path d="M24.03,333.45 L51.8,318.83" id="Path" stroke="#0A9557" stroke-width="2"></path>
            <path d="M377.19,50.31 L411.44,79.1 C416.792343,83.6229853 417.894292,91.4442417 414,97.27 L414,97.27 C411.719923,100.652461 408.057502,102.849914 404,103.27 L378.13,106.06 C374.183954,106.486566 370.614721,108.597481 368.34,111.85 L352.79,134.06 C351.036371,136.56856 348.495351,138.419773 345.57,139.32 L329.42,144.32 C325.393618,145.555694 322.157134,148.571006 320.64,152.5 L315.34,166.2 C312.42355,173.733639 314.053332,182.270593 319.54,188.2 L339.54,209.82 C345.380916,216.140973 347.23697,225.178647 344.36,233.29 L334.6,261" id="Path" stroke="#0A9557" stroke-width="2"></path>
            <path d="M319.1,156.66 L291.58,137.34" id="Path" stroke="#0A9557" stroke-width="2"></path>
            <path d="M464.46,61 L464.520021,95 C464.529816,102.464822 461.139974,109.527912 455.31,114.19 L432.31,132.6 C429.619796,134.76154 427.729585,137.760534 426.94,141.12 L421.77,163.27 C421.210311,165.689526 421.863166,168.230065 423.52,170.08 L433,180.62 C434.428309,182.217243 436.463103,183.139315 438.605721,183.160247 C440.74834,183.181178 442.800759,182.299034 444.26,180.73 L450.13,174.4 C450.587477,173.914084 451.249508,173.675865 451.911707,173.758887 C452.573906,173.841909 453.156638,174.236187 453.48,174.82 L459.42,185.63 C461.892637,190.12579 461.369369,195.675599 458.1,199.63 L438.57,223.23 L420.89,284.86" id="Path" stroke="#86D7B3" stroke-width="2"></path>
            <path d="M460.89,107.85 L517.17,118.69" id="Path" stroke="#86D7B3" stroke-width="2"></path>
            <path d="M460.9,192.63 L521.92,200.4" id="Path" stroke="#86D7B3" stroke-width="2"></path>
            <path d="M146.66,102.27 C141.1,102.27 134.14,105.41 129.46,123.58 C128.097225,129.265992 126.428124,134.874171 124.46,140.38 C124.46,140.38 131.88,145.2 146.89,145.46 C161.9,145.72 168.59,139.27 168.59,139.27 C168.59,139.27 161.86,117.1 159.85,111.52 C157.82104,105.981194 152.558697,102.290771 146.66,102.27 Z" id="Path" stroke="#363D49" stroke-width="2" fill="#363D49" fill-rule="nonzero"></path>
            <circle id="Oval" stroke="#DADEE3" stroke-width="2" cx="41.22" cy="149.58" r="5.92"></circle>
            <circle id="Oval" stroke="#DADEE3" stroke-width="2" cx="92.25" cy="139.92" r="5.92"></circle>
            <circle id="Oval" stroke="#363D49" stroke-width="2" cx="145.77" cy="154.01" r="5.92"></circle>
            <circle id="Oval" stroke="#DADEE3" stroke-width="2" cx="201.25" cy="133.34" r="5.92"></circle>
            <circle id="Oval" stroke="#DADEE3" stroke-width="2" cx="259.46" cy="143.27" r="5.92"></circle>
            <path d="M47.36,150.08 L86.54,140.03" id="Path" stroke="#DADEE3" stroke-width="2"></path>
            <path d="M98.6,140.03 L133.46,157.61" id="Path" stroke="#DADEE3" stroke-width="2"></path>
            <path d="M157.81,157.07 L195.05,133" id="Path" stroke="#DADEE3" stroke-width="2"></path>
            <path d="M207.11,133 L253.28,143.05" id="Path" stroke="#DADEE3" stroke-width="2"></path>
            <circle id="Oval" stroke="#0A9557" stroke-width="2" cx="407.35" cy="166.06" r="119.58"></circle>
            <path d="M424.59,24.63 C483.480881,31.814416 531.755545,74.7414035 545.773285,132.389081 C559.791026,190.036758 536.617397,250.337275 487.600814,283.760715 C438.584231,317.184156 373.985729,316.733723 325.44,282.63" id="Path" stroke="#A6AFBC" stroke-width="2" stroke-linecap="round" stroke-linejoin="round"></path>
            <circle id="Oval" fill="#0FB167" fill-rule="nonzero" opacity="0.5" cx="403.19" cy="24.63" r="6.29"></circle>
            <circle id="Oval" fill="#4AC48D" fill-rule="nonzero" opacity="0.5" cx="373.87" cy="28.59" r="6.29"></circle>
            <circle id="Oval" fill="#86D7B3" fill-rule="nonzero" opacity="0.5" cx="346.02" cy="38.55" r="6.29"></circle>
            <circle id="Oval" fill="#86D7B3" fill-rule="nonzero" opacity="0.5" cx="320.85" cy="54.09" r="6.29"></circle>
            <path d="M222.25,241.999577 L249.25,241.999577 C250.398752,241.999577 251.33,242.931248 251.33,244.08 L251.33,377.18 L220.13,377.18 L220.13,244 C220.173386,242.866921 221.116316,241.977364 222.25,241.999577 Z" id="Path" fill="#DADEE3" fill-rule="nonzero" opacity="0.3"></path>
            <rect id="Rectangle" fill="#DADEE3" fill-rule="nonzero" opacity="0.3" x="311.68" y="299.16" width="31.2" height="77.99" rx="2.04"></rect>
            <path d="M405.27,343.87 L432.27,343.87 C433.418752,343.87 434.35,344.801248 434.35,345.95 L434.35,377.15 L403.15,377.15 L403.15,346 C403.136252,345.43273 403.354857,344.884468 403.755151,344.482286 C404.155444,344.080105 404.702671,343.858921 405.27,343.87 L405.27,343.87 Z" id="Path" fill="#DADEE3" fill-rule="nonzero" opacity="0.3"></path>
            <path d="M222.25,241.999577 L249.25,241.999577 C250.398752,241.999577 251.33,242.931248 251.33,244.08 L251.33,377.18 L220.13,377.18 L220.13,244 C220.173386,242.866921 221.116316,241.977364 222.25,241.999577 Z" id="Path" stroke="#A6AFBC" stroke-width="2"></path>
            <path d="M268,267.999577 L295,267.999577 C296.148752,267.999577 297.08,268.931248 297.08,270.08 L297.08,377.15 L265.88,377.15 L265.88,270 C265.923386,268.866921 266.866316,267.977364 268,267.999577 Z" id="Path" stroke="#DADEE3" stroke-width="2"></path>
            <polyline id="Path" stroke="#DADEE3" stroke-width="2" fill="#F5F6F7" fill-rule="nonzero" stroke-linecap="round" stroke-linejoin="round" points="434.38 377.15 486.37 377.15 486.37 357.39 434.38 357.39"></polyline>
            <polyline id="Path" stroke="#DADEE3" stroke-width="2" fill="#F5F6F7" fill-rule="nonzero" points="403.19 357.39 342.87 357.39 342.87 377.15 403.19 377.15"></polyline>
            <path d="M155,350.93 C127.534868,381.014442 81.9037163,385.789218 48.8057203,362.042013 C15.7077243,338.294808 5.6141648,293.538573 25.3156651,257.883868 C45.0171653,222.229164 88.2807217,206.956141 126,222.34 L126.76,222.42" id="Path" stroke="#0A9557" stroke-width="2"></path>
            <path d="M175.93,293.42 C175.93,294.07 175.93,296.11 175.93,296.77 C175.959481,309.67119 172.871906,322.388567 166.93,333.84" id="Path" stroke="#0A9557" stroke-width="2"></path>
            <path d="M144.62,290.12 C144.913839,292.32447 145.060003,294.546033 145.060003,296.77 C145.050103,320.334403 128.420365,340.620962 105.315852,345.253746 C82.2113387,349.88653 59.0461079,337.579429 49.9522398,315.84046 C40.8583716,294.101491 48.36042,268.965622 67.8817179,255.767132 C87.4030159,242.568642 113.524244,244.971571 130.31,261.51" id="Path" stroke="#4AC48D" stroke-width="2"></path>
            <path d="M243.16,242 L228.24,242 L224.46,219.33 C224.395655,219.0308 224.47186,218.718608 224.666822,218.482704 C224.861784,218.2468 225.154036,218.113159 225.46,218.12 L245.88,218.12 C246.185964,218.113159 246.478216,218.2468 246.673178,218.482704 C246.86814,218.718608 246.944345,219.0308 246.88,219.33 L243.16,242 Z" id="Path" stroke="#A6AFBC" stroke-width="2"></path>
            <path d="M246.09,225.33 C246.09,225.33 250.25,221.17 253.37,224.33 C256.03,226.98 253.37,235.87 244.18,235.87" id="Path" stroke="#A6AFBC" stroke-width="2"></path>
            <path d="M139.52,150.88 L155.52,151.16 L155.47,142.04 C155.47,142.04 153.71,137.04 152.18,133.31 C154.92,131.46 157.18,123.12 156.34,117.47 C144.14,117.26 146.09,109.75 143.27,113.47 C140.34,117.36 139.12,117.92 136.61,118.4 C137.03,122.13 137.23,130.75 141.73,133.47 C140.73,136.33 139.14,141.93 139.14,141.93 L139.52,150.88 Z" id="Path" stroke="#363D49" stroke-width="2" fill="#FFFFFF" fill-rule="nonzero" stroke-linecap="round" stroke-linejoin="round"></path>
            <path d="M126.72,217.83 L126.72,246 C126.72,251.79 127.81,257.93 130.83,263 C133.85,268.07 149.83,300.8 149.83,300.8 L156.1,362.09 L166.91,362.09 L166.91,290.74 L165.91,276.68 L175.91,297.68 L179.06,362.06 L190.11,362.06 C190.11,362.06 195.11,291.73 195.11,287.71 C195.11,283.69 174.87,217.81 174.87,217.81 L126.72,217.83 Z" id="Path" stroke="#363D49" stroke-width="2" fill="#363D49" fill-rule="nonzero" stroke-linecap="round" stroke-linejoin="round"></path>
            <rect id="Rectangle" stroke="#363D49" stroke-width="2" stroke-linecap="round" stroke-linejoin="round" x="157.95" y="362.08" width="7.03" height="14.52"></rect>
            <rect id="Rectangle" stroke="#363D49" stroke-width="2" stroke-linecap="round" stroke-linejoin="round" x="181.12" y="362.08" width="7.03" height="13.94"></rect>
            <path d="M165.78,229.92 C165.78,229.92 161,241 161.45,242.64 C161.9,244.28 164.36,243.58 166.12,240.43 C167.29,238.33 169.98,232.26 169.98,232.26" id="Path" fill="#FFFFFF" fill-rule="nonzero"></path>
            <path d="M230,190.57 C230,190.57 235.3,195.1 231.78,200.65 C228.26,206.2 228.78,208.48 231.04,212.25" id="Path" stroke="#DADEE3" stroke-width="2" stroke-linecap="round" stroke-linejoin="round"></path>
            <path d="M239.12,195.73 C239.12,195.73 243.07,199.1 240.45,203.23 C237.83,207.36 238.21,209.06 239.9,211.87" id="Path" stroke="#DADEE3" stroke-width="2" stroke-linecap="round" stroke-linejoin="round"></path>
            <circle id="Oval" stroke="#DADEE3" stroke-width="2" cx="41.22" cy="84.27" r="5.92"></circle>
            <circle id="Oval" stroke="#DADEE3" stroke-width="2" cx="92.25" cy="104.75" r="5.92"></circle>
            <circle id="Oval" stroke="#DADEE3" stroke-width="2" cx="142.77" cy="78.66" r="5.92"></circle>
            <circle id="Oval" stroke="#DADEE3" stroke-width="2" cx="201.25" cy="98.18" r="5.92"></circle>
            <circle id="Oval" stroke="#DADEE3" stroke-width="2" cx="259.46" cy="76.96" r="5.92"></circle>
            <path d="M47.36,87.79 L86.54,104.87" id="Path" stroke="#DADEE3" stroke-width="2"></path>
            <path d="M98.6,104.87 L137.78,81.76" id="Path" stroke="#DADEE3" stroke-width="2"></path>
            <path d="M148.84,78.75 L195.05,97.84" id="Path" stroke="#DADEE3" stroke-width="2"></path>
            <path d="M207.11,97.84 L253.28,77.54" id="Path" stroke="#DADEE3" stroke-width="2"></path>
            <path d="M139.41,142.08 C132.9,145.03 124.32,148.82 119.19,151.6 C114.77,153.99 109.64,158.47 109.64,173.19 C109.64,184.24 109.94,191.53 110.88,202.26 C111.88,213.9 116.13,215.66 120.27,215.66 C123.84,215.66 126.72,212.37 126.72,212.37 L126.72,222.37 L165.89,222.37 C165.371441,225.071524 164.703753,227.742275 163.89,230.37 C163.89,230.37 169.89,233.37 170.89,233.37 C171.89,233.37 185,201.32 186,197.3 C187,193.28 186,175.08 186,165.88 C186,162.26 185.22,154.05 178,151.08 C173,149.03 158.8,142.89 155.78,141.89 C154.421968,145.056864 151.29564,147.09903 147.85,147.07 C140.85,147.07 139.41,142.08 139.41,142.08 Z" id="Path" stroke="#363D49" stroke-width="2" fill="#FFFFFF" fill-rule="nonzero" stroke-linecap="round" stroke-linejoin="round"></path>
            <path d="M152.83,186.480128 L147.6,186.480128 C147.084733,186.480128 146.665482,186.065238 146.66,185.55 L146.66,170.9 C146.66,170.651606 146.759339,170.413529 146.935917,170.23883 C147.112494,170.064131 147.351621,169.967329 147.6,169.969946 L154.85,169.969946 C155.363625,169.969946 155.78,170.386375 155.78,170.9 L155.78,183.68 C155.773638,183.940284 155.666012,184.187824 155.48,184.37 L153.48,186.23 C153.30389,186.394374 153.070868,186.483998 152.83,186.480128 Z" id="Path" stroke="#363D49" stroke-width="2" fill="#363D49" fill-rule="nonzero" stroke-linecap="round" stroke-linejoin="round"></path>
            <path d="M147.26,192.78 C147.26,192.78 152.36,188.53 154.06,186.83 C156.61,184.28 156.61,181.73 154.91,181.73 C153.21,181.73 143.91,189.38 143.91,189.38" id="Path" stroke="#363D49" stroke-width="2" fill="#FFFFFF" fill-rule="nonzero"></path>
            <polyline id="Path" stroke="#363D49" stroke-width="2" stroke-linecap="round" stroke-linejoin="round" points="165.78 222.99 172.1 193.3 171.33 167.49"></polyline>
            <polyline id="Path" stroke="#363D49" stroke-width="2" stroke-linecap="round" stroke-linejoin="round" points="126.42 212.69 148.6 195.32 142.29 187.21 124.55 199.53 124.31 168.67"></polyline>
            <path d="M168.72,286.55 L154.96,246.53" id="Path" stroke="#F5F6F7" stroke-width="2" stroke-linecap="round" stroke-linejoin="round"></path>
            <path d="M157,375.07 L173.23,375.07 C174.008721,375.07 174.64,375.701279 174.64,376.48 L174.64,376.67 C174.64,377.043955 174.491447,377.402594 174.227021,377.667021 C173.962594,377.931447 173.603955,378.08 173.23,378.08 L158.23,378.08 C157.539644,378.08 156.98,377.520356 156.98,376.83 L156.98,375.06 L157,375.07 Z" id="Path" fill="#363D49" fill-rule="nonzero"></path>
            <path d="M180.12,375.07 L196.35,375.07 C197.128721,375.07 197.76,375.701279 197.76,376.48 L197.76,376.67 C197.76,377.043955 197.611447,377.402594 197.347021,377.667021 C197.082594,377.931447 196.723955,378.08 196.35,378.08 L181.35,378.08 C180.659644,378.08 180.1,377.520356 180.1,376.83 L180.1,375.06 L180.12,375.07 Z" id="Path" fill="#363D49" fill-rule="nonzero"></path>
            <path d="M313.72,299.16 L340.84,299.16 C341.944569,299.16 342.84,300.055431 342.84,301.16 L342.84,377.16 L311.639999,377.16 L311.639999,301.16 C311.639564,300.615411 311.861224,300.094193 312.253782,299.716733 C312.64634,299.339273 313.175846,299.138216 313.72,299.16 Z" id="Path" stroke="#A6AFBC" stroke-width="2"></path>
            <path d="M359.51,321.999615 L386.51,321.999615 C387.658752,321.999615 388.59,322.931248 388.59,324.08 L388.59,377.08 L357.39,377.08 L357.39,324.08 C357.39,323.521349 357.614521,322.986139 358.013291,322.594893 C358.412061,322.203647 358.951452,321.989257 359.51,321.999615 Z" id="Path" stroke="#DADEE3" stroke-width="2" fill="#F5F6F7" fill-rule="nonzero"></path>
            <path d="M405.27,343.87 L432.27,343.87 C433.418752,343.87 434.35,344.801248 434.35,345.95 L434.35,377.15 L403.15,377.15 L403.15,346 C403.136252,345.43273 403.354857,344.884468 403.755151,344.482286 C404.155444,344.080105 404.702671,343.858921 405.27,343.87 L405.27,343.87 Z" id="Path" stroke="#A6AFBC" stroke-width="2"></path>
            <circle id="Oval" stroke="#C2EAD8" stroke-width="2" fill="#F3FBF7" fill-rule="nonzero" cx="95.57" cy="296.77" r="22.31"></circle>
            <path d="M438.9,377.15 L207.86,377.15" id="Path" stroke="#DADEE3" stroke-width="2" stroke-linecap="round"></path>
            <path d="M552.81,377.15 L477.38,377.15" id="Path" stroke="#DADEE3" stroke-width="2" stroke-linecap="round"></path>
        </g>
    </g>
</svg>