<svg width="560" height="400" xmlns="http://www.w3.org/2000/svg"><g fill="none" fill-rule="evenodd"><path d="M0 0h560v400H0z"/><rect fill="#DADEE3" fill-rule="nonzero" opacity=".3" x="238" y="53.89" width="271.44" height="321.25" rx="4.13"/><path d="M258.77 34.29V20.88a4.13 4.13 0 014.13-4.13h268.2a4.13 4.13 0 014.13 4.13v327a4.12 4.12 0 01-4.13 4.12h-21.66" stroke="#DBDFE4" stroke-width="2"/><rect fill="#FFF" fill-rule="nonzero" x="202.04" y="34.7" width="283.67" height="163.6" rx="4.13"/><path d="M77.94 393.26H11.61M222.67 393.26h-66.33" stroke="#DADEE3" stroke-width="2" stroke-linecap="round"/><path d="M238 216.87v-18.78M238 281.86v-18.57M238 346.84v-18.56M485.71 53.89h19.64a4.09 4.09 0 014.09 4.11v313a4.13 4.13 0 01-4.13 4.13h-19.6" stroke="#DADEE3" stroke-width="2"/><path d="M103 104.43v9.29l2.06 4.12-2.06 1v8.63a1.53 1.53 0 01-1.51 1.59l-3-.19 1.46 11.63-9.29 5.16-10.31-4.13V106.5l22.65-2.07z" stroke="#363D49" stroke-width="2" fill="#F5F6F7" fill-rule="nonzero" stroke-linecap="round" stroke-linejoin="round"/><path d="M232.92 198.3h-26.75a4.12 4.12 0 01-4.13-4.12V99.25" stroke="#0A9557" stroke-width="2"/><rect stroke="#A6AFBC" stroke-width="2" fill="#FFF" fill-rule="nonzero" x="202.04" y="216.87" width="283.67" height="46.42" rx="2.06"/><path d="M246.4 53.89H332a4.13 4.13 0 014.14 4.11v140.3H222.67V55.74" fill="#E6F7EF" fill-rule="nonzero"/><path d="M357.8 63.17h99.03M357.8 78.65h61.3M357.8 94.12h61.3" stroke="#C2EAD8" stroke-width="2" fill="#C2EAD8" fill-rule="nonzero" stroke-linecap="round" stroke-linejoin="round"/><path d="M252.58 232.34h125.85M252.58 247.82h62.93" stroke="#DADEE3" stroke-width="2" stroke-linecap="round" stroke-linejoin="round"/><rect stroke="#C2EAD8" stroke-width="2" fill="#E6F7EF" fill-rule="nonzero" x="357.8" y="111.65" width="23.58" height="23.58" rx="2.06"/><rect stroke="#DADEE3" stroke-width="2" fill="#F5F6F7" fill-rule="nonzero" x="214.42" y="228.22" width="23.58" height="23.58" rx="2.06"/><rect stroke="#A6AFBC" stroke-width="2" fill="#FFF" fill-rule="nonzero" x="202.04" y="281.86" width="283.67" height="46.42" rx="2.06"/><path d="M252.58 297.33h125.85M252.58 312.8h62.93" stroke="#DADEE3" stroke-width="2" stroke-linecap="round" stroke-linejoin="round"/><rect stroke="#DADEE3" stroke-width="2" fill="#F5F6F7" fill-rule="nonzero" x="214.42" y="293.21" width="23.58" height="23.58" rx="2.06"/><rect stroke="#A6AFBC" stroke-width="2" fill="#FFF" fill-rule="nonzero" x="202.04" y="346.84" width="283.67" height="46.42" rx="2.06"/><path d="M252.58 362.32h125.85M252.58 377.79h62.93" stroke="#DADEE3" stroke-width="2" stroke-linecap="round" stroke-linejoin="round"/><rect stroke="#DADEE3" stroke-width="2" fill="#F5F6F7" fill-rule="nonzero" x="214.42" y="358.19" width="23.58" height="23.58" rx="2.06"/><rect stroke="#C2EAD8" stroke-width="2" fill="#E6F7EF" fill-rule="nonzero" x="395.53" y="111.65" width="23.58" height="23.58" rx="2.06"/><rect stroke="#C2EAD8" stroke-width="2" fill="#E6F7EF" fill-rule="nonzero" x="433.25" y="111.65" width="23.58" height="23.58" rx="2.06"/><circle stroke="#0A9557" stroke-width="2" fill="#0FB167" fill-rule="nonzero" cx="369.66" cy="166.84" r="12.89"/><path stroke="#FFF" stroke-width="2" stroke-linecap="round" stroke-linejoin="round" d="M363.79 166.53l4.4 4.4 8.18-8.18"/><circle stroke="#DADEE3" stroke-width="2" fill="#F5F6F7" fill-rule="nonzero" cx="462.5" cy="241.11" r="9.8"/><path stroke="#DADEE3" stroke-width="2" stroke-linecap="round" stroke-linejoin="round" d="M458.04 240.88l3.34 3.34 6.22-6.22"/><circle stroke="#DADEE3" stroke-width="2" fill="#F5F6F7" fill-rule="nonzero" cx="462.5" cy="305.07" r="9.8"/><path stroke="#DADEE3" stroke-width="2" stroke-linecap="round" stroke-linejoin="round" d="M458.04 304.83l3.34 3.35 6.22-6.22"/><circle stroke="#DADEE3" stroke-width="2" fill="#F5F6F7" fill-rule="nonzero" cx="462.5" cy="369.02" r="9.8"/><path stroke="#DADEE3" stroke-width="2" stroke-linecap="round" stroke-linejoin="round" d="M458.04 368.79l3.34 3.34 6.22-6.22"/><path d="M158.71 20.88H89.6A5.16 5.16 0 0084.44 26v55.29a2.06 2.06 0 003.43 1.55l11.77-10.38H167a5.15 5.15 0 005.15-5.16V56" stroke="#0A9557" stroke-width="2" fill="#F3FBF7" fill-rule="nonzero"/><path d="M270.49 91.22c-8.14 1.35-10.32 6.18-12.38 12.37-2.06 6.19-4.89 12.47-7 18.2 6.67 4.31 16.75 6.55 20.88 6.55 4.13 0 17.27-3.46 21.39-6.55-2.61-7.16-4.39-12.3-7.4-20.26-3.12-8.19-9.31-11.35-15.49-10.31z" stroke="#363D49" stroke-width="2" fill="#363D49" fill-rule="nonzero"/><path d="M263.25 104.81s-.5 5.09-.5 10.65c0 4.12 4.61 8 4.61 8l-.93 8.62-1.77 4.58 10.13 3.52 9.68-2.66-3.28-6-1-7.33-.07-16.45a2.06 2.06 0 00-2.74-1.94c-3.38 1.11-9.3 2.46-14.13-.99z" stroke="#363D49" stroke-width="2" fill="#F5F6F7" fill-rule="nonzero" stroke-linecap="round" stroke-linejoin="round"/><path d="M263.2 105.34s-.45 4.43-.45 9.83c0 4 3.66 9.18 9.22 8.93" stroke="#363D49" stroke-width="2" stroke-linecap="round" stroke-linejoin="round"/><path d="M97.85 96.18c1-1 4.13-3.09 6.19-1 2.06 2.09 3.1 7.22-1 9.28-4.1 2.06-12.38 3.1-12.38 3.1l-1.24 7s-1.46-3.44-4.12-2.88c-3 .63-2.89 8.37 2.27 9.4v5.09l-7.22 2.06s-2.07-11.35-3.1-12.38c-1.03-1.03-6.19-6.19-1-10.31 0-3.1 1-8.26 8.25-7.23 2.01-4.19 8.2-6.25 13.35-2.13z" stroke="#363D49" stroke-width="2" fill="#363D49" fill-rule="nonzero" stroke-linecap="round" stroke-linejoin="round"/><path d="M71 228.22s4.13 79.43 4.13 84.58v79.43h9.28s10.32-75.35 11.35-85.61c1.03-10.26 2.06-36.11 2.06-36.11s13.41 29.92 15.48 36.11c2.07 6.19 7.22 85.61 7.22 85.61h10.31s2.07-78.39 2.07-84.58c0-6.19-14.74-81.48-14.74-81.48L71 228.22z" stroke="#363D49" stroke-width="2" fill="#FFF" fill-rule="nonzero" stroke-linecap="round" stroke-linejoin="round"/><path d="M74.16 391.19h19.08a1.55 1.55 0 010 3.1H75.53a1.37 1.37 0 01-1.37-1.37v-1.73zM119.48 391.2h19.08a1.55 1.55 0 011.55 1.55 1.55 1.55 0 01-1.55 1.55h-17.71a1.37 1.37 0 01-1.37-1.37v-1.73z" fill="#363D49" fill-rule="nonzero"/><path d="M179.35 156s11.34-9.28 13.41-9.28c2.07 0 2.06 3.09-1 6.19-2.06 2.06-8.25 7.22-8.25 7.22" stroke="#363D49" stroke-width="2" fill="#F5F6F7" fill-rule="nonzero"/><path d="M186.66 79.7s-2.77 7.37 2.84 12.41M207.89 81.22s-1.79-7.66-9.31-9M215.5 79.28s-3-13-15.79-15.25M179.28 77.42s-3.66 12.82 6.52 20.64" stroke="#A6AFBC" stroke-width="2" stroke-linecap="round"/><path d="M205.26 93.23s-7.14-12.8-9.06-13.56c-1.92-.76-3.06 2.12-1.32 6.14 1.17 2.67 5.28 10.3 5.28 10.3" stroke="#363D49" stroke-width="2"/><path d="M197.75 94.35l6.91-4.51a.16.16 0 01.21 0c1 1.69 12.31 20.12 16.22 26.6.86 1.42 2.21 1.86 3.31 2.42l23.19 11.75a14.44 14.44 0 005.34 1.41h13.5s.42 3 7.56 3c6.42 0 7.17-3.85 7.17-3.85l14.44 5.36a12.28 12.28 0 016.82 5.8c4 6.87 14.19 24.52 18.42 31.81a10 10 0 011.33 6.88c-.56 4.31-2.49 17.19-2.49 17.19l-8-.21s-.19-11.83-.25-15.78a6.51 6.51 0 00-1.76-4.64L298 165.08l-4.44 33H254.4s-2.77-28.45-4-38c-.8-6.43-4.27-9.11-7.57-11.56-6.9-5.12-19.38-13.61-24.24-17.23a24.67 24.67 0 01-5.75-7c-3.84-7-14.31-28-15.18-29.77a.15.15 0 01.09-.17h0z" stroke="#363D49" stroke-width="2" fill="#363D49" fill-rule="nonzero"/><path d="M299.61 166.87l-4.5-4.74" stroke="#363D49" stroke-width="2" stroke-linecap="round"/><path d="M242.27 4.38h-79.43a4.121 4.121 0 00-4.13 4.12v43.33a4.131 4.131 0 004.13 4.17h68.36L243 66.34a2.07 2.07 0 003.43-1.55V8.5a4.12 4.12 0 00-4.16-4.12h0z" stroke="#0A9557" stroke-width="2" fill="#F3FBF7" fill-rule="nonzero"/><path d="M80.32 141.57s-18.57 6.19-21.66 8.25c-3.09 2.06-7.23 8.25-6.19 17.54s7.22 34 8.25 38.16a19.77 19.77 0 004.12 8.26c1 1 5.16 4.12 5.16 4.12l1.1 11.57 47.38-1.25 2.07-54.67s16.5 14.44 18.57 16.5c2.07 2.06 5.15 3.1 9.28 0 3.75-2.81 30.47-22.64 35.34-26.25a1 1 0 00.24-1.36l-5.15-7.72a1 1 0 00-1.32-.31c-3.87 2.2-20.6 11.73-26.69 15.12-2.65 1.47-4.65.57-6.48-1.55-5.59-6.45-17.08-19.7-18.63-21.25-2.07-2.07-6.19-6.19-12.38-6.19H101s-8.25 3.09-11.35 3.09c-3.1 0-9.33-2.06-9.33-2.06z" stroke="#363D49" stroke-width="2" fill="#363D49" fill-rule="nonzero"/><path d="M99.8 274.88l-8.51-21.38" stroke="#363D49" stroke-width="2" fill="#F5F6F7" fill-rule="nonzero" stroke-linecap="round"/><path d="M70 217.9l-3.46-49.7M122.9 175.61l-6.52-6.19" stroke="#363D49" stroke-width="2" stroke-linecap="round" stroke-linejoin="round"/><path d="M93.17 127.66a13.91 13.91 0 006 1.29" stroke="#363D49" stroke-width="2" fill="#F5F6F7" fill-rule="nonzero" stroke-linecap="round" stroke-linejoin="round"/><circle stroke="#0FB167" fill="#0FB167" fill-rule="nonzero" cx="202.08" cy="30.22" r="4.48"/><circle stroke="#0FB167" fill="#0FB167" fill-rule="nonzero" cx="182.4" cy="30.22" r="4.48"/><circle stroke="#0FB167" fill="#0FB167" fill-rule="nonzero" cx="221.76" cy="30.22" r="4.48"/><circle stroke="#0FB167" fill="#0FB167" fill-rule="nonzero" cx="128.28" cy="47.05" r="4.48"/><circle stroke="#0FB167" fill="#0FB167" fill-rule="nonzero" cx="108.61" cy="47.05" r="4.48"/><circle stroke="#0FB167" fill="#0FB167" fill-rule="nonzero" cx="147.96" cy="47.05" r="4.48"/><path d="M68.27 220.1l-2.7-45.41" stroke="#F5F6F7" stroke-width="2" stroke-linecap="round" stroke-linejoin="round"/><path d="M246.4 34.29h235.19a4.13 4.13 0 014.12 4.13v155.76a4.12 4.12 0 01-4.12 4.12H214.42" stroke="#0A9557" stroke-width="2"/><path fill="#363D49" fill-rule="nonzero" d="M92.5 128.4l6.38 8.09-.32-6.77zM90.32 253.7l5.23 46.26 2.27-28.69z"/></g></svg>