<svg width="560" height="400" xmlns="http://www.w3.org/2000/svg"><g fill="none" fill-rule="evenodd"><path d="M0 0h560v400H0z"/><rect fill="#DBDFE4" fill-rule="nonzero" opacity=".5" x="56.56" y="25.29" width="477.79" height="312.08" rx="3.91"/><rect stroke="#DBDFE4" stroke-width="2" x="177.41" y="239.08" width="91.63" height="61.08" rx="1.91"/><rect fill="#FFF" fill-rule="nonzero" x="41.56" y="8.11" width="477.22" height="314.96" rx="3.82"/><path d="M41.56 198h477.22v121.13a3.94 3.94 0 01-3.94 3.94H41.56V198z" fill="#DADEE3" fill-rule="nonzero" opacity=".3"/><path fill="#DBDFE4" fill-rule="nonzero" opacity=".3" d="M366.83 260.55l-18.221 18.223-18.223-18.222 18.223-18.222z"/><path d="M518.78 33.88l-319.67.29a3.94 3.94 0 01-3.94-4l.11-9.75a3.93 3.93 0 00-3.94-4h-86.65a3.94 3.94 0 00-3.94 3.94v9.88a3.94 3.94 0 01-3.91 3.95l-54.94.44V12a3.93 3.93 0 013.94-3.94h472.94v25.82z" fill="#DADEE3" fill-rule="nonzero" opacity=".3"/><path d="M202.32 33.88h316.46M41.56 33.88h52.55M108.84 16.7h82.57M204.66 33.88h-5.74a3.82 3.82 0 01-3.82-3.82v-9.55a3.82 3.82 0 00-3.82-3.81h-7.39M91.3 33.88H97a3.82 3.82 0 003.82-3.82v-9.55a3.82 3.82 0 013.82-3.81h7.4" stroke="#DADEE3" stroke-width="2"/><path d="M199 16.7h86.9a3.82 3.82 0 013.82 3.82v13.36H199a3.82 3.82 0 01-3.82-3.82v-9.55A3.82 3.82 0 01199 16.7h0z" stroke="#DADEE3" stroke-width="2"/><circle fill="#DADEE3" fill-rule="nonzero" cx="56.56" cy="21.49" r="3.82"/><circle fill="#DADEE3" fill-rule="nonzero" cx="70.84" cy="21.49" r="3.82"/><circle fill="#DADEE3" fill-rule="nonzero" cx="85.13" cy="21.49" r="3.82"/><path d="M299.26 22.53h8.79M303.66 26.92v-8.79" stroke="#DADEE3" stroke-width="2" stroke-linecap="round" stroke-linejoin="round"/><rect stroke="#C2EAD8" stroke-width="2" fill="#F3FBF7" fill-rule="nonzero" x="270.63" y="63.46" width="167.98" height="104.99" rx="1.91"/><circle stroke="#0A9557" stroke-width="2" fill="#0FB167" fill-rule="nonzero" cx="461.51" cy="69.19" r="4.77"/><circle stroke="#DADEE3" stroke-width="2" fill="#F5F6F7" fill-rule="nonzero" cx="461.51" cy="116.91" r="4.77"/><circle stroke="#DADEE3" stroke-width="2" fill="#F5F6F7" fill-rule="nonzero" cx="461.51" cy="140.77" r="4.77"/><circle stroke="#DADEE3" stroke-width="2" fill="#F5F6F7" fill-rule="nonzero" cx="461.51" cy="93.05" r="4.77"/><rect stroke="#C2EAD8" stroke-width="1.997" fill="#F3FBF7" fill-rule="nonzero" transform="rotate(-7.481 222.225 254.228)" x="195.54" y="227.543" width="53.37" height="53.37" rx="1.91"/><rect stroke="#F3FBF7" stroke-width="2" fill="#0FB167" fill-rule="nonzero" transform="rotate(17.13 249.606 253.412)" x="222.881" y="226.687" width="53.45" height="53.45" rx="1.91"/><path d="M276.35 292.53l-3.17 13.74a2 2 0 01-1.92 1.53h-75.08" stroke="#0A9557" stroke-width="2" stroke-linecap="round" stroke-linejoin="round"/><rect fill="#DADEE3" fill-rule="nonzero" opacity=".3" x="75.8" y="221.15" width="78.81" height="78.81" rx="2.01"/><circle fill="#FFF" fill-rule="nonzero" opacity=".5" cx="115.21" cy="260.56" r="16.37"/><rect stroke="#DBDFE4" stroke-width="2" x="309.2" y="221.15" width="78.81" height="78.81" rx="2.01"/><path d="M376.43 139.29v-29.14a1 1 0 00-.5-.87l-25.24-14.57a1 1 0 00-1 0l-25.23 14.57a1 1 0 00-.51.87v29.14a1 1 0 00.51.88l25.23 14.57a1 1 0 001 0l25.24-14.57a1 1 0 00.5-.88z" stroke="#C2EAD8" stroke-width="2" stroke-linecap="round" stroke-linejoin="round"/><path d="M350.17 124.06V94.92a1 1 0 00-.51-.88l-25.23-14.57a1 1 0 00-1 0L298.18 94a1 1 0 00-.5.88v29.14a1 1 0 00.5.87l25.24 14.57a1 1 0 001 0l25.23-14.57a1 1 0 00.52-.83zM414.81 131.23V102.6a1 1 0 00-.5-.86l-24.79-14.32a1 1 0 00-1 0l-24.79 14.32a1 1 0 00-.5.86v28.63a1 1 0 00.5.86l24.79 14.31a1 1 0 001 0l24.79-14.31a1 1 0 00.5-.86z" stroke="#C2EAD8" stroke-width="2" stroke-linecap="round" stroke-linejoin="round"/><path d="M376.41 139.41a1 1 0 01-.48.76l-25.24 14.57a1 1 0 01-1 0l-25.23-14.57a.92.92 0 01-.44-.55.87.87 0 00.42-.12l25.24-14.57a1 1 0 00.5-.88V94.92a.8.8 0 00-.07-.34 1 1 0 01.59.13l12.72 7.34c-.12.15 13 7.21 13 7.21l-.01 30.15zM350.1 94.58a.9.9 0 00-.42.13l-25.23 14.57a1 1 0 00-.51.87v29.14a.78.78 0 00.07.33 1 1 0 01-.6-.12l-25.22-14.57a1 1 0 01-.52-.88V94.92a1 1 0 01.52-.88l25.22-14.57a1 1 0 011 0L349.67 94a1 1 0 01.43.58z" stroke="#4AC48D" stroke-width="2" fill="#E6F7EF" fill-rule="nonzero" stroke-linecap="round" stroke-linejoin="round"/><path d="M414.8 102.6v28.63a1 1 0 01-.49.85l-24.79 14.32a1 1 0 01-1 0l-12.11-7a.25.25 0 000-.12v-29.13a1 1 0 00-.5-.87l-12.52-7.23a.87.87 0 01.32-.31l24.79-14.31a1 1 0 011 0l24.79 14.31a1 1 0 01.51.86z" stroke="#4AC48D" stroke-width="2" fill="#E6F7EF" fill-rule="nonzero" stroke-linecap="round" stroke-linejoin="round"/><path d="M315.49 223.81s-11.81 2.92-13.28 2.24c-1.47-.68-.43-2.88 2.79-4.05 2.15-.77 9.86-2.67 9.86-2.67" stroke="#363D49" stroke-width="2" fill="#FFF" fill-rule="nonzero"/><path d="M359.39 134.09a8.82 8.82 0 01-4.77-10.5c.95-1.91 0 1 9.5 1.51 11.56.67 12.79-1.82 16.27 2.31 4.58 5.46 1.91 25.77 1.91 25.77h-10.5l-1.91-12.41-10.5-6.68z" stroke="#363D49" stroke-width="2" fill="#363D49" fill-rule="nonzero"/><circle stroke="#0A9557" stroke-width="2" fill="#E6F7EF" fill-rule="nonzero" cx="302.12" cy="224.76" r="4.77"/><path d="M297.35 226.67l-6.42 3.11a2 2 0 00-1.06 1.31l-3 12.76" stroke="#0A9557" stroke-width="2"/><path d="M187.59 393.45h-85.91M357.02 393.21h-96.41M550.79 393.21H409.2" stroke="#DADEE3" stroke-width="2" stroke-linecap="round"/><path d="M359.39 134.09v8.59c0 1-2.86 4.72-2.86 5.68s2.86 1 2.86 1v5.77a3.08 3.08 0 002.86 2.82c1.91 0 4.61-1.77 4.61-1.77l-1.74 11.32 6 3.4 9.41-1.33 1.78-4.94v-11.45s-6-1.88-7.94-2.64c-.93-.37-2.56-1.18-2.56-3.09v-3.81s4-3.94 2.56-6c-1.71-2.51-4.47 1.23-4.47 1.23l-10.51-4.78zM364.74 157.31l5.23-2.77" stroke="#363D49" stroke-width="2" fill="#FFF" fill-rule="nonzero" stroke-linecap="round" stroke-linejoin="round"/><path d="M276.35 292.53h-78.63a1.9 1.9 0 01-1.86-1.51l-9.93-46a1 1 0 01.93-1.16h100l-10.51 48.67z" stroke="#0A9557" stroke-width="2" fill="#E6F7EF" fill-rule="nonzero"/><path d="M197.17 257.18h77.75M199.14 268.55h73.81M202.09 280.04H270M203.85 251.49l6.68 33.95M217.21 251.49l6.68 33.95M230.57 251.49l6.68 33.95M243.93 251.49l6.68 33.95M257.3 251.49l6.68 33.95" stroke="#C2EAD8" stroke-width="2" stroke-linecap="round" stroke-linejoin="round"/><path d="M395.42 394.17h-15.36a1.39 1.39 0 01-1.39-1.39v-.08c0-.768.622-1.39 1.39-1.39h16.59v1.64a1.23 1.23 0 01-1.23 1.22zM360.97 394.17h-15.36a1.39 1.39 0 01-1.39-1.39v-.08c0-.768.622-1.39 1.39-1.39h16.58v1.64a1.23 1.23 0 01-1.22 1.22z" fill="#363D49" fill-rule="nonzero"/><path d="M375.93 109.28l13.58 7.62M297.68 94.58l26.26 15.57" stroke="#4AC48D" stroke-width="2" fill="#E6F7EF" fill-rule="nonzero" stroke-linecap="round" stroke-linejoin="round"/><path d="M389 87.62v28.61a1 1 0 00.49.86l24.78 14.31a.94.94 0 00.42.11.87.87 0 00.06-.32v-28.6a1 1 0 00-.5-.86L389.5 87.42a.86.86 0 00-.41-.13.78.78 0 00-.09.33zM350.17 94.92v29.13a1 1 0 01-.5.88l-25.24 14.57a.87.87 0 01-.42.12.78.78 0 01-.07-.33v-29.14a1 1 0 01.51-.87l25.23-14.57a.9.9 0 01.42-.13.802.802 0 01.07.34h0z" stroke="#0A9557" stroke-width="2" fill="#0FB167" fill-rule="nonzero" stroke-linecap="round" stroke-linejoin="round"/><path fill="#363D49" fill-rule="nonzero" d="M370.67 154.77l-4.86 11.2 1.45-9.51zM354.83 218.85l.46 6.31 11.27-8.61z"/><rect fill="#DADEE3" fill-rule="nonzero" opacity=".5" x="90.68" y="63.46" width="48.84" height="48.84" rx="1.97"/><rect fill="#DADEE3" fill-rule="nonzero" opacity=".25" x="146.66" y="63.46" width="48.84" height="48.84" rx="1.97"/><rect fill="#DADEE3" fill-rule="nonzero" opacity=".5" x="202.3" y="63.46" width="48.84" height="48.84" rx="1.97"/><rect fill="#DADEE3" fill-rule="nonzero" opacity=".25" x="90.68" y="119.61" width="48.84" height="48.84" rx="1.97"/><rect fill="#DADEE3" fill-rule="nonzero" opacity=".5" x="146.66" y="119.61" width="48.84" height="48.84" rx="1.97"/><rect fill="#DADEE3" fill-rule="nonzero" opacity=".25" x="202.3" y="119.61" width="48.84" height="48.84" rx="1.97"/><path d="M157.68 143.16s-7.22 14.74-11 24.05c-1.44 3.53-1.63 7.29-.48 9.32 6.57 11.57 12.4 21.51 12.4 21.51h9.82s-5.71-13.61-9.59-23.18c1.11-3.37 6.54-16.19 6.54-16.19L169.4 198H208l4.1-39.86s12.94 4.6 20.29 6.77c4.7 1.39 6.65 2.44 9.43.3 9.57-7.37 35.51-29.25 35.51-29.25l-4.77-5.73s-19.41 13.27-28.14 19.17c-3.23 2.17-4.94 1.86-7.44.7-8.18-3.84-20.74-10.32-20.74-10.32l-19.05-9.55-23.56.93L158 143.71" stroke="#363D49" stroke-width="2" fill="#FFF" fill-rule="nonzero" stroke-linecap="round" stroke-linejoin="round"/><path d="M273.24 131.47s8.89-7.27 10.5-7.27c1.61 0 1.62 2.43-.81 4.85-1.61 1.61-6.93 5.95-6.93 5.95" stroke="#363D49" stroke-width="2"/><path d="M184.27 88.94c-5.79.48-11.07 4.22-13 9-1.93 4.78-.75 7.65-2.66 10.51-1.91 2.86-5.93 4.25-5.93 12.4a15.84 15.84 0 01-3.65 9.73c-4.56 5.21-2.7 11-1.1 14.13 9.12-1.74 10.34 6 17.09 4.67 2.57-.5 7.89-4.85 7.89-4.85s-2.76-8.13-2.76-11c0-2.87 5-11.13 5-11.13s7.15 8.12 7.15 11a73.12 73.12 0 01-.84 8.22s6.27 4.51 13.9 3.56c7.63-.95 9.68-3.92 10.73-7.14-4.77-4-6.5-7.54-6.5-15.9a24.4 24.4 0 00-5.72-15.93c-4.49-5.14-4-9.78-8.43-13.82-3.08-2.87-8.74-3.65-11.17-3.45z" stroke="#363D49" stroke-width="2" fill="#363D49" fill-rule="nonzero" stroke-linecap="round" stroke-linejoin="round"/><path d="M181.72 121.64c-.7 3.59-1.55 10.42-1.55 10.42a6.49 6.49 0 005.51 3 11.18 11.18 0 006.68-2.51l-1.1-10.71" stroke="#363D49" stroke-width="2" fill="#FFF" fill-rule="nonzero" stroke-linecap="round" stroke-linejoin="round"/><path d="M41.56 198.04h477.22" stroke="#DADEE3" stroke-width="2"/><path stroke="#363D49" stroke-width="2" fill="#FFF" fill-rule="nonzero" stroke-linecap="round" stroke-linejoin="round" d="M326.57 213.74l16.2-12.84 11.85-19.09 4.5 24.82-27.26 8.25-5.29-1.14"/><path d="M365.23 167a36.89 36.89 0 00-6.46 4.42c-4.5 3.92-6.58 12.28-6.13 17.94.39 4.76 3.89 52.8 3.89 52.8h35.31s4.82-52.55 4.82-57.32c0-4.77-1-10.31-4.82-14.26-1.87-1.95-9.54-6.68-9.54-6.68a16.62 16.62 0 01-8.59 3.81c-5.71.91-8.48-.71-8.48-.71z" stroke="#363D49" stroke-width="2" fill="#FFF" fill-rule="nonzero" stroke-linecap="round"/><path d="M368 176.09s-10.5 23.86-13.36 26.72c-2.86 2.86-41 15.27-41 15.27l1.91 7.64s32.78-5.66 44.88-7.87c1.75-.32 5.64-1.07 7.65-4.11 5.76-8.68 16.18-28.11 16.18-28.11" stroke="#363D49" stroke-width="2" fill="#FFF" fill-rule="nonzero" stroke-linecap="round"/><rect stroke="#A6AFBC" stroke-width="2" x="41.56" y="8.11" width="477.22" height="314.96" rx="3.82"/><path d="M389 310.66l2.29-53.66.55-15h-35.31s-11.46 52.5-12.41 56.32a61.3 61.3 0 00-1 20c1 8.59 10.56 74.51 10.56 74.51h7.58s-.94-74.51-1-76.42c0-7.93 5.18-17.41 9.63-24.55 0 0 .87 16 1.35 21.69.48 5.69 16.76 79.28 16.76 79.28h7.58L389 310.66z" stroke="#363D49" stroke-width="2" fill="#363D49" fill-rule="nonzero" stroke-linecap="round" stroke-linejoin="round"/><path d="M366.67 301.83c3.11-7 8.57-13.47 13.08-21.9 2.71-5.05 7.54-15.11 9.27-21.06" stroke="#FFF" stroke-width="2" stroke-linecap="round" stroke-linejoin="round"/><path d="M194.42 356.3h84.63" stroke="#4AC48D" stroke-width="2"/><path d="M191.41 368.88h90.67" stroke="#86D7B3" stroke-width="2"/><path stroke="#0A9557" stroke-width="2" d="M189.53 378.19l17.15-70.39h60.13l17.1 70.21"/><circle stroke="#0A9557" stroke-width="2" fill="#E6F7EF" fill-rule="nonzero" cx="187.59" cy="385.57" r="7.64"/><circle fill="#C2EAD8" fill-rule="nonzero" cx="187.59" cy="385.57" r="2.86"/><circle stroke="#0A9557" stroke-width="2" fill="#E6F7EF" fill-rule="nonzero" cx="284.94" cy="385.57" r="7.64"/><circle fill="#C2EAD8" fill-rule="nonzero" cx="284.94" cy="385.57" r="2.86"/><rect fill="#DADEE3" fill-rule="nonzero" opacity=".3" x="406.84" y="221.15" width="78.81" height="78.81" rx="2.01"/><path fill="#FFF" fill-rule="nonzero" opacity=".5" d="M462.47 269.92v-18.73l-16.23-9.37-16.22 9.37v18.73l16.22 9.37z"/><path fill="#363D49" fill-rule="nonzero" d="M354.85 219.1l.3 4.16 9.99-6.11z"/><path d="M188.94 100.44c-5 4.13-9.07 5-10.05 5.94-.98.94-.93 5.08-.35 7.93.58 2.85 2.62 8.55 8.44 9 6.91.58 7.35-10.4 6.86-14.32-.25-1.99-1.84-11.07-4.9-8.55z" stroke="#363D49" stroke-width="2" fill="#FFF" fill-rule="nonzero" stroke-linecap="round" stroke-linejoin="round"/></g></svg>