<svg width="560" height="400" xmlns="http://www.w3.org/2000/svg"><g fill="none" fill-rule="evenodd"><path d="M0 0h560v400H0z"/><path d="M0 0h560v400H0z"/><rect fill="#DBDFE4" fill-rule="nonzero" opacity=".5" x="57.52" y="20.3" width="474" height="330" rx="4"/><rect fill="#FFF" fill-rule="nonzero" x="43.52" y="7.3" width="474" height="330" rx="4"/><circle fill="#DADEE3" fill-rule="nonzero" cx="58.52" cy="21.3" r="4"/><circle fill="#DADEE3" fill-rule="nonzero" cx="74.52" cy="21.3" r="4"/><circle fill="#DADEE3" fill-rule="nonzero" cx="90.52" cy="21.3" r="4"/><path d="M212.96 34.3h304.56M44.52 34.3h55.05M115.02 16.3h86.5M215.4 34.3h-6a4 4 0 01-4-4v-10a4 4 0 00-4-4h-7.75M96.63 34.3h6a4 4 0 004-4v-10a4 4 0 014-4h7.75" stroke="#DADEE3" stroke-width="2"/><path d="M214.52 22.4h9.22M219.13 27.01V17.8" stroke="#DADEE3" stroke-width="2" stroke-linecap="round" stroke-linejoin="round"/><rect fill="#E6F7EF" fill-rule="nonzero" x="82.02" y="65.23" width="110" height="110" rx="2.29"/><path d="M148.22 152.41h-23.47a2.16 2.16 0 01-2.13-1.75L118 126.85a2.17 2.17 0 012.13-2.57h32.67a2.16 2.16 0 012.12 2.57l-4.58 23.81a2.15 2.15 0 01-2.12 1.75h0z" stroke="#C2EAD8" stroke-width="2"/><path d="M161.85 101.56c-3.75 0-11.26 2.82-12.2 14.08 9.35.93 13.14-9.39 12.2-14.08zM137.45 101.56c3.76 0 11.26 2.82 12.2 14.08-9.38.93-13.13-9.39-12.2-14.08z" stroke="#C2EAD8" stroke-width="2" stroke-linecap="round" stroke-linejoin="round"/><path d="M136.59 101.56c-3.75 0-11.26 2.82-12.2 14.08 9.39.93 13.14-9.39 12.2-14.08zM112.2 101.56c3.75 0 11.26 2.82 12.19 14.08-9.39.93-13.13-9.39-12.19-14.08z" stroke="#C2EAD8" stroke-width="2" stroke-linecap="round" stroke-linejoin="round"/><path d="M151.83 88.05c-5.23.62-15.22 5.78-14.67 21.62 13.23-.24 16.75-15.24 14.67-21.62z" stroke="#C2EAD8" stroke-width="2" fill="#E6F7EF" fill-rule="nonzero" stroke-linecap="round" stroke-linejoin="round"/><path d="M122.22 88.05c5.22.62 15.22 5.78 14.67 21.62-13.23-.24-16.76-15.24-14.67-21.62z" stroke="#C2EAD8" stroke-width="2" fill="#E6F7EF" fill-rule="nonzero" stroke-linecap="round" stroke-linejoin="round"/><path d="M124.04 115.63l1.04 8.65M150.01 115.63l-1.05 8.65M136.91 109.67v14.51" stroke="#C2EAD8" stroke-width="2" stroke-linecap="round" stroke-linejoin="round"/><rect fill="#DADEE3" fill-rule="nonzero" opacity=".3" x="82.02" y="195.53" width="110" height="110" rx="2.29"/><rect fill="#DADEE3" fill-rule="nonzero" opacity=".3" x="225.52" y="195.53" width="110" height="110" rx="2.29"/><path d="M235.4 203.03h90.24a2.38 2.38 0 012.38 2.38v90.24a2.38 2.38 0 01-2.38 2.38H235.4a2.38 2.38 0 01-2.38-2.38v-90.24a2.38 2.38 0 012.38-2.38zM91.9 203.03h90.24a2.38 2.38 0 012.38 2.38v90.24a2.38 2.38 0 01-2.38 2.38H91.9a2.38 2.38 0 01-2.38-2.38v-90.24a2.38 2.38 0 012.38-2.38z" stroke="#DBDFE4" stroke-width="2" stroke-linecap="round" stroke-linejoin="round" stroke-dasharray="4.04"/><path fill="#DADEE3" fill-rule="nonzero" opacity=".3" d="M517.52 34.3H205.48l.22-18h-99.39v18H43.52v-27h474z"/><rect fill="#E6F7EF" fill-rule="nonzero" x="369.02" y="65.23" width="110" height="110" rx="2.29"/><rect fill="#DADEE3" fill-rule="nonzero" opacity=".3" x="369.02" y="188.8" width="110" height="110" rx="2.29"/><rect stroke="#A6AFBC" stroke-width="2" x="43.52" y="7.3" width="474" height="330" rx="4"/><path d="M415.02 120.23h17M423.52 128.73v-17" stroke="#BFE2D1" stroke-width="2" stroke-linecap="round" stroke-linejoin="round"/><path d="M272.02 250.53h17M280.52 259.03v-17M128.02 250.53h17M136.52 259.03v-17M415.02 243.8h17M423.52 252.3v-17" stroke="#DBDFE4" stroke-width="2" stroke-linecap="round" stroke-linejoin="round"/><rect stroke="#C2EAD8" stroke-width="2" x="225.52" y="65.23" width="110" height="110" rx="2.29"/><path d="M235.4 72.73h90.24a2.38 2.38 0 012.38 2.38v90.24a2.38 2.38 0 01-2.38 2.38H235.4a2.38 2.38 0 01-2.38-2.38V75.11a2.38 2.38 0 012.38-2.38zM378.9 72.73h90.24a2.38 2.38 0 012.38 2.38v90.24a2.38 2.38 0 01-2.38 2.38H378.9a2.38 2.38 0 01-2.38-2.38V75.11a2.38 2.38 0 012.38-2.38z" stroke="#C2EAD8" stroke-width="2" stroke-linecap="round" stroke-linejoin="round" stroke-dasharray="4.04"/><path d="M378.9 196.3h90.24a2.38 2.38 0 012.38 2.38v90.24a2.38 2.38 0 01-2.38 2.38H378.9a2.38 2.38 0 01-2.38-2.38v-90.24a2.38 2.38 0 012.38-2.38z" stroke="#DBDFE4" stroke-width="2" stroke-linecap="round" stroke-linejoin="round" stroke-dasharray="4.04"/><path stroke="#363D49" stroke-width="2" fill="#FFF" fill-rule="nonzero" stroke-linecap="round" stroke-linejoin="round" d="M154.74 234.87l6.33 74.98 5.28 82.61h9.51l4.22-76.27 1.47-31.99 6.98 28.82v79.75h10.56l7.45-82.92-.35-81.31z"/><path d="M266.58 132.65s9.21-8.75 11-8.89c1.79-.14 2 2.54-.49 5.42-1.65 1.91-8.05 7.93-8.05 7.93" stroke="#075D37" stroke-width="2"/><path d="M168.57 137.55s-7.21-11.88-8.54-13.87c-2.13-3.2-3.2-12.8 5.34-17.07s18.13-3.2 18.13-3.2 2 .55-.62 7.21-4.65 18.45-4.65 18.45l-9.66 8.48z" stroke="#363D49" stroke-width="2" fill="#363D49" fill-rule="nonzero"/><path stroke="#363D49" stroke-width="2" fill="#FFF" fill-rule="nonzero" stroke-linecap="round" stroke-linejoin="round" d="M357.68 301.94l.49 12.14 9.49 78.11h5.65l-4.14-78.35.73-9.09M382.04 307.49l-.18 6.59 9.58 78.11h6.68l-5.17-78.35v-5.32M390.49 150s-1.68 1.39-5.81 1.39-4.14-2.63-4.14-4.14v-3.43s-3.1 0-3.1-1 1.84-4.48 2.07-5.88v-6.2s2.09-1.77 9.18 0a15.23 15.23 0 016.33 3.1s5.17 7.47 4.13 14.48v10.77l-3.1 6.8h-7.24l-5.17-4.13 2.07-10.34"/><path stroke="#075D37" stroke-width="2" d="M358.52 182.16l-2.3 6.44h10.88v-2.51z"/><path d="M291.27 154.41h-21.5a1.8 1.8 0 01-1.74-1.36l-8.11-32.42a1.8 1.8 0 011.75-2.23h37.71a1.79 1.79 0 011.74 2.23L293 153.05a1.8 1.8 0 01-1.73 1.36h0z" stroke="#0A9557" stroke-width="2" fill="#0FB167" fill-rule="nonzero"/><path d="M168.68 393.11H7.01M371.6 393.11h-64.3M552.12 393.11H413.43" stroke="#DADEE3" stroke-width="2" stroke-linecap="round"/><path d="M185.63 148.21h-17.06v-11.73s4.26-7.47 4.26-8.53c0-1.06-4.26-3.2-4.26-6.4a3 3 0 015.33-2.14c2.58 2.74 9.52-10.28 9.52-10.28l3.28 8.73 3.63 5a1 1 0 01-.24 1.43l-2.32 1.54s1.06 8.54 1.06 9.6c0 1.06-6.4 1.07-6.4 1.07l3.2 11.71zM184.22 136.44a42 42 0 01-5.64-.35" stroke="#363D49" stroke-width="2" fill="#FFF" fill-rule="nonzero" stroke-linecap="round" stroke-linejoin="round"/><path d="M266.52 134s8.46-8.11 10.38-8.25c1.92-.14 2.14 2.77-.53 5.89-1.79 2.08-6.31 6.48-6.31 6.48" stroke="#363D49" stroke-width="2" fill="#F5F6F7" fill-rule="nonzero"/><path d="M182.62 394.43h-16a1.28 1.28 0 01-1.28-1.29v-1.71h17.31c.8 0 1.45.65 1.45 1.45v.12a1.45 1.45 0 01-1.48 1.43zM187.54 391.43h17.31c.8 0 1.45.65 1.45 1.45v.12c0 .8-.65 1.45-1.45 1.45h-16a1.28 1.28 0 01-1.28-1.28v-1.72l-.03-.02z" fill="#363D49" fill-rule="nonzero"/><path d="M182.13 286.58l-8.33-34.28" stroke="#363D49" stroke-width="2" fill="#092317" fill-rule="nonzero" stroke-linecap="round" stroke-linejoin="round"/><path d="M383.64 158.62s-10.18 4.35-16.47 7.23a11.61 11.61 0 00-6.2 6.45 35.57 35.57 0 00-2.22 9.07l9.17 6 .6-4.81-.6 4.81-5.1 37.69 43.57 4.94 5.17-36.18 8.27 2.65A137.07 137.07 0 00423 181c.4-4.43-.11-9.86-5.28-13.11-3.91-2.46-18.61-9.3-18.61-9.3a8.21 8.21 0 01-7.23 4.13 11.2 11.2 0 01-8.24-4.1h0z" stroke="#363D49" stroke-width="2" fill="#FFF" fill-rule="nonzero" stroke-linecap="round" stroke-linejoin="round"/><path d="M364.7 216.58h-20.87a2 2 0 01-2-1.53L334 183.5a2 2 0 012-2.5h36.65a2 2 0 012 2.5l-7.89 31.55a2 2 0 01-2.06 1.53h0z" stroke="#0A9557" stroke-width="2" fill="#0FB167" fill-rule="nonzero"/><circle stroke="#363D49" stroke-width="2" fill="#363D49" fill-rule="nonzero" cx="406.66" cy="125.81" r="6.48"/><path d="M406.39 191.7l10.33 3.64s-5.16 24.27-6.2 26.34c-1.04 2.07-3.1 5.17-9.3 2.07-6.2-3.1-36.22-16.54-36.22-16.54l-3.28-1.56s-7.25-4.61-9.19-6.15c-2.9-2.31-3.2-4.92-1.46-5.12 1.74-.2 12.19 6.53 12.19 6.53s36.89 11.46 37.92 11.46c1.03 0 5.21-20.67 5.21-20.67z" stroke="#363D49" stroke-width="2" fill="#FFF" fill-rule="nonzero" stroke-linecap="round" stroke-linejoin="round"/><path d="M386.27 133.41a21.34 21.34 0 01-8.26-3.06c-.57-2.81 2.62-12 12.88-12 10.26 0 14.18 7.58 14.18 13.78 0 6.2-1.73 13.64-5.92 17.23-.16-10.95-5.65-16.15-5.65-16.15a56.26 56.26 0 01-7.23.2h0z" stroke="#363D49" stroke-width="2" fill="#363D49" fill-rule="nonzero" stroke-linecap="round" stroke-linejoin="round"/><path d="M331.57 160.3H337c5.672 0 10.27 4.598 10.27 10.27V174h-5.44a10.27 10.27 0 01-10.27-10.27v-3.4l.01-.03zM342 140.3h3.67a8.6 8.6 0 018.6 8.6v3.67h-3.67A8.6 8.6 0 01342 144v-3.7h0zM365.44 163.05h-4.18v-4.18c0-5.401 4.379-9.78 9.78-9.78h4.18v4.18c0 5.401-4.379 9.78-9.78 9.78h0z" stroke="#0A9557" stroke-width="2" fill="#FFF" fill-rule="nonzero" stroke-linecap="round" stroke-linejoin="round"/><path d="M354.26 152.57v28.8M347.28 173.96h6.98M354.26 163.04h6.98" stroke="#0A9557" stroke-width="2" fill="#FFF" fill-rule="nonzero"/><path d="M405.86 194.28l2.53-11.67" stroke="#363D49" stroke-width="2" fill="#FFF" fill-rule="nonzero" stroke-linecap="round" stroke-linejoin="round"/><path d="M397.86 394.15h-14.91a1.41 1.41 0 01-1.41-1.41v-.19a1.41 1.41 0 011.41-1.41h16.16v1.76a1.24 1.24 0 01-1.25 1.25zM372.98 394.12h-14.91a1.41 1.41 0 01-1.41-1.41v-.19a1.41 1.41 0 011.41-1.41h16.2v1.76a1.24 1.24 0 01-1.29 1.25z" fill="#363D49" fill-rule="nonzero"/><path d="M298.62 97.5c-2.29 0-4.14 2.37-4.14 4.65 0-2.28-1.85-4.65-4.14-4.65a3.72 3.72 0 00-3.62 3.62c0 4.13 5.17 6.72 7.76 8.27 2.58-1.55 7.76-4.14 7.76-8.27a3.72 3.72 0 00-3.62-3.62zM270.7 97.5c-2.28 0-4.13 2.37-4.13 4.65 0-2.28-1.86-4.65-4.14-4.65a3.71 3.71 0 00-3.62 3.62c0 4.13 5.17 6.72 7.76 8.27 2.58-1.55 7.75-4.14 7.75-8.27a3.71 3.71 0 00-3.62-3.62z" stroke="#0A9557" stroke-width="2" fill="#FFF" fill-rule="nonzero" stroke-linecap="round" stroke-linejoin="round"/><path d="M280.07 104.89v13.51M294.48 109.39v9.01M266.57 109.39v9.01" stroke="#0A9557" stroke-width="2"/><path d="M286.24 87.16c-3.41 0-6.17 3.53-6.17 6.94 0-3.41-2.76-6.94-6.16-6.94a5.54 5.54 0 00-5.4 5.4c0 6.16 7.71 10 11.56 12.33 3.86-2.31 11.57-6.17 11.57-12.33a5.54 5.54 0 00-5.4-5.4h0z" stroke="#0A9557" stroke-width="2" fill="#FFF" fill-rule="nonzero" stroke-linecap="round" stroke-linejoin="round"/><path d="M265.37 133.25l-31.7 23.45-26.15-5.4-22.16-4.09-16.84.09s-20 7-19 22c.42 6.32 5.22 65.57 5.22 65.57l51.44-6.33.36-57s30.46-1.66 33.8-3.49c3.18-1.75 31.17-28.27 31.17-28.27l-6.14-6.53z" stroke="#363D49" stroke-width="2" fill="#363D49" fill-rule="nonzero" stroke-linecap="round" stroke-linejoin="round"/><path fill="#363D49" fill-rule="nonzero" d="M177.9 136.83l5.44 6.16-.99-6.51zM385.3 157.04l5.93-6.39-5.4.81zM173.04 252.3l7.41 54.08 1.01-22.18zM357.7 304.95v2.1l11.58 2.63.38-2.78zM382.04 308.16v2.11l10.51 1.77v-3.92z"/><path d="M362.82 225.06c-5.18 13.32-19.69 50-27.53 71.74 14 9.92 57.42 13.82 84.3 10.72-6.2-38.25-13.44-77.57-13.44-77.57l-43.33-4.89z" stroke="#363D49" stroke-width="2" fill="#363D49" fill-rule="nonzero" stroke-linecap="round" stroke-linejoin="round"/></g></svg>
