<?xml version="1.0" encoding="iso-8859-1"?>
<!-- Generator: Adobe Illustrator 19.0.0, SVG Export Plug-In . SVG Version: 6.00 Build 0)  -->
<svg version="1.1" id="Layer_1" xmlns="http://www.w3.org/2000/svg" xmlns:xlink="http://www.w3.org/1999/xlink" x="0px" y="0px"
	 viewBox="0 0 370.909 370.909" style="enable-background:new 0 0 370.909 370.909;" xml:space="preserve">
<g>
	<g>
		<path d="M330.466,81.957L252.219,3.709C249.745,1.236,247.272,0,243.564,0H58.109C45.745,0,34.618,11.128,34.618,23.491v323.927
			c0,13.6,9.892,23.491,23.491,23.491H312.8c13.6,0,23.491-9.892,23.491-23.491V92.728
			C336.291,87.802,334.102,83.978,330.466,81.957z M255.927,42.036l38.327,38.327h-32.145c-3.709,0-6.182-2.472-6.182-6.182
			L255.927,42.036z M311.564,346.182H59.345v-0.001V24.727H231.2v49.455c0,17.309,13.6,30.909,30.909,30.909h49.455V346.182z"/>
	</g>
</g>
<g>
</g>
<g>
</g>
<g>
</g>
<g>
</g>
<g>
</g>
<g>
</g>
<g>
</g>
<g>
</g>
<g>
</g>
<g>
</g>
<g>
</g>
<g>
</g>
<g>
</g>
<g>
</g>
<g>
</g>
</svg>
