<svg width="12" height="12" xmlns="http://www.w3.org/2000/svg" xmlns:xlink="http://www.w3.org/1999/xlink"><defs><path d="M3.846 0h4.308c1.337 0 1.822.14 2.311.4.49.262.873.646 1.134 1.135.262.489.401.974.401 2.31v4.31c0 1.336-.14 1.821-.4 2.31a2.726 2.726 0 01-1.135 1.134c-.489.262-.974.401-2.31.401h-4.31c-1.336 0-1.821-.14-2.31-.4A2.726 2.726 0 01.4 10.464C.139 9.976 0 9.491 0 8.155v-4.31c0-1.336.14-1.821.4-2.31A2.726 2.726 0 011.536.4C2.024.139 2.509 0 3.845 0zM6.75 8.25a.75.75 0 000 1.5H9a.75.75 0 000-1.5H6.75zM6 6.748a.748.748 0 00-.267-.576L3.526 3.966a.75.75 0 10-1.06 1.06l1.721 1.722L2.466 8.47a.75.75 0 001.06 1.06l2.207-2.206A.748.748 0 006 6.748z" id="a"/></defs><use fill="#8792A2" xlink:href="#a" fill-rule="evenodd"/></svg>