<svg width="403" height="501" xmlns="http://www.w3.org/2000/svg"><g fill-rule="nonzero" fill="none"><path d="M15.563 461.731L.018 49.023c-.513-13.629 9.974-25.179 23.636-26.03L375.972 1.049a25.283 25.283 0 0118.852 6.768 25.1 25.1 0 017.954 18.325v449.72a25.094 25.094 0 01-7.796 18.171 25.28 25.28 0 01-18.57 6.941L39.645 485.901c-13.116-.585-23.59-11.097-24.081-24.17z" fill="#A2ACB9"/><path d="M298.615 91.421l3.16-85.785L365.317 0l2.736 88.465c.065 2.168-.99 4.182-2.704 5.164-1.715.981-3.778.752-5.29-.588l-24.508-21.79-29.013 24.84c-1.525 1.303-3.578 1.496-5.272.497-1.695-.999-2.727-3.011-2.65-5.167zM229.975 201.589c0 9.122 63.106 4.75 71.581-1.658 0-62.12-34.238-94.764-96.923-94.764s-97.807 33.154-97.807 82.877c0 86.608 120.038 88.266 120.038 135.507 0 13.262-6.67 21.131-21.342 21.131-19.116 0-26.675-9.504-25.786-41.826 0-7.013-72.91-9.2-75.132 0-5.66 78.328 44.458 100.922 101.811 100.922 55.571 0 99.14-28.842 99.14-81.056 0-92.824-121.816-90.338-121.816-136.335 0-18.645 14.229-21.132 22.676-21.132 8.887 0 24.893 1.526 23.56 36.334z" fill="#FFF"/></g></svg>