<svg width="83" height="103" xmlns="http://www.w3.org/2000/svg" xmlns:xlink="http://www.w3.org/1999/xlink"><defs><path d="M3.176 94.358L.004 9.835a5.148 5.148 0 014.823-5.331L76.72.01a5.148 5.148 0 015.47 5.139v92.103a5.148 5.148 0 01-5.38 5.143L8.09 99.308a5.148 5.148 0 01-4.914-4.95z" id="a"/></defs><g fill="none" fill-rule="evenodd"><path d="M3.176 94.358L.004 9.835a5.148 5.148 0 014.823-5.331L76.72.01a5.148 5.148 0 015.47 5.139v92.103a5.148 5.148 0 01-5.38 5.143L8.09 99.308a5.148 5.148 0 01-4.914-4.95z" fill="#FF4785" fill-rule="nonzero"/><mask id="b" fill="#fff"><use xlink:href="#a"/></mask><use fill="#000" xlink:href="#a"/><path d="M60.691 12.587L61.182.776 71.055 0l.425 12.18a.768.768 0 01-1.242.63l-3.808-3-4.508 3.42a.768.768 0 01-1.231-.643zM48.064 38.596c0 2.003 13.492 1.043 15.304-.364 0-13.64-7.32-20.808-20.722-20.808-13.402 0-20.911 7.28-20.911 18.198 0 19.017 25.664 19.381 25.664 29.754 0 2.912-1.426 4.64-4.563 4.64-4.087 0-5.703-2.087-5.513-9.184 0-1.54-15.588-2.02-16.063 0-1.21 17.199 9.505 22.16 21.767 22.16 11.881 0 21.196-6.333 21.196-17.798 0-20.382-26.044-19.836-26.044-29.936 0-4.094 3.042-4.64 4.848-4.64 1.9 0 5.322.335 5.037 7.978z" fill="#FFF" fill-rule="nonzero" mask="url(#b)"/></g></svg>