<svg width="512" height="492" xmlns="http://www.w3.org/2000/svg"><path d="M256 .667C114.56.667 0 113.307 0 252.229c0 111.168 73.344 205.44 175.04 238.678 12.8 2.368 17.493-5.419 17.493-12.096 0-5.974-.213-21.803-.32-42.774-71.21 15.168-86.229-33.749-86.229-33.749-11.648-29.035-28.48-36.8-28.48-36.8-23.19-15.595 1.792-15.275 1.792-15.275 25.707 1.75 39.21 25.92 39.21 25.92 22.827 38.464 59.926 27.35 74.56 20.928 2.305-16.277 8.897-27.349 16.214-33.642-56.853-6.294-116.608-27.926-116.608-124.31 0-27.456 9.92-49.898 26.347-67.498-2.88-6.358-11.52-31.936 2.24-66.582 0 0 21.44-6.741 70.4 25.792 20.48-5.589 42.24-8.362 64-8.49 21.76.128 43.52 2.901 64 8.49 48.64-32.533 70.08-25.792 70.08-25.792 13.76 34.646 5.12 60.224 2.56 66.582 16.32 17.6 26.24 40.042 26.24 67.498 0 96.64-59.84 117.91-116.8 124.096 8.96 7.552 17.28 22.976 17.28 46.55 0 33.664-.32 60.714-.32 68.885 0 6.592 4.48 14.464 17.6 11.947C438.72 457.563 512 363.227 512 252.229 512 113.307 397.376.667 256 .667z" fill="#A3ACB9" fill-rule="nonzero"/></svg>