<svg width="85" height="31" xmlns="http://www.w3.org/2000/svg"><g fill="#41526E" fill-rule="nonzero"><path d="M65.236 4h3.953v23.6h-3.953V4zm11.858 20.4H85v3.2H72.35v-3.2l7.907-9.2h-7.51V12H85v3.2l-7.906 9.2zM54.642 11.2c4.823 0 7.669 3.24 7.669 8.24 0 .6-.04 1.28-.08 1.36H50.809c.118 2.4 1.976 3.96 4.269 3.96 1.225 0 2.767-.6 3.36-1.96h3.518c-.79 2.92-3.28 5.2-6.918 5.2-4.23 0-7.984-3.12-7.984-8.48 0-5 3.636-8.32 7.59-8.32zM50.887 18h7.668c-.039-1.84-1.264-3.64-3.834-3.64-2.371 0-3.715 1.96-3.834 3.64zm-12.372-3.6c4.031.8 6.166 3.36 6.126 6.6 0 3.6-2.846 7-8.063 7-6.088 0-8.499-3.92-8.578-7.2h3.834c.356 1.84 1.581 3.48 4.744 3.48 2.727 0 4.15-1.16 4.15-2.96 0-1.48-1.067-2.68-3.044-3.12l-3.201-.68c-3.479-.72-5.771-3.04-5.771-6.48C28.712 7.2 32.23 4 36.459 4c5.297 0 7.787 3.48 7.866 6.8h-3.794c-.277-1.44-1.107-3.36-4.032-3.36-2.293 0-3.914 1.56-3.914 3.32 0 1.48.87 2.56 2.649 2.96l3.28.68zM2.888 2.865c3.836-3.82 10.069-3.82 13.945 0l2.517 2.507c.76.756.76 1.99 0 2.786-.76.756-1.998.756-2.797 0L14.036 5.65a5.901 5.901 0 00-8.351 0 5.844 5.844 0 000 8.317l5.833 5.81c.76.756.76 1.99 0 2.786-.759.756-1.997.756-2.797 0l-5.833-5.81C.61 14.485-.31 11.38.09 8.436c.32-2.03 1.238-4.019 2.797-5.57zm14.224 25.27c-3.836 3.82-10.069 3.82-13.945 0L.65 25.628c-.76-.756-.76-1.99 0-2.786.76-.756 1.998-.756 2.797 0l2.517 2.507a5.901 5.901 0 008.351 0 5.844 5.844 0 000-8.317l-5.833-5.85c-.76-.756-.76-1.99 0-2.785.759-.756 1.997-.756 2.797 0l5.833 5.81c2.278 2.268 3.197 5.372 2.797 8.317-.32 2.07-1.238 4.059-2.797 5.61z"/></g></svg>