<?xml version="1.0" encoding="UTF-8"?>
<svg width="110px" height="40px" viewBox="0 0 110 40" version="1.1" xmlns="http://www.w3.org/2000/svg" xmlns:xlink="http://www.w3.org/1999/xlink">
    <title>Logo/Horizontal/RGB_Standard</title>
    <g id="02_Checkout_21Apr2020_Annotated" stroke="none" stroke-width="1" fill="none" fill-rule="evenodd">
        <g id="1j" transform="translate(-302.000000, -67.000000)">
            <g id="Group-8" transform="translate(302.000000, 64.000000)">
                <g id="Logo/Horizontal/RGB_Standard" transform="translate(0.000000, 3.000000)">
                    <g id="Selz_Logo_Horizontal_RGB_Standard">
                        <g id="Group" transform="translate(35.813953, 5.128205)" fill="#2E343D" fill-rule="nonzero">
                            <path d="M34.8930233,9.23076923 C41.1348837,9.23076923 44.8186047,13.3846154 44.8186047,19.7948718 C44.8186047,20.5641026 44.7674419,21.4358974 44.7162791,21.5384615 L44.7162791,21.5384615 L29.9302326,21.5384615 C30.0837209,24.6153846 32.4883721,26.6153846 35.455814,26.6153846 C37.0418605,26.6153846 39.0372093,25.8461538 39.8046512,24.1025641 L39.8046512,24.1025641 L44.3581395,24.1025641 C43.3348837,27.8461538 40.1116279,30.7692308 35.4046512,30.7692308 C29.9302326,30.7692308 25.0697674,26.7692308 25.0697674,19.8974359 C25.0697674,13.4871795 29.7767442,9.23076923 34.8930233,9.23076923 Z M11.3581395,0 C18.2139535,0 21.4372093,4.46153846 21.5395349,8.71794872 L21.5395349,8.71794872 L16.627907,8.71794872 C16.2697674,6.87179487 15.1953488,4.41025641 11.4093023,4.41025641 C8.44186047,4.41025641 6.34418605,6.41025641 6.34418605,8.66666667 C6.34418605,10.5641026 7.46976744,11.9487179 9.77209302,12.4615385 L9.77209302,12.4615385 L14.0186047,13.3333333 C19.2372093,14.3589744 22,17.6410256 21.9488372,21.7948718 C21.9488372,26.4102564 18.2651163,30.7692308 11.5116279,30.7692308 C3.63255814,30.7692308 0.511627907,25.7435897 0.409302326,21.5384615 L0.409302326,21.5384615 L5.37209302,21.5384615 C5.83255814,23.8974359 7.41860465,26 11.5116279,26 C15.0418605,26 16.8837209,24.5128205 16.8837209,22.2051282 C16.8837209,20.3076923 15.5023256,18.7692308 12.944186,18.2051282 L12.944186,18.2051282 L8.8,17.3333333 C4.29767442,16.4102564 1.33023256,13.4358974 1.33023256,9.02564103 C1.33023256,4.1025641 5.88372093,0 11.3581395,0 Z M53.7209302,0 L53.7209302,30.2564103 L48.6046512,30.2564103 L48.6046512,0 L53.7209302,0 Z M74.1860465,10.2564103 L74.1860465,14.3589744 L63.9534884,26.1538462 L74.1860465,26.1538462 L74.1860465,30.2564103 L57.8139535,30.2564103 L57.8139535,26.1538462 L68.0465116,14.3589744 L58.3255814,14.3589744 L58.3255814,10.2564103 L74.1860465,10.2564103 Z M34.9953488,13.2820513 C31.9255814,13.2820513 30.1860465,15.7948718 30.0325581,17.9487179 L30.0325581,17.9487179 L39.9581395,17.9487179 C39.9069767,15.5897436 38.3209302,13.2820513 34.9953488,13.2820513 Z" id="Combined-Shape"></path>
                        </g>
                        <path d="M14.9395349,10.8205128 L22.4093023,18.3076923 C25.3255814,21.2307692 26.5023256,25.2307692 25.9906977,29.025641 C25.5813953,31.6923077 24.4046512,34.2564103 22.4093023,36.2564103 C17.4976744,41.1794872 9.51627907,41.1794872 4.55348837,36.2564103 L1.33023256,33.025641 C0.358139535,32.0512821 0.358139535,30.4615385 1.33023256,29.4358974 C2.30232558,28.4615385 3.88837209,28.4615385 4.91162791,29.4358974 L8.13488372,32.6666667 C11.1023256,35.6410256 15.8604651,35.6410256 18.827907,32.6666667 C21.7953488,29.6923077 21.7953488,24.9230769 18.827907,21.9487179 L11.3581395,14.4102564 C10.3860465,13.4358974 10.3860465,11.8461538 11.3581395,10.8205128 C12.3302326,9.84615385 13.9162791,9.84615385 14.9395349,10.8205128 Z M22.0511628,3.69230769 L25.2744186,6.92307692 C26.2465116,7.8974359 26.2465116,9.48717949 25.2744186,10.5128205 C24.3023256,11.4871795 22.7162791,11.4871795 21.6930233,10.5128205 L18.4697674,7.28205128 C15.5023256,4.30769231 10.744186,4.30769231 7.77674419,7.28205128 C4.80930233,10.2564103 4.80930233,15.025641 7.77674419,18 L15.2465116,25.4871795 C16.2186047,26.4615385 16.2186047,28.0512821 15.2465116,29.0769231 C14.2744186,30.0512821 12.6883721,30.0512821 11.6651163,29.0769231 L4.19534884,21.5897436 C1.27906977,18.6666667 0.102325581,14.6666667 0.613953488,10.8717949 C1.02325581,8.25641026 2.2,5.69230769 4.19534884,3.69230769 C9.10697674,-1.23076923 17.0883721,-1.23076923 22.0511628,3.69230769 Z" id="Combined-Shape" fill="#8D45E6" fill-rule="nonzero"></path>
                    </g>
                </g>
            </g>
        </g>
    </g>
</svg>