<?xml version="1.0" encoding="UTF-8"?>
<svg width="85px" height="31px" viewBox="0 0 85 31" version="1.1" xmlns="http://www.w3.org/2000/svg" xmlns:xlink="http://www.w3.org/1999/xlink">
    <!-- Generator: Sketch 58 (84663) - https://sketch.com -->
    <title>Selz_Logo_Horizontal_RGB_Standard</title>
    <desc>Created with Sketch.</desc>
    <g id="Page-1" stroke="none" stroke-width="1" fill="none" fill-rule="evenodd">
        <g id="Selz_Logo_Horizontal_RGB_Standard" fill="#41526E" fill-rule="nonzero">
            <path d="M65.2357836,4 L69.1886269,4 L69.1886269,27.6 L65.2357836,27.6 L65.2357836,4 Z M77.0943135,24.4 L85,24.4 L85,27.6 L72.3509015,27.6 L72.3509015,24.4 L80.2565881,15.2 L72.7461859,15.2 L72.7461859,12 L85,12 L85,15.2 L77.0943135,24.4 Z M54.6421637,11.2 C59.4646325,11.2 62.3106796,14.44 62.3106796,19.44 C62.3106796,20.04 62.2711512,20.72 62.2316227,20.8 L50.8079057,20.8 C50.926491,23.2 52.7843273,24.76 55.0769764,24.76 C56.3023578,24.76 57.8439667,24.16 58.4368932,22.8 L61.9549237,22.8 C61.1643551,25.72 58.6740638,28 55.037448,28 C50.8079057,28 47.0527046,24.88 47.0527046,19.52 C47.0527046,14.52 50.6893204,11.2 54.6421637,11.2 L54.6421637,11.2 Z M50.8869626,18 L58.5554785,18 C58.5159501,16.16 57.2905687,14.36 54.7212205,14.36 C52.3495146,14.36 51.0055479,16.32 50.8869626,18 L50.8869626,18 Z M38.5145631,14.4 C42.5464632,15.2 44.6809986,17.76 44.6414702,21 C44.6414702,24.6 41.795423,28 36.5776699,28 C30.4902913,28 28.0790569,24.08 28,20.8 L31.834258,20.8 C32.1900139,22.64 33.4153953,24.28 36.5776699,24.28 C39.3051318,24.28 40.7281553,23.12 40.7281553,21.32 C40.7281553,19.84 39.6608877,18.64 37.684466,18.2 L34.482663,17.52 C31.0041609,16.8 28.7115118,14.48 28.7115118,11.04 C28.7115118,7.2 32.2295423,4 36.4590846,4 C41.7558946,4 44.2461859,7.48 44.3252427,10.8 L40.5305132,10.8 C40.2538141,9.36 39.4237171,7.44 36.498613,7.44 C34.2059639,7.44 32.5852982,9 32.5852982,10.76 C32.5852982,12.24 33.4549237,13.32 35.2337032,13.72 L38.5145631,14.4 Z" id="Shape"></path>
            <path d="M2.8876603,2.86521181 C6.7235289,-0.955070603 12.9568154,-0.955070603 16.8326409,2.86521181 L19.3499297,5.37227214 C20.109112,6.1283697 20.109112,7.36200257 19.3499297,8.15789474 C18.5907474,8.9139923 17.3520815,8.9139923 16.5529422,8.15789474 L14.0356534,5.6508344 C11.7181495,3.34274711 8.00215177,3.34274711 5.68464782,5.6508344 C3.36714387,7.95892169 3.36714387,11.6598203 5.68464782,13.9679076 L11.5183647,19.7779204 C12.277547,20.534018 12.277547,21.7676508 11.5183647,22.563543 C10.7591823,23.3196406 9.52051642,23.3196406 8.72137713,22.563543 L2.8876603,16.7535302 C0.610113317,14.4852375 -0.308896869,11.381258 0.0906727769,8.436457 C0.410328494,6.40693196 1.32933868,4.41720154 2.8876603,2.86521181 Z M17.1123397,28.1347882 C13.2764711,31.9550706 7.04318462,31.9550706 3.16735905,28.1347882 L0.650070281,25.6277279 C-0.109112046,24.8716303 -0.109112046,23.6379974 0.650070281,22.8421053 C1.40925261,22.0860077 2.64791851,22.0860077 3.4470578,22.8421053 L5.96434657,25.3491656 C8.28185052,27.6572529 11.9978482,27.6572529 14.3153522,25.3491656 C16.6328561,23.0410783 16.6328561,19.3401797 14.3153522,17.0320924 L8.48163534,11.182285 C7.72245302,10.4261874 7.72245302,9.19255456 8.48163534,8.39666239 C9.24081767,7.64056483 10.4794836,7.64056483 11.2786229,8.39666239 L17.1123397,14.2066752 C19.3898867,16.4749679 20.3088969,19.5789474 19.9093272,22.5237484 C19.5896715,24.593068 18.6706613,26.5827985 17.1123397,28.1347882 Z" id="Shape"></path>
        </g>
    </g>
</svg>