<?xml version="1.0" encoding="UTF-8"?>
<svg width="75px" height="39px" viewBox="0 0 75 39" version="1.1" xmlns="http://www.w3.org/2000/svg" xmlns:xlink="http://www.w3.org/1999/xlink">
    <!-- Generator: Sketch 52.5 (67469) - http://www.bohemiancoding.com/sketch -->
    <title>Group 7</title>
    <desc>Created with Sketch.</desc>
    <g id="Page-1" stroke="none" stroke-width="1" fill="none" fill-rule="evenodd">
        <g id="Pricing-Copy" transform="translate(-48.000000, -32.000000)" fill="#5473D4">
            <g id="Header" transform="translate(48.000000, 32.000000)">
                <g id="Group-7">
                    <g>
                        <path d="M45.3693504,4.10400044 C44.8224342,4.4704168 44.4578512,5.16241622 44.1541847,5.72108242 C43.7151851,6.52849841 43.3591021,7.3794977 43.0386857,8.23991365 C42.295853,10.2333286 41.7564367,12.3024103 41.3152704,14.3817419 C40.8856041,16.4049068 40.5441878,18.4547384 40.3480213,20.5144034 C40.3421046,20.5816533 40.3353546,20.6489033 40.3286046,20.7163199 C41.3654371,18.959988 42.2510197,17.1148229 43.007019,15.2212411 C43.7819351,13.2801594 44.4275178,11.2869111 44.9553507,9.26449613 C45.2056839,8.30591359 45.4269337,7.33699774 45.5330169,6.35058189 C45.6002669,5.72374908 45.6460168,5.05366631 45.4946003,4.43400016 C45.4684336,4.32716692 45.4353503,4.1865837 45.3693504,4.10400044 M29.7896967,19.7822373 C28.7567809,19.790404 27.8128651,20.5999033 27.2202822,21.3690693 C26.3944496,22.4411518 25.9237833,23.771984 25.6742002,25.0904829 C27.2059489,24.3837335 28.7898642,23.6363175 29.83653,22.2541519 C30.1627798,21.8234023 30.4603629,21.3169861 30.5635294,20.7789032 C30.6141961,20.5125701 30.6348627,20.1638204 30.4130296,19.9636539 C30.249613,19.8164873 30.0014466,19.7790707 29.7896967,19.7822373 M37.3606904,30.6645616 C36.8304409,31.1742278 36.2344414,31.6233108 35.5936086,32.0178938 C34.0677765,32.9574763 32.3056113,33.6133924 30.5395295,33.9124755 C28.6091977,34.2388919 26.6205327,34.0345588 24.9096175,33.0380596 C24.1547848,32.5984766 23.4811187,32.0278938 22.8866192,31.390061 C22.5535361,31.0322279 22.284703,30.6464783 22.0912865,30.196062 C22.0628699,30.129812 22.0207032,30.0099788 21.9856199,29.9090622 C21.5957869,30.3444785 21.1692039,30.7476448 20.7177877,31.1157279 C19.2451222,32.3161435 17.558207,33.1230595 15.7111252,33.5533925 C13.8825434,33.9793921 11.9839616,34.135642 10.1095465,34.0182254 C8.47104789,33.9155589 6.84338259,33.5941425 5.31938386,32.9748096 C3.70005188,32.3163935 2.08921989,31.2474778 1.12438737,29.7608957 C0.137304857,28.2409803 -0.170611552,26.4124818 0.0863882333,24.63165 C0.215554792,23.7364007 0.471387912,22.8566514 0.834720941,22.0290688 C0.92788753,21.8169023 1.07255408,21.5508192 1.13355402,21.4432359 C1.50072038,20.7952365 2.41796962,20.53582 3.02880244,20.7083199 C3.91846836,20.960153 4.41388462,21.8748189 4.21846811,22.7692348 C4.20455146,22.8316515 4.0310516,23.3963177 3.99238497,23.5504842 C3.81788512,24.2491503 3.74613518,24.9870663 3.83305177,25.7034824 C3.93455168,26.5424817 4.30680137,27.2783144 4.90705087,27.8713972 C6.07771656,29.0275629 7.75196516,29.5571458 9.34604716,29.7788957 C11.1077124,30.0239788 12.9367108,29.9330622 14.6704594,29.5396459 C15.9252083,29.2544794 17.0515407,28.7478965 18.0566232,27.9367305 C18.8258726,27.315981 19.5189553,26.535565 19.8633717,25.5957325 C20.1172882,24.9035664 20.1415381,24.148817 19.8762884,23.4554009 C19.3754554,22.1455687 18.3432063,21.0539863 17.2212072,20.2524036 C15.6252086,19.1126546 13.7832101,18.3381552 12.0102949,17.5216559 C10.4205463,16.7886565 8.90254753,15.9328239 7.58688197,14.7654915 C6.23354976,13.5647425 5.10596737,12.0489105 4.61188445,10.2889953 C4.14888484,8.64091331 4.30363471,6.88149812 5.03280077,5.33449941 C5.76121682,3.78908403 6.96771582,2.40741852 8.43696459,1.52975259 C9.95687999,0.621586682 11.7285452,0.182587049 13.4820437,0.044920497 C13.8926267,0.0126705239 14.3052097,-0.00216279699 14.7172927,0.000253867653 C16.5151245,0.00692052875 18.3285397,0.321836932 20.0001216,0.991669706 C21.6503702,1.65258582 23.2010356,2.71441827 24.1766181,4.226667 C25.1935339,5.80316569 25.4990337,7.89499727 25.085784,9.71449575 C24.7058677,11.3863277 23.6649519,12.8342431 22.321453,13.8873256 C21.6074536,14.4472418 20.5387045,14.7472415 19.7658718,13.8765756 C18.8973725,12.8978264 19.4587054,11.8579106 20.0414549,11.3015778 C20.7803709,10.595995 21.2447872,9.80374568 21.3162872,8.86441313 C21.3900371,7.89449727 21.0484541,6.79866485 20.3865379,6.08258212 C19.2487056,4.85208315 17.4022071,4.37591688 15.7967918,4.20408369 C14.0800432,4.02025051 12.1163782,4.18008371 10.5969628,5.06808297 C9.57413031,5.6661658 8.65296441,6.83683149 8.50804786,8.03824715 C8.37021464,9.18307953 8.98896413,10.2508286 9.73246351,11.068828 C11.0402124,12.5075767 12.7905443,13.3129927 14.5223762,14.1148254 C16.4930412,15.0273246 18.4917895,15.9554072 20.2046214,17.3111561 C21.3395371,18.2094053 22.3495363,19.3244044 23.0832023,20.5887367 C23.3963688,19.9845705 23.7615351,19.4082376 24.1828681,18.8725714 C25.2268672,17.5451559 26.672616,16.4725734 28.321948,16.0468238 C28.8189476,15.9184072 29.3289471,15.849574 29.84253,15.8517406 C31.4944453,15.8649073 33.0818607,16.6723233 33.9179433,18.1240721 C34.8031092,19.6614874 34.6324427,21.5190692 33.9064433,23.0802346 C33.1711106,24.6616499 31.9358616,25.9448989 30.5171128,26.935898 C29.1822806,27.8687306 27.6716985,28.61423 26.1011998,29.0478963 C26.5711161,29.4793959 27.109699,29.8276456 27.7296151,29.9961455 C28.5441978,30.2183953 29.4069471,30.1427287 30.2229464,29.9711455 C31.856195,29.6277291 33.5469436,28.905563 34.7572759,27.730064 C35.3728587,27.1320645 35.9362749,26.4615651 36.2745247,25.6755657 C36.2644413,25.5082326 36.2562747,25.3408994 36.2500247,25.1733995 C36.230108,24.6348166 36.2244414,24.0957337 36.2322747,23.5564009 C36.2654413,21.3090694 36.5116911,19.0662379 36.8615242,16.8474898 C37.1913572,14.7580749 37.6241069,12.6818266 38.1679397,10.637745 C38.6585227,8.79482985 39.2450222,6.96308138 40.0247715,5.22041617 C40.7623542,3.57266755 41.7124368,1.7567524 43.2911855,0.767253227 C43.9151849,0.376086887 44.6214344,0.159587068 45.3597671,0.164420397 C46.8554325,0.199170368 48.1850147,0.97850305 48.8774308,2.31908526 C49.6605135,3.83450066 49.6048469,5.65508248 49.375847,7.2985811 C49.0924306,9.3338294 48.5025978,11.3334944 47.8770983,13.2868261 C47.2357655,15.2886578 46.4747661,17.2544894 45.5836002,19.1587379 C44.7189343,21.006903 43.7293518,22.7997348 42.595186,24.4964834 C42.0568532,25.3021494 41.4868536,26.0749821 40.8577708,26.8123148 C40.7404376,26.9495647 40.5416878,27.1869811 40.4253545,27.365481 C40.4594378,27.6083141 40.5396044,27.8908139 40.5969377,28.1032304 C40.6991876,28.4822301 40.8362708,28.8587298 41.0265207,29.2026461 C41.4623537,29.9893955 42.2032697,30.2661452 43.059519,30.0486454 C43.3626854,29.9715622 43.6583518,29.8718956 43.9467682,29.753979 C43.9594349,29.711729 43.9744349,29.6698957 43.9917682,29.6283958 C44.219268,29.0848129 44.5615177,28.6530633 45.1182673,28.4178968 C45.6014335,28.213647 46.0732665,27.9844805 46.5355161,27.7362307 C47.3610987,27.2919811 48.1559314,26.7894815 48.9167641,26.2413153 C50.4342628,25.1478995 51.8779283,23.8504839 52.9262607,22.2887352 C52.9884274,22.196402 53.048844,22.1034854 53.1078439,22.0087355 C52.2230113,22.0470688 51.3369287,22.0072355 50.4570961,21.9074022 C49.9639299,21.8514856 49.472597,21.7756523 48.9865974,21.6772358 C48.7970142,21.6388191 48.576931,21.5896525 48.3909312,21.5373192 C47.9956815,21.425986 47.1060156,20.960903 47.2621821,19.8897372 C47.3754321,19.1133212 48.0616815,18.6644883 48.7377642,18.6542383 C49.065764,18.6489883 49.6521801,18.7081549 50.0087632,18.7156549 C50.4960128,18.7257382 50.983429,18.7114049 51.4689286,18.6745716 C52.2920946,18.6112383 53.1176773,18.4899884 53.9183432,18.2858219 C54.2857596,18.1922387 54.649176,18.0808221 55.0063423,17.9539055 C55.4743419,17.7871557 55.9569249,17.6550724 56.3635079,17.7234891 C56.8105908,17.7988223 57.352757,18.1086554 57.6539235,18.583655 C57.9434232,19.0399046 57.9693399,19.5439042 57.9198399,20.0658204 C57.8462566,20.8483198 57.6412568,21.6251525 57.3424237,22.3511519 C56.7450909,23.8026506 55.830175,25.1058996 54.7842592,26.2682319 C53.6097602,27.5743142 52.2525946,28.7173965 50.8095958,29.7163124 C50.6876793,29.8010623 50.5650961,29.8852289 50.4410128,29.9673122 C52.1015948,30.3261452 53.7306767,30.4646451 55.3555087,29.8681456 C56.0900914,29.5984791 56.9405074,29.0089796 57.353507,28.6758966 C57.7187567,28.3812302 58.6811726,27.7804807 59.4568386,28.4574801 C60.3362546,29.2253128 59.9544215,30.105812 59.6490051,30.5214784 C59.3520054,30.9253947 58.9737557,31.3132277 58.6326726,31.6137275 C57.2461738,32.8358098 55.5434252,33.6155591 53.7232601,33.9179755 C51.783095,34.2407253 49.82543,33.9774755 47.9759315,33.342226 C47.4608486,33.1651428 46.9548491,32.9618097 46.4583495,32.7377265 C46.2398497,32.8787264 46.0171832,33.0120596 45.7905167,33.1369762 C44.1328514,34.0507254 42.1349364,34.3987251 40.3482713,33.6438924 C38.9907724,33.0700596 37.9802732,31.9757271 37.3606904,30.6645616" id="Fill-1"></path>
                        <text id="ui" font-family="CircularStd-Book, Circular Std" font-size="18" font-weight="300">
                            <tspan x="61.629" y="38">ui</tspan>
                        </text>
                    </g>
                </g>
            </g>
        </g>
    </g>
</svg>